<svg xmlns="http://www.w3.org/2000/svg" xmlns:xlink="http://www.w3.org/1999/xlink" xmlns:inkscape="http://www.inkscape.org/namespaces/inkscape" version="1.1" width="2942.8636" height="2942.8636" viewBox="0 0 2942.8636 2942.8636">
<g inkscape:groupmode="layer" inkscape:label="Layer 1">
<path transform="matrix(1,0,0,-1,0,2942.8636)" d="M1375.9724 2903.323 39.540586 1566.8912C-13.180195 1514.1704-13.180195 1428.6932 39.540586 1375.9724L1375.9724 39.540586C1428.6932-13.180195 1514.1704-13.180195 1566.8912 39.540586L2903.323 1375.9724C2956.0438 1428.6932 2956.0438 1514.1704 2903.323 1566.8912L1566.8912 2903.323C1514.1704 2956.0438 1428.6932 2956.0438 1375.9724 2903.323Z" fill="#ff7f00" fill-rule="evenodd"/>
<path transform="matrix(1,0,0,-1,0,2942.8636)" d="M1576.421 2075.1927H1366.0018C1366.377 2107.8245 1376.129 2144.8634 1395.258 2186.3096 1414.3871 2227.7559 1443.2681 2264.9825 1481.9013 2297.9893 1495.779 2309.2418 1506.3751 2319.744 1513.6891 2329.4959 1521.0032 2339.248 1524.6602 2348.4373 1524.6602 2357.0643 1524.6602 2368.6917 1519.5028 2379.6627 1509.1881 2389.9774 1498.8735 2400.292 1486.4021 2405.4493 1471.774 2405.4493 1457.146 2405.4493 1444.6747 2400.292 1434.36 2389.9774 1424.0453 2379.6627 1418.888 2367.1915 1418.888 2352.5633H1366.0018C1366.7521 2380.319 1377.1605 2404.8868 1397.2272 2426.266 1417.294 2447.6458 1442.1428 2458.3355 1471.774 2458.3355 1500.6552 2458.3355 1525.3165 2448.9586 1545.7583 2430.2047 1566.2001 2411.4508 1576.421 2387.8206 1576.421 2359.3148 1576.421 2339.8106 1571.2637 2322.4632 1560.949 2307.2725 1550.6344 2292.0819 1538.163 2277.9227 1523.5349 2264.795 1503.6558 2246.416 1484.7142 2225.3179 1466.7105 2201.5003 1448.7068 2177.6829 1436.7042 2153.209 1430.703 2128.0787H1576.421V2075.1927Z"/>
<path transform="matrix(1,0,0,-1,0,2942.8636)" d="M677.4446 1562.7992H635.101L597.0346 1697.5286H557.68508V1562.7992H516.62466V1849.3666H602.1672C624.69338 1849.3666 642.87118 1842.3806 656.7005 1828.4086 670.52987 1814.4367 677.4446 1795.9025 677.4446 1772.806 677.4446 1757.6935 673.66647 1743.5077 666.11019 1730.2487 658.5539 1716.9895 648.5027 1708.0789 635.9564 1703.5166L677.4446 1562.7992ZM637.23959 1774.0891C637.23959 1784.9246 633.8179 1793.4788 626.9745 1799.7518 620.1311 1806.025 611.1491 1809.1615 600.0286 1809.1615H557.68508V1738.589H600.0286C610.2937 1738.589 619.0618 1742.0108 626.3329 1748.8541 633.604 1755.6975 637.23959 1764.1091 637.23959 1774.0891Z"/>
<path transform="matrix(1,0,0,-1,0,2942.8636)" d="M770.68588 1562.7992H730.4809V1849.3666H770.68588V1562.7992Z"/>
<path transform="matrix(1,0,0,-1,0,2942.8636)" d="M980.6927 1664.167C980.6927 1631.0906 974.6334 1605.0714 962.5149 1586.1095 950.3964 1567.1476 932.6463 1557.6666 909.2647 1557.6666 879.89517 1557.6666 857.79666 1569.001 842.9693 1591.6698 828.1419 1614.3385 820.7282 1652.3336 820.7282 1705.6552 821.2985 1760.9727 829.7815 1799.5381 846.1771 1821.3513 862.57278 1843.1647 882.60397 1854.0714 906.27078 1854.0714 926.8009 1854.0714 944.052 1847.2992 958.0239 1833.755 971.99588 1820.2108 979.5521 1802.8884 980.6927 1781.788H939.2046C938.91946 1791.4828 935.6403 1799.2529 929.3672 1805.0983 923.09408 1810.9437 914.9675 1813.8665 904.9876 1813.8665 893.5819 1814.1515 883.8871 1808.8052 875.90316 1797.8272 867.9192 1786.8493 863.35696 1756.1253 862.2164 1705.6552 862.50149 1657.7514 867.0637 1627.5977 875.90316 1615.194 884.74258 1602.7903 895.2928 1597.0161 907.5539 1597.8716 918.3892 1597.3013 926.5871 1602.22 932.14736 1612.6277 937.7076 1623.0354 940.06 1639.2172 939.2046 1661.1731H907.12619V1701.378H980.6927V1664.167Z"/>
<path transform="matrix(1,0,0,-1,0,2942.8636)" d="M1177.4404 1562.7992H1135.9523V1692.396H1057.6809V1562.7992H1016.62057V1849.3666H1057.6809V1732.6011H1135.9523V1849.3666H1177.4404V1562.7992Z"/>
<path transform="matrix(1,0,0,-1,0,2942.8636)" d="M1356.2243 1810.8724H1304.0433V1562.7992H1262.5552V1810.8724H1210.3743V1849.3666H1356.2243V1810.8724Z"/>
<path transform="matrix(1,0,0,-1,0,2942.8636)" d="M1636.376 1562.7992H1490.526V1849.3666H1531.5864V1603.0042H1636.376V1562.7992Z"/>
<path transform="matrix(1,0,0,-1,0,2942.8636)" d="M1851.943 1562.7992H1810.455L1790.3524 1641.0706H1729.1896L1709.9425 1562.7992H1668.8821L1740.31 1849.3666H1780.515L1851.943 1562.7992ZM1780.515 1681.2755 1759.5571 1763.8241 1739.4546 1681.2755H1780.515Z"/>
<path transform="matrix(1,0,0,-1,0,2942.8636)" d="M2039.2811 1562.7992H1999.5038L1919.5216 1745.0046V1562.7992H1878.4612V1849.3666H1919.5216L1997.793 1669.7273V1849.3666H2039.2811V1562.7992Z"/>
<path transform="matrix(1,0,0,-1,0,2942.8636)" d="M2228.7579 1562.7992H2082.9078V1849.3666H2217.6373V1809.1615H2123.9683V1736.8782H2183.4202V1697.5286H2123.9683V1603.0042H2228.7579V1562.7992Z"/>
<path transform="matrix(1,0,0,-1,0,2942.8636)" d="M2429.7825 1643.2091C2429.7825 1620.683 2422.7967 1600.7943 2408.8248 1583.5432 2394.8529 1566.2921 2375.6058 1557.6666 2351.0836 1557.6666 2328.5574 1557.6666 2309.5242 1566.4347 2293.984 1583.971 2278.4437 1601.5072 2270.6737 1622.5364 2270.6737 1647.0585H2310.0233C2310.0233 1631.946 2313.8013 1619.9701 2321.3575 1611.1307 2328.9139 1602.2913 2338.5374 1597.8716 2350.228 1597.8716 2361.0635 1597.8716 2370.4732 1602.22 2378.457 1610.9169 2386.441 1619.6137 2390.2906 1629.8075 2390.0054 1641.4983 2389.7203 1650.908 2386.2274 1660.8167 2379.5264 1671.2243 2372.8255 1681.632 2360.4932 1692.5386 2342.5294 1703.9443 2321.999 1717.0608 2307.029 1730.1061 2297.6195 1743.08 2288.2098 1756.054 2283.505 1768.2438 2283.505 1779.6494 2283.2198 1800.1796 2289.778 1817.6445 2303.1798 1832.0442 2316.5814 1846.4439 2333.69 1853.7863 2354.5052 1854.0714 2376.4613 1854.0714 2394.4964 1846.8716 2408.6109 1832.4719 2422.7254 1818.0723 2429.7825 1800.6073 2429.7825 1780.0772H2387.8668C2388.1519 1791.1976 2384.659 1799.8944 2377.3878 1806.1676 2370.1168 1812.4407 2362.4893 1815.2921 2354.5052 1814.7218 2345.0955 1814.1515 2337.8245 1810.6586 2332.692 1804.2429 2327.5594 1797.8272 2325.1356 1790.0571 2325.4207 1780.9325 2325.7059 1774.9446 2328.2723 1769.0991 2333.1197 1763.3964 2337.967 1757.6935 2348.517 1749.1393 2364.7703 1737.7335 2387.5816 1722.3359 2404.0487 1707.2234 2414.1712 1692.396 2424.2938 1677.5687 2429.4974 1661.1731 2429.7825 1643.2091Z"/>
<path transform="matrix(1,0,0,-1,0,2942.8636)" d="M902.6352 1236.0269C902.6352 1291.6295 910.9756 1330.2661 927.6564 1351.9369 944.33718 1373.6077 964.5109 1384.4431 988.1777 1384.4431 1008.7079 1384.4431 1025.959 1377.6709 1039.9309 1364.1267 1053.9028 1350.5825 1061.4591 1333.2601 1062.5996 1312.1597H1021.1115C1020.82638 1321.8545 1017.54727 1329.6246 1011.2742 1335.47 1005.00106 1341.3154 996.8745 1344.2382 986.89456 1344.2382 975.4889 1344.2382 965.5089 1337.3234 956.95468 1323.494 948.4004 1309.6647 944.1233 1280.5089 944.1233 1236.0269 944.1233 1189.5487 948.4717 1159.7515 957.1685 1146.6349 965.86538 1133.5184 975.774 1127.2453 986.89456 1127.8156 996.8745 1127.8156 1005.00106 1130.7383 1011.2742 1136.5838 1017.54727 1142.4291 1020.82638 1150.1992 1021.1115 1159.894H1062.5996C1061.4591 1138.7936 1053.9028 1121.4712 1039.9309 1107.927 1025.959 1094.3827 1008.7079 1087.6106 988.1777 1087.6106 964.5109 1087.6106 944.33718 1098.446 927.6564 1120.1167 910.9756 1141.7875 902.6352 1180.4242 902.6352 1236.0269Z"/>
<path transform="matrix(1,0,0,-1,0,2942.8636)" d="M1250.3654 1093.1709H1104.5155V1379.7383H1145.5758V1133.3759H1250.3654V1093.1709Z"/>
<path transform="matrix(1,0,0,-1,0,2942.8636)" d="M1373.9744 1088.0383C1344.6047 1088.0383 1323.0765 1100.3707 1309.3898 1125.0354 1295.7029 1149.7002 1288.8595 1186.84 1288.8595 1236.4546 1288.8595 1285.4989 1295.7029 1322.4248 1309.3898 1347.232 1323.0765 1372.0394 1344.6047 1384.4431 1373.9744 1384.4431 1403.3439 1384.4431 1424.8721 1372.0394 1438.559 1347.232 1452.2457 1322.4248 1459.0891 1285.4989 1459.0891 1236.4546 1459.0891 1186.84 1452.2457 1149.7002 1438.559 1125.0354 1424.8721 1100.3707 1403.3439 1088.0383 1373.9744 1088.0383ZM1373.9744 1128.2433C1389.6571 1127.9581 1400.9202 1136.655 1407.7636 1154.3338 1414.607 1172.0126 1418.0287 1199.6713 1418.0287 1237.3099 1418.0287 1274.3784 1414.607 1301.4668 1407.7636 1318.5753 1400.9202 1335.6838 1389.6571 1344.2382 1373.9744 1344.2382 1358.2915 1344.2382 1347.0285 1335.6838 1340.185 1318.5753 1333.3417 1301.4668 1329.9199 1274.3784 1329.9199 1237.3099 1329.9199 1199.6713 1333.3417 1172.0126 1340.185 1154.3338 1347.0285 1136.655 1358.2915 1127.9581 1373.9744 1128.2433Z"/>
<path transform="matrix(1,0,0,-1,0,2942.8636)" d="M1650.2766 1173.5808C1650.2766 1151.0547 1643.2907 1131.166 1629.3187 1113.9149 1615.3467 1096.6638 1596.0996 1088.0383 1571.5775 1088.0383 1549.0513 1088.0383 1530.0181 1096.8064 1514.4779 1114.3427 1498.9376 1131.8789 1491.1675 1152.9081 1491.1675 1177.4302H1530.5171C1530.5171 1162.3178 1534.2952 1150.3418 1541.8515 1141.5023 1549.4077 1132.663 1559.0313 1128.2433 1570.722 1128.2433 1581.5575 1128.2433 1590.9672 1132.5917 1598.951 1141.2886 1606.935 1149.9854 1610.7844 1160.1792 1610.4993 1171.87 1610.2142 1181.2797 1606.7212 1191.1884 1600.0204 1201.596 1593.3196 1212.0037 1580.9872 1222.9103 1563.0232 1234.316 1542.493 1247.4325 1527.5231 1260.4778 1518.1134 1273.4517 1508.7037 1286.4257 1503.9989 1298.6155 1503.9989 1310.0211 1503.7138 1330.5513 1510.272 1348.0162 1523.6737 1362.4159 1537.0753 1376.8156 1554.1838 1384.158 1574.9992 1384.4431 1596.9551 1384.4431 1614.9904 1377.2433 1629.1049 1362.8436 1643.2194 1348.444 1650.2766 1330.979 1650.2766 1310.4489H1608.3607C1608.6459 1321.5693 1605.153 1330.2661 1597.8818 1336.5393 1590.6107 1342.8124 1582.9832 1345.6638 1574.9992 1345.0935 1565.5895 1344.5232 1558.3184 1341.0303 1553.1858 1334.6146 1548.0534 1328.1989 1545.6296 1320.4287 1545.9148 1311.3042 1546.1998 1305.3163 1548.7661 1299.4708 1553.6135 1293.7681 1558.4609 1288.0652 1569.0112 1279.511 1585.2643 1268.1052 1608.0756 1252.7077 1624.5425 1237.5951 1634.665 1222.7677 1644.7876 1207.9404 1649.9915 1191.5448 1650.2766 1173.5808Z"/>
<path transform="matrix(1,0,0,-1,0,2942.8636)" d="M1838.4701 1093.1709H1692.6201V1379.7383H1827.3496V1339.5332H1733.6806V1267.2499H1793.1326V1227.9003H1733.6806V1133.3759H1838.4701V1093.1709Z"/>
<path transform="matrix(1,0,0,-1,0,2942.8636)" d="M2040.3504 1236.4546C2040.3504 1190.2616 2032.8654 1154.8328 2017.8955 1130.168 2002.9255 1105.5033 1980.7557 1093.1709 1951.3862 1093.1709H1880.3859V1379.7383H1951.3862C1980.7557 1379.7383 2002.9255 1367.4059 2017.8955 1342.7411 2032.8654 1318.0763 2040.3504 1282.6475 2040.3504 1236.4546ZM2000.5731 1237.3099C2000.5731 1273.523 1995.9396 1299.6847 1986.6725 1315.7952 1977.4054 1331.9058 1965.073 1339.9609 1949.6753 1339.9609H1920.1632V1236.8823 1133.8036H1949.6753C1965.073 1133.8036 1977.4054 1141.8588 1986.6725 1157.9694 1995.9396 1174.0798 2000.5731 1200.5267 2000.5731 1237.3099Z"/>
<path transform="matrix(1,0,0,-1,0,2942.8636)" d="M1169.7416 623.5426H1128.2536L1108.151 701.81399H1046.9882L1027.7411 623.5426H986.68069L1058.1087 910.1099H1098.3136L1169.7416 623.5426ZM1098.3136 742.0189 1077.3557 824.56747 1057.2532 742.0189H1098.3136Z"/>
<path transform="matrix(1,0,0,-1,0,2942.8636)" d="M1357.0797 623.5426H1315.5916V753.13949H1237.3202V623.5426H1196.2598V910.1099H1237.3202V793.3444H1315.5916V910.1099H1357.0797V623.5426Z"/>
<path transform="matrix(1,0,0,-1,0,2942.8636)" d="M1546.5563 623.5426H1400.7063V910.1099H1535.4358V869.90499H1441.7667V797.6216H1501.2188V758.27206H1441.7667V663.74758H1546.5563V623.5426Z"/>
<path transform="matrix(1,0,0,-1,0,2942.8636)" d="M1762.1234 623.5426H1720.6353L1700.5328 701.81399H1639.3699L1620.1228 623.5426H1579.0625L1650.4905 910.1099H1690.6954L1762.1234 623.5426ZM1690.6954 742.0189 1669.7376 824.56747 1649.635 742.0189H1690.6954Z"/>
<path transform="matrix(1,0,0,-1,0,2942.8636)" d="M1947.3229 766.82626C1947.3229 720.6333 1939.8379 685.20449 1924.868 660.53976 1909.8981 635.87496 1887.7283 623.5426 1858.3587 623.5426H1787.3584V910.1099H1858.3587C1887.7283 910.1099 1909.8981 897.7775 1924.868 873.1128 1939.8379 848.44808 1947.3229 813.0192 1947.3229 766.82626ZM1907.5457 767.6817C1907.5457 803.89468 1902.9121 830.0564 1893.645 846.16696 1884.3779 862.2774 1872.0455 870.3327 1856.6478 870.3327H1827.1358V767.25399 664.17526H1856.6478C1872.0455 664.17526 1884.3779 672.2305 1893.645 688.341 1902.9121 704.45156 1907.5457 730.89846 1907.5457 767.6817Z"/>
<path transform="matrix(1,0,0,-1,0,2942.8636)" d="M45.080575 1512.9197C39.351034 1500.472 36.598054 1488.95 36.08172 1475.2567 35.557649 1461.5493 37.418096 1449.8403 42.165025 1436.9705 47.362829 1422.9503 54.3815 1412.0221 64.969379 1401.4636L1401.4367 64.99643C1410.1249 56.294626 1418.7991 50.23432 1429.9584 45.069387 1453.8992 34.020139 1481.408 33.09913 1505.9015 42.15659 1519.9218 47.354394 1530.85 54.373067 1541.4083 64.960948L2877.8758 1401.4282C2886.5775 1410.1165 2892.6378 1418.7907 2897.8028 1429.95 2908.852 1453.8908 2909.773 1481.3995 2900.7156 1505.8931 2895.5177 1519.9133 2888.499 1530.8416 2877.9112 1541.3999L1541.4439 2877.8673C1532.7556 2886.569 1524.0814 2892.6295 1512.9221 2897.7943 1488.9813 2908.8436 1461.4725 2909.7645 1436.979 2900.707 1422.9588 2895.5093 1412.0305 2888.4906 1401.4722 2877.9027L64.97568 1541.4063C56.28221 1532.7327 50.23073 1524.0679 45.080575 1512.9197ZM94.11346 1490.2971C96.4611 1495.3544 99.21195 1499.2849 103.15945 1503.2224L1439.709 2839.7723C1444.4664 2844.5428 1449.388 2847.7078 1455.7025 2850.057 1466.8253 2854.1683 1479.473 2853.761 1490.2855 2848.7679 1495.3606 2846.4068 1499.3056 2843.6448 1503.26 2839.6834L2839.7806 1503.163C2844.5513 1498.4057 2847.716 1493.4841 2850.0655 1487.1696 2854.1768 1476.0468 2853.7694 1463.399 2848.7762 1452.5866 2846.4154 1447.5114 2843.653 1443.5665 2839.692 1439.612L1503.1715 103.09148C1498.4141 98.3208 1493.4926 95.155979 1487.178 92.80672 1476.0552 88.6954 1463.4075 89.10268 1452.595 94.095859 1447.5199 96.45681 1443.575 99.21887 1439.6205 103.1802L103.099918 1439.7006C98.32923 1444.458 95.16441 1449.3795 92.815158 1455.694 90.6507 1461.5881 89.803188 1466.9476 90.04337 1473.2219 90.27742 1479.4291 91.52236 1484.6519 94.11346 1490.2971Z" fill-rule="evenodd"/>
</g>
</svg>
