<svg xmlns="http://www.w3.org/2000/svg" xmlns:xlink="http://www.w3.org/1999/xlink" xmlns:inkscape="http://www.inkscape.org/namespaces/inkscape" version="1.1" width="2942.8636" height="2942.8636" viewBox="0 0 2942.8636 2942.8636">
<g inkscape:groupmode="layer" inkscape:label="Layer 1">
<path transform="matrix(1,0,0,-1,0,2942.8636)" d="M1375.9724 2903.323 39.540586 1566.8912C-13.180195 1514.1704-13.180195 1428.6932 39.540586 1375.9724L1375.9724 39.540586C1428.6932-13.180195 1514.1704-13.180195 1566.8912 39.540586L2903.323 1375.9724C2956.0438 1428.6932 2956.0438 1514.1704 2903.323 1566.8912L1566.8912 2903.323C1514.1704 2956.0438 1428.6932 2956.0438 1375.9724 2903.323Z" fill="#ff7f00" fill-rule="evenodd"/>
<path transform="matrix(1,0,0,-1,0,2942.8636)" d="M1576.421 2059.8023H1366.0018C1366.377 2092.434 1376.129 2129.473 1395.258 2170.9193 1414.3871 2212.3656 1443.2681 2249.592 1481.9013 2282.5989 1495.779 2293.8514 1506.3751 2304.3536 1513.6891 2314.1055 1521.0032 2323.8575 1524.6602 2333.0469 1524.6602 2341.6739 1524.6602 2353.3013 1519.5028 2364.2723 1509.1881 2374.587 1498.8735 2384.9017 1486.4021 2390.0589 1471.774 2390.0589 1457.146 2390.0589 1444.6747 2384.9017 1434.36 2374.587 1424.0453 2364.2723 1418.888 2351.8009 1418.888 2337.1729H1366.0018C1366.7521 2364.9288 1377.1605 2389.4964 1397.2272 2410.8758 1417.294 2432.2554 1442.1428 2442.945 1471.774 2442.945 1500.6552 2442.945 1525.3165 2433.568 1545.7583 2414.8143 1566.2001 2396.06 1576.421 2372.4302 1576.421 2343.9244 1576.421 2324.4202 1571.2637 2307.0728 1560.949 2291.882 1550.6344 2276.6915 1538.163 2262.5323 1523.5349 2249.4046 1503.6558 2231.0257 1484.7142 2209.9276 1466.7105 2186.1099 1448.7068 2162.2926 1436.7042 2137.8187 1430.703 2112.6883H1576.421V2059.8023Z"/>
<path transform="matrix(1,0,0,-1,0,2942.8636)" d="M677.4446 1580.3845H635.101L597.0346 1715.114H557.68508V1580.3845H516.62466V1866.9519H602.1672C624.69338 1866.9519 642.87118 1859.966 656.7005 1845.994 670.52987 1832.0221 677.4446 1813.4879 677.4446 1790.3914 677.4446 1775.2789 673.66647 1761.0932 666.11019 1747.834 658.5539 1734.575 648.5027 1725.6642 635.9564 1721.1019L677.4446 1580.3845ZM637.23959 1791.6746C637.23959 1802.5099 633.8179 1811.0642 626.9745 1817.3373 620.1311 1823.6104 611.1491 1826.747 600.0286 1826.747H557.68508V1756.1744H600.0286C610.2937 1756.1744 619.0618 1759.5961 626.3329 1766.4395 633.604 1773.2828 637.23959 1781.6946 637.23959 1791.6746Z"/>
<path transform="matrix(1,0,0,-1,0,2942.8636)" d="M770.68588 1580.3845H730.4809V1866.9519H770.68588V1580.3845Z"/>
<path transform="matrix(1,0,0,-1,0,2942.8636)" d="M980.6927 1681.7525C980.6927 1648.676 974.6334 1622.6569 962.5149 1603.695 950.3964 1584.7329 932.6463 1575.252 909.2647 1575.252 879.89517 1575.252 857.79666 1586.5864 842.9693 1609.2551 828.1419 1631.924 820.7282 1669.9191 820.7282 1723.2405 821.2985 1778.558 829.7815 1817.1234 846.1771 1838.9368 862.57278 1860.7501 882.60397 1871.6567 906.27078 1871.6567 926.8009 1871.6567 944.052 1864.8847 958.0239 1851.3405 971.99588 1837.7962 979.5521 1820.4739 980.6927 1799.3733H939.2046C938.91946 1809.0681 935.6403 1816.8383 929.3672 1822.6837 923.09408 1828.529 914.9675 1831.4518 904.9876 1831.4518 893.5819 1831.7369 883.8871 1826.3905 875.90316 1815.4126 867.9192 1804.4346 863.35696 1773.7106 862.2164 1723.2405 862.50149 1675.3367 867.0637 1645.183 875.90316 1632.7793 884.74258 1620.3756 895.2928 1614.6016 907.5539 1615.457 918.3892 1614.8867 926.5871 1619.8054 932.14736 1630.213 937.7076 1640.6207 940.06 1656.8025 939.2046 1678.7584H907.12619V1718.9634H980.6927V1681.7525Z"/>
<path transform="matrix(1,0,0,-1,0,2942.8636)" d="M1177.4404 1580.3845H1135.9523V1709.9815H1057.6809V1580.3845H1016.62057V1866.9519H1057.6809V1750.1864H1135.9523V1866.9519H1177.4404V1580.3845Z"/>
<path transform="matrix(1,0,0,-1,0,2942.8636)" d="M1356.2243 1828.4578H1304.0433V1580.3845H1262.5552V1828.4578H1210.3743V1866.9519H1356.2243V1828.4578Z"/>
<path transform="matrix(1,0,0,-1,0,2942.8636)" d="M1636.376 1580.3845H1490.526V1866.9519H1531.5864V1620.5895H1636.376V1580.3845Z"/>
<path transform="matrix(1,0,0,-1,0,2942.8636)" d="M1851.943 1580.3845H1810.455L1790.3524 1658.6559H1729.1896L1709.9425 1580.3845H1668.8821L1740.31 1866.9519H1780.515L1851.943 1580.3845ZM1780.515 1698.861 1759.5571 1781.4094 1739.4546 1698.861H1780.515Z"/>
<path transform="matrix(1,0,0,-1,0,2942.8636)" d="M2039.2811 1580.3845H1999.5038L1919.5216 1762.5901V1580.3845H1878.4612V1866.9519H1919.5216L1997.793 1687.3126V1866.9519H2039.2811V1580.3845Z"/>
<path transform="matrix(1,0,0,-1,0,2942.8636)" d="M2228.7579 1580.3845H2082.9078V1866.9519H2217.6373V1826.747H2123.9683V1754.4635H2183.4202V1715.114H2123.9683V1620.5895H2228.7579V1580.3845Z"/>
<path transform="matrix(1,0,0,-1,0,2942.8636)" d="M2429.7825 1660.7946C2429.7825 1638.2683 2422.7967 1618.3796 2408.8248 1601.1287 2394.8529 1583.8776 2375.6058 1575.252 2351.0836 1575.252 2328.5574 1575.252 2309.5242 1584.0202 2293.984 1601.5563 2278.4437 1619.0925 2270.6737 1640.1217 2270.6737 1664.6439H2310.0233C2310.0233 1649.5314 2313.8013 1637.5554 2321.3575 1628.7161 2328.9139 1619.8767 2338.5374 1615.457 2350.228 1615.457 2361.0635 1615.457 2370.4732 1619.8054 2378.457 1628.5022 2386.441 1637.199 2390.2906 1647.3928 2390.0054 1659.0836 2389.7203 1668.4933 2386.2274 1678.402 2379.5264 1688.8097 2372.8255 1699.2173 2360.4932 1710.124 2342.5294 1721.5297 2321.999 1734.6463 2307.029 1747.6914 2297.6195 1760.6654 2288.2098 1773.6393 2283.505 1785.8291 2283.505 1797.2348 2283.2198 1817.765 2289.778 1835.2299 2303.1798 1849.6295 2316.5814 1864.0292 2333.69 1871.3716 2354.5052 1871.6567 2376.4613 1871.6567 2394.4964 1864.4569 2408.6109 1850.0573 2422.7254 1835.6576 2429.7825 1818.1928 2429.7825 1797.6625H2387.8668C2388.1519 1808.783 2384.659 1817.4799 2377.3878 1823.7529 2370.1168 1830.0261 2362.4893 1832.8775 2354.5052 1832.3073 2345.0955 1831.7369 2337.8245 1828.2439 2332.692 1821.8283 2327.5594 1815.4126 2325.1356 1807.6425 2325.4207 1798.518 2325.7059 1792.5299 2328.2723 1786.6846 2333.1197 1780.9817 2337.967 1775.2789 2348.517 1766.7246 2364.7703 1755.319 2387.5816 1739.9213 2404.0487 1724.8088 2414.1712 1709.9815 2424.2938 1695.154 2429.4974 1678.7584 2429.7825 1660.7946Z"/>
<path transform="matrix(1,0,0,-1,0,2942.8636)" d="M902.6352 1283.8358C902.6352 1339.4385 910.9756 1378.0751 927.6564 1399.7459 944.33718 1421.4166 964.5109 1432.2521 988.1777 1432.2521 1008.7079 1432.2521 1025.959 1425.4799 1039.9309 1411.9357 1053.9028 1398.3915 1061.4591 1381.0691 1062.5996 1359.9686H1021.1115C1020.82638 1369.6635 1017.54727 1377.4336 1011.2742 1383.2789 1005.00106 1389.1244 996.8745 1392.0471 986.89456 1392.0471 975.4889 1392.0471 965.5089 1385.1323 956.95468 1371.303 948.4004 1357.4736 944.1233 1328.3179 944.1233 1283.8358 944.1233 1237.3577 948.4717 1207.5604 957.1685 1194.4439 965.86538 1181.3274 975.774 1175.0542 986.89456 1175.6245 996.8745 1175.6245 1005.00106 1178.5473 1011.2742 1184.3927 1017.54727 1190.238 1020.82638 1198.0082 1021.1115 1207.703H1062.5996C1061.4591 1186.6026 1053.9028 1169.2802 1039.9309 1155.736 1025.959 1142.1917 1008.7079 1135.4196 988.1777 1135.4196 964.5109 1135.4196 944.33718 1146.255 927.6564 1167.9257 910.9756 1189.5964 902.6352 1228.2332 902.6352 1283.8358Z"/>
<path transform="matrix(1,0,0,-1,0,2942.8636)" d="M1250.3654 1140.9799H1104.5155V1427.5473H1145.5758V1181.1848H1250.3654V1140.9799Z"/>
<path transform="matrix(1,0,0,-1,0,2942.8636)" d="M1373.9744 1135.8473C1344.6047 1135.8473 1323.0765 1148.1797 1309.3898 1172.8444 1295.7029 1197.5092 1288.8595 1234.6488 1288.8595 1284.2636 1288.8595 1333.3079 1295.7029 1370.2338 1309.3898 1395.041 1323.0765 1419.8484 1344.6047 1432.2521 1373.9744 1432.2521 1403.3439 1432.2521 1424.8721 1419.8484 1438.559 1395.041 1452.2457 1370.2338 1459.0891 1333.3079 1459.0891 1284.2636 1459.0891 1234.6488 1452.2457 1197.5092 1438.559 1172.8444 1424.8721 1148.1797 1403.3439 1135.8473 1373.9744 1135.8473ZM1373.9744 1176.0523C1389.6571 1175.7671 1400.9202 1184.464 1407.7636 1202.1427 1414.607 1219.8215 1418.0287 1247.4802 1418.0287 1285.1189 1418.0287 1322.1874 1414.607 1349.2758 1407.7636 1366.3843 1400.9202 1383.4928 1389.6571 1392.0471 1373.9744 1392.0471 1358.2915 1392.0471 1347.0285 1383.4928 1340.185 1366.3843 1333.3417 1349.2758 1329.9199 1322.1874 1329.9199 1285.1189 1329.9199 1247.4802 1333.3417 1219.8215 1340.185 1202.1427 1347.0285 1184.464 1358.2915 1175.7671 1373.9744 1176.0523Z"/>
<path transform="matrix(1,0,0,-1,0,2942.8636)" d="M1650.2766 1221.3898C1650.2766 1198.8635 1643.2907 1178.975 1629.3187 1161.7239 1615.3467 1144.4728 1596.0996 1135.8473 1571.5775 1135.8473 1549.0513 1135.8473 1530.0181 1144.6154 1514.4779 1162.1516 1498.9376 1179.6879 1491.1675 1200.717 1491.1675 1225.2391H1530.5171C1530.5171 1210.1267 1534.2952 1198.1508 1541.8515 1189.3113 1549.4077 1180.4719 1559.0313 1176.0523 1570.722 1176.0523 1581.5575 1176.0523 1590.9672 1180.4006 1598.951 1189.0975 1606.935 1197.7943 1610.7844 1207.9882 1610.4993 1219.679 1610.2142 1229.0886 1606.7212 1238.9973 1600.0204 1249.4049 1593.3196 1259.8126 1580.9872 1270.7192 1563.0232 1282.125 1542.493 1295.2415 1527.5231 1308.2868 1518.1134 1321.2606 1508.7037 1334.2346 1503.9989 1346.4244 1503.9989 1357.8301 1503.7138 1378.3602 1510.272 1395.8252 1523.6737 1410.2249 1537.0753 1424.6245 1554.1838 1431.9669 1574.9992 1432.2521 1596.9551 1432.2521 1614.9904 1425.0523 1629.1049 1410.6526 1643.2194 1396.2529 1650.2766 1378.788 1650.2766 1358.2578H1608.3607C1608.6459 1369.3783 1605.153 1378.0751 1597.8818 1384.3483 1590.6107 1390.6213 1582.9832 1393.4728 1574.9992 1392.9025 1565.5895 1392.3322 1558.3184 1388.8392 1553.1858 1382.4236 1548.0534 1376.0078 1545.6296 1368.2377 1545.9148 1359.1132 1546.1998 1353.1253 1548.7661 1347.2798 1553.6135 1341.577 1558.4609 1335.8742 1569.0112 1327.32 1585.2643 1315.9142 1608.0756 1300.5166 1624.5425 1285.404 1634.665 1270.5767 1644.7876 1255.7494 1649.9915 1239.3538 1650.2766 1221.3898Z"/>
<path transform="matrix(1,0,0,-1,0,2942.8636)" d="M1838.4701 1140.9799H1692.6201V1427.5473H1827.3496V1387.3422H1733.6806V1315.0588H1793.1326V1275.7092H1733.6806V1181.1848H1838.4701V1140.9799Z"/>
<path transform="matrix(1,0,0,-1,0,2942.8636)" d="M2040.3504 1284.2636C2040.3504 1238.0706 2032.8654 1202.6417 2017.8955 1177.9769 2002.9255 1153.3123 1980.7557 1140.9799 1951.3862 1140.9799H1880.3859V1427.5473H1951.3862C1980.7557 1427.5473 2002.9255 1415.2149 2017.8955 1390.55 2032.8654 1365.8853 2040.3504 1330.4564 2040.3504 1284.2636ZM2000.5731 1285.1189C2000.5731 1321.3319 1995.9396 1347.4937 1986.6725 1363.6041 1977.4054 1379.7147 1965.073 1387.7699 1949.6753 1387.7699H1920.1632V1284.6912 1181.6126H1949.6753C1965.073 1181.6126 1977.4054 1189.6677 1986.6725 1205.7783 1995.9396 1221.8888 2000.5731 1248.3357 2000.5731 1285.1189Z"/>
<path transform="matrix(1,0,0,-1,0,2942.8636)" d="M1023.6778 701.57516H983.47286V937.2447H959.0932V969.75088C973.9206 970.03598 985.4688 976.1665 993.7379 988.14248H1023.6778V701.57516Z"/>
<path transform="matrix(1,0,0,-1,0,2942.8636)" d="M1226.4136 803.7984C1226.4136 774.1437 1217.5028 748.83737 1199.6815 727.87948 1181.8601 706.9215 1160.6884 696.44259 1136.1661 696.44259 1108.5075 696.7277 1086.4089 702.43057 1069.8707 713.5511L1092.9672 747.76809C1105.5134 740.6395 1119.2002 737.21786 1134.0276 737.5029 1148.5698 738.92868 1160.9022 745.9146 1171.0248 758.4609 1181.1472 771.0071 1186.0659 786.2622 1185.7809 804.22616 1185.7809 817.62777 1182.074 829.31857 1174.6603 839.2985 1167.2466 849.2785 1156.9816 854.2685 1143.865 854.2685 1131.6039 853.413 1121.7665 847.2825 1114.3529 835.87686H1077.9973L1080.1359 988.14248H1214.8652V947.9375H1119.0578L1118.2023 887.63009C1127.0416 891.90719 1136.879 894.0457 1147.7145 894.0457 1171.6663 893.76058 1190.7708 884.9212 1205.0278 867.5275 1219.2849 850.1339 1226.4136 828.89089 1226.4136 803.7984Z"/>
<path transform="matrix(1,0,0,-1,0,2942.8636)" d="M1344.0344 696.44259C1314.6648 696.44259 1293.1367 708.77499 1279.4498 733.4397 1265.7631 758.10446 1258.9197 795.24417 1258.9197 844.85879 1258.9197 893.90316 1265.7631 930.829 1279.4498 955.63638 1293.1367 980.44369 1314.6648 992.8473 1344.0344 992.8473 1373.404 992.8473 1394.9323 980.44369 1408.619 955.63638 1422.3058 930.829 1429.1492 893.90316 1429.1492 844.85879 1429.1492 795.24417 1422.3058 758.10446 1408.619 733.4397 1394.9323 708.77499 1373.404 696.44259 1344.0344 696.44259ZM1344.0344 736.6475C1359.7173 736.36239 1370.9804 745.0592 1377.8237 762.738 1384.6671 780.41677 1388.0889 808.0755 1388.0889 845.71426 1388.0889 882.78268 1384.6671 909.8711 1377.8237 926.9796 1370.9804 944.0881 1359.7173 952.64236 1344.0344 952.64236 1328.3517 952.64236 1317.0885 944.0881 1310.2451 926.9796 1303.4017 909.8711 1299.9801 882.78268 1299.9801 845.71426 1299.9801 808.0755 1303.4017 780.41677 1310.2451 762.738 1317.0885 745.0592 1328.3517 736.36239 1344.0344 736.6475Z"/>
<path transform="matrix(1,0,0,-1,0,2942.8636)" d="M1542.9208 696.44259C1513.5512 696.44259 1492.023 708.77499 1478.3362 733.4397 1464.6494 758.10446 1457.806 795.24417 1457.806 844.85879 1457.806 893.90316 1464.6494 930.829 1478.3362 955.63638 1492.023 980.44369 1513.5512 992.8473 1542.9208 992.8473 1572.2903 992.8473 1593.8185 980.44369 1607.5054 955.63638 1621.1921 930.829 1628.0355 893.90316 1628.0355 844.85879 1628.0355 795.24417 1621.1921 758.10446 1607.5054 733.4397 1593.8185 708.77499 1572.2903 696.44259 1542.9208 696.44259ZM1542.9208 736.6475C1558.6035 736.36239 1569.8667 745.0592 1576.7101 762.738 1583.5535 780.41677 1586.9751 808.0755 1586.9751 845.71426 1586.9751 882.78268 1583.5535 909.8711 1576.7101 926.9796 1569.8667 944.0881 1558.6035 952.64236 1542.9208 952.64236 1527.2379 952.64236 1515.9749 944.0881 1509.1315 926.9796 1502.2881 909.8711 1498.8663 882.78268 1498.8663 845.71426 1498.8663 808.0755 1502.2881 780.41677 1509.1315 762.738 1515.9749 745.0592 1527.2379 736.36239 1542.9208 736.6475Z"/>
<path transform="matrix(1,0,0,-1,0,2942.8636)" d="M1812.8074 947.9375H1708.0178V875.6541H1765.3313V836.30459H1708.0178V701.57516H1666.9574V988.14248H1812.8074V947.9375Z"/>
<path transform="matrix(1,0,0,-1,0,2942.8636)" d="M1996.7236 949.6484H1944.5427V701.57516H1903.0547V949.6484H1850.8738V988.14248H1996.7236V949.6484Z"/>
<path transform="matrix(1,0,0,-1,0,2942.8636)" d="M45.080575 1512.9197C39.351034 1500.472 36.598054 1488.95 36.08172 1475.2567 35.557649 1461.5493 37.418096 1449.8403 42.165025 1436.9705 47.362829 1422.9503 54.3815 1412.0221 64.969379 1401.4636L1401.4367 64.99643C1410.1249 56.294626 1418.7991 50.23432 1429.9584 45.069387 1453.8992 34.020139 1481.408 33.09913 1505.9015 42.15659 1519.9218 47.354394 1530.85 54.373067 1541.4083 64.960948L2877.8758 1401.4282C2886.5775 1410.1165 2892.6378 1418.7907 2897.8028 1429.95 2908.852 1453.8908 2909.773 1481.3995 2900.7156 1505.8931 2895.5177 1519.9133 2888.499 1530.8416 2877.9112 1541.3999L1541.4439 2877.8673C1532.7556 2886.569 1524.0814 2892.6295 1512.9221 2897.7943 1488.9813 2908.8436 1461.4725 2909.7645 1436.979 2900.707 1422.9588 2895.5093 1412.0305 2888.4906 1401.4722 2877.9027L64.97568 1541.4063C56.28221 1532.7327 50.23073 1524.0679 45.080575 1512.9197ZM94.11346 1490.2971C96.4611 1495.3544 99.21195 1499.2849 103.15945 1503.2224L1439.709 2839.7723C1444.4664 2844.5428 1449.388 2847.7078 1455.7025 2850.057 1466.8253 2854.1683 1479.473 2853.761 1490.2855 2848.7679 1495.3606 2846.4068 1499.3056 2843.6448 1503.26 2839.6834L2839.7806 1503.163C2844.5513 1498.4057 2847.716 1493.4841 2850.0655 1487.1696 2854.1768 1476.0468 2853.7694 1463.399 2848.7762 1452.5866 2846.4154 1447.5114 2843.653 1443.5665 2839.692 1439.612L1503.1715 103.09148C1498.4141 98.3208 1493.4926 95.155979 1487.178 92.80672 1476.0552 88.6954 1463.4075 89.10268 1452.595 94.095859 1447.5199 96.45681 1443.575 99.21887 1439.6205 103.1802L103.099918 1439.7006C98.32923 1444.458 95.16441 1449.3795 92.815158 1455.694 90.6507 1461.5881 89.803188 1466.9476 90.04337 1473.2219 90.27742 1479.4291 91.52236 1484.6519 94.11346 1490.2971Z" fill-rule="evenodd"/>
</g>
</svg>
