<svg xmlns="http://www.w3.org/2000/svg" xmlns:xlink="http://www.w3.org/1999/xlink" xmlns:inkscape="http://www.inkscape.org/namespaces/inkscape" version="1.1" width="2942.8636" height="2942.8636" viewBox="0 0 2942.8636 2942.8636">
<g inkscape:groupmode="layer" inkscape:label="Layer 1">
<path transform="matrix(1,0,0,-1,0,2942.8636)" d="M1375.9724 2903.323 39.540586 1566.8912C-13.180195 1514.1704-13.180195 1428.6932 39.540586 1375.9724L1375.9724 39.540586C1428.6932-13.180195 1514.1704-13.180195 1566.8912 39.540586L2903.323 1375.9724C2956.0438 1428.6932 2956.0438 1514.1704 2903.323 1566.8912L1566.8912 2903.323C1514.1704 2956.0438 1428.6932 2956.0438 1375.9724 2903.323Z" fill="#ff7f00" fill-rule="evenodd"/>
<path transform="matrix(1,0,0,-1,0,2942.8636)" d="M45.07214 1512.9197C39.3426 1500.472 36.58962 1488.95 36.073286 1475.2567 35.549215 1461.5493 37.40966 1449.8403 42.15659 1436.9705 47.354394 1422.9503 54.373067 1412.0221 64.960948 1401.4636L1401.4282 64.99643C1410.1165 56.294626 1418.7907 50.23432 1429.95 45.069387 1453.8908 34.020139 1481.3995 33.09913 1505.8931 42.15659 1519.9133 47.354394 1530.8416 54.373067 1541.3999 64.960948L2877.8673 1401.4282C2886.569 1410.1165 2892.6295 1418.7907 2897.7943 1429.95 2908.8436 1453.8908 2909.7645 1481.3995 2900.707 1505.8931 2895.5093 1519.9133 2888.4906 1530.8416 2877.9027 1541.3999L1541.4354 2877.8673C1532.7472 2886.569 1524.073 2892.6295 1512.9137 2897.7943 1488.9729 2908.8436 1461.4641 2909.7645 1436.9705 2900.707 1422.9503 2895.5093 1412.0221 2888.4906 1401.4636 2877.9027L64.96725 1541.4063C56.273778 1532.7327 50.222295 1524.0679 45.07214 1512.9197ZM94.10503 1490.2971C96.45266 1495.3544 99.20352 1499.2849 103.15101 1503.2224L1439.7006 2839.7723C1444.458 2844.5428 1449.3795 2847.7078 1455.694 2850.057 1466.8169 2854.1683 1479.4646 2853.761 1490.2771 2848.7679 1495.3522 2846.4068 1499.2971 2843.6448 1503.2516 2839.6834L2839.7723 1503.163C2844.5428 1498.4057 2847.7078 1493.4841 2850.057 1487.1696 2854.1683 1476.0468 2853.761 1463.399 2848.7679 1452.5866 2846.4068 1447.5114 2843.6448 1443.5665 2839.6834 1439.612L1503.163 103.09148C1498.4057 98.3208 1493.4841 95.155979 1487.1696 92.80672 1476.0468 88.6954 1463.399 89.10268 1452.5866 94.095859 1447.5114 96.45681 1443.5665 99.21887 1439.612 103.1802L103.09148 1439.7006C98.3208 1444.458 95.155979 1449.3795 92.80672 1455.694 90.642269 1461.5881 89.794757 1466.9476 90.034938 1473.2219 90.26899 1479.4291 91.51393 1484.6519 94.10503 1490.2971Z" fill-rule="evenodd"/>
<path transform="matrix(1,0,0,-1,0,2942.8636)" stroke-width=".25" stroke-linecap="butt" stroke-miterlimit="4" stroke-linejoin="miter" fill="none" stroke="#000000" d="M1375.9724 2903.323 39.540586 1566.8912C-13.180195 1514.1704-13.180195 1428.6932 39.540586 1375.9724L1375.9724 39.540586C1428.6932-13.180195 1514.1704-13.180195 1566.8912 39.540586L2903.323 1375.9724C2956.0438 1428.6932 2956.0438 1514.1704 2903.323 1566.8912L1566.8912 2903.323C1514.1704 2956.0438 1428.6932 2956.0438 1375.9724 2903.323Z"/>
<path transform="matrix(1,0,0,-1,0,2942.8636)" d="M1448.3963 2084.6739C1448.0473 2052.5635 1438.7981 2028.1318 1420.6488 2011.3787 1402.4995 1994.6255 1379.6384 1986.2489 1352.0656 1986.2489H1251.5466V2337.0184H1352.0656C1379.6384 2337.0184 1401.627 2328.38 1418.0311 2311.1033 1434.4353 2293.8265 1442.4628 2271.0528 1442.1138 2242.7818 1442.4628 2207.1812 1429.898 2181.3536 1404.4192 2165.2984 1433.3882 2151.3375 1448.0473 2124.4625 1448.3963 2084.6739ZM1392.9014 2242.7818C1392.5524 2256.3936 1388.6259 2267.475 1381.1218 2276.0264 1373.6178 2284.5775 1364.6304 2288.853 1354.1597 2288.853H1301.2825V2193.0457H1354.1597C1364.9794 2193.0457 1374.2286 2197.845 1381.9071 2207.443 1389.5857 2217.0413 1393.2504 2228.8209 1392.9014 2242.7818ZM1399.7074 2084.1502C1399.7074 2099.1583 1395.17 2112.0723 1386.0955 2122.8919 1377.0208 2133.7117 1365.3285 2139.2962 1351.0184 2139.645H1300.759V2030.226H1351.542C1364.8049 2030.9241 1376.1482 2036.3339 1385.5719 2046.4556 1394.9955 2056.5775 1399.7074 2069.142 1399.7074 2084.1502Z"/>
<path transform="matrix(1,0,0,-1,0,2942.8636)" d="M1677.1815 1986.2489H1498.6557V2337.0184H1663.5696V2287.806H1548.9152V2199.3282H1621.6868V2151.1629H1548.9152V2035.4613H1677.1815V1986.2489Z"/>
<path transform="matrix(1,0,0,-1,0,2942.8636)" d="M666.23306 1670.0331C666.23306 1683.296 662.04476 1693.7667 653.66818 1701.4452 645.29159 1709.1238 634.2973 1712.963 620.68539 1712.963H568.8553V1626.5796H620.68539C633.25027 1626.5796 643.9827 1630.7678 652.8829 1639.1444 661.78298 1647.521 666.23306 1657.8171 666.23306 1670.0331ZM617.0206 1576.3201H568.8553V1411.4061H518.5958V1762.1754H623.30307C650.876 1762.1754 673.1263 1753.6243 690.05398 1736.5221 706.9816 1719.4199 715.44546 1696.7334 715.44546 1668.4624 715.09646 1643.3327 706.8071 1621.6932 690.57748 1603.544 674.34786 1585.3947 649.8289 1576.3201 617.0206 1576.3201Z"/>
<path transform="matrix(1,0,0,-1,0,2942.8636)" d="M964.1252 1411.4061H912.2951L865.7004 1576.3201H817.53506V1411.4061H767.2755V1762.1754H871.9828C899.5557 1762.1754 921.80599 1753.6243 938.73367 1736.5221 955.6613 1719.4199 964.1252 1696.7334 964.1252 1668.4624 964.1252 1649.9641 959.5006 1632.6002 950.25149 1616.3706 941.0023 1600.141 928.6992 1589.2339 913.34219 1583.6495L964.1252 1411.4061ZM914.9128 1670.0331C914.9128 1683.296 910.7245 1693.7667 902.3479 1701.4452 893.9713 1709.1238 882.97708 1712.963 869.3651 1712.963H817.53506V1626.5796H869.3651C881.93 1626.5796 892.6625 1630.7678 901.56259 1639.1444 910.4627 1647.521 914.9128 1657.8171 914.9128 1670.0331Z"/>
<path transform="matrix(1,0,0,-1,0,2942.8636)" d="M1198.1459 1411.4061H1019.62V1762.1754H1184.5339V1712.963H1069.8795V1624.4854H1142.651V1576.3201H1069.8795V1460.6185H1198.1459V1411.4061Z"/>
<path transform="matrix(1,0,0,-1,0,2942.8636)" d="M1401.8015 1670.0331C1401.8015 1683.296 1397.6132 1693.7667 1389.2366 1701.4452 1380.86 1709.1238 1369.8657 1712.963 1356.2538 1712.963H1304.4237V1626.5796H1356.2538C1368.8187 1626.5796 1379.5512 1630.7678 1388.4513 1639.1444 1397.3515 1647.521 1401.8015 1657.8171 1401.8015 1670.0331ZM1352.5891 1576.3201H1304.4237V1411.4061H1254.1643V1762.1754H1358.8715C1386.4445 1762.1754 1408.6947 1753.6243 1425.6224 1736.5221 1442.55 1719.4199 1451.0139 1696.7334 1451.0139 1668.4624 1450.6649 1643.3327 1442.3756 1621.6932 1426.1459 1603.544 1409.9163 1585.3947 1385.3973 1576.3201 1352.5891 1576.3201Z"/>
<path transform="matrix(1,0,0,-1,0,2942.8636)" d="M1710.6879 1411.4061H1659.9049L1635.2987 1507.2133H1560.433L1536.8739 1411.4061H1486.6144L1574.0449 1762.1754H1623.2573L1710.6879 1411.4061ZM1623.2573 1556.4257 1597.604 1657.4682 1572.9978 1556.4257H1623.2573Z"/>
<path transform="matrix(1,0,0,-1,0,2942.8636)" d="M1943.138 1411.4061H1891.3079L1844.7131 1576.3201H1796.5479V1411.4061H1746.2883V1762.1754H1850.9956C1878.5685 1762.1754 1900.8189 1753.6243 1917.7465 1736.5221 1934.6742 1719.4199 1943.138 1696.7334 1943.138 1668.4624 1943.138 1649.9641 1938.5134 1632.6002 1929.2643 1616.3706 1920.0151 1600.141 1907.712 1589.2339 1892.355 1583.6495L1943.138 1411.4061ZM1893.9255 1670.0331C1893.9255 1683.296 1889.7373 1693.7667 1881.3607 1701.4452 1872.9841 1709.1238 1861.9899 1712.963 1848.3779 1712.963H1796.5479V1626.5796H1848.3779C1860.9428 1626.5796 1871.6753 1630.7678 1880.5755 1639.1444 1889.4755 1647.521 1893.9255 1657.8171 1893.9255 1670.0331Z"/>
<path transform="matrix(1,0,0,-1,0,2942.8636)" d="M2177.1588 1411.4061H1998.6328V1762.1754H2163.5469V1712.963H2048.8924V1624.4854H2121.6639V1576.3201H2048.8924V1460.6185H2177.1588V1411.4061Z"/>
<path transform="matrix(1,0,0,-1,0,2942.8636)" d="M2424.2679 1586.7908C2424.2679 1530.2489 2415.106 1486.8826 2396.7823 1456.692 2378.4586 1426.5015 2351.3218 1411.4061 2315.3724 1411.4061H2228.4654V1762.1754H2315.3724C2351.3218 1762.1754 2378.4586 1747.0801 2396.7823 1716.8895 2415.106 1686.699 2424.2679 1643.3327 2424.2679 1586.7908ZM2375.5789 1587.8379C2375.5789 1632.164 2369.9073 1664.1869 2358.564 1683.9067 2347.2208 1703.6266 2332.1256 1713.4866 2313.278 1713.4866H2277.154V1587.3143 1461.1421H2313.278C2332.1256 1461.1421 2347.2208 1471.002 2358.564 1490.7219 2369.9073 1510.4418 2375.5789 1542.8137 2375.5789 1587.8379Z"/>
<path transform="matrix(1,0,0,-1,0,2942.8636)" d="M906.2744 1140.2144H842.403V836.5633H791.62V1140.2144H727.74856V1187.3327H906.2744V1140.2144Z"/>
<path transform="matrix(1,0,0,-1,0,2942.8636)" d="M1044.488 830.2809C1008.5385 830.2809 982.1872 845.37619 965.434 875.5668 948.68087 905.7573 940.30429 951.2178 940.30429 1011.94796 940.30429 1071.9801 948.68087 1117.1787 965.434 1147.5438 982.1872 1177.9089 1008.5385 1193.0916 1044.488 1193.0916 1080.4375 1193.0916 1106.7888 1177.9089 1123.542 1147.5438 1140.2952 1117.1787 1148.6718 1071.9801 1148.6718 1011.94796 1148.6718 951.2178 1140.2952 905.7573 1123.542 875.5668 1106.7888 845.37619 1080.4375 830.2809 1044.488 830.2809ZM1044.488 879.4933C1063.6843 879.1442 1077.4708 889.7895 1085.8473 911.429 1094.2239 933.0685 1098.4122 966.9238 1098.4122 1012.99508 1098.4122 1058.3682 1094.2239 1091.5255 1085.8473 1112.4669 1077.4708 1133.4083 1063.6843 1143.8792 1044.488 1143.8792 1025.2916 1143.8792 1011.5052 1133.4083 1003.1286 1112.4669 994.7521 1091.5255 990.5638 1058.3682 990.5638 1012.99508 990.5638 966.9238 994.7521 933.0685 1003.1286 911.429 1011.5052 889.7895 1025.2916 879.1442 1044.488 879.4933Z"/>
<path transform="matrix(1,0,0,-1,0,2942.8636)" d="M1500.488 934.9881C1500.488 907.4152 1491.937 883.0708 1474.8348 861.95486 1457.7327 840.83889 1434.1735 830.2809 1404.1574 830.2809 1376.5845 830.2809 1353.2871 841.01339 1334.2653 862.47836 1315.2435 883.94338 1305.7326 909.6839 1305.7326 939.69998H1353.898C1353.898 921.20169 1358.5225 906.54269 1367.7716 895.7229 1377.0208 884.90316 1388.8003 879.4933 1403.1104 879.4933 1416.3733 879.4933 1427.891 884.8159 1437.6637 895.4611 1447.4364 906.1064 1452.1482 918.584 1451.7992 932.894 1451.4502 944.4118 1447.1747 956.54037 1438.9725 969.2797 1430.7705 982.0191 1415.6752 995.3693 1393.6867 1009.33029 1368.5569 1025.3854 1350.2332 1041.3533 1338.7153 1057.2339 1327.1975 1073.1144 1321.4387 1088.0353 1321.4387 1101.9962 1321.0896 1127.126 1329.1172 1148.5037 1345.5214 1166.1294 1361.9254 1183.7551 1382.867 1192.7424 1408.3457 1193.0916 1435.2206 1193.0916 1457.2964 1184.2787 1474.573 1166.653 1491.8497 1149.0272 1500.488 1127.6494 1500.488 1102.5198H1449.1815C1449.5305 1116.1317 1445.255 1126.7769 1436.3549 1134.4555 1427.4547 1142.1339 1418.1184 1145.6243 1408.3457 1144.9262 1396.8279 1144.2282 1387.9277 1139.9525 1381.6454 1132.0995 1375.3629 1124.2465 1372.3963 1114.7356 1372.7453 1103.5668 1373.0942 1096.2373 1376.2355 1089.0823 1382.1688 1082.1018 1388.1023 1075.1213 1401.0162 1064.6506 1420.9105 1050.6897 1448.8325 1031.8423 1468.9887 1013.34408 1481.379 995.1948 1493.7694 977.04556 1500.139 956.9766 1500.488 934.9881Z"/>
<path transform="matrix(1,0,0,-1,0,2942.8636)" d="M1717.7556 1140.2144H1653.8842V836.5633H1603.1012V1140.2144H1539.2297V1187.3327H1717.7556V1140.2144Z"/>
<path transform="matrix(1,0,0,-1,0,2942.8636)" d="M1855.9692 830.2809C1820.0197 830.2809 1793.6683 845.37619 1776.9152 875.5668 1760.1621 905.7573 1751.7855 951.2178 1751.7855 1011.94796 1751.7855 1071.9801 1760.1621 1117.1787 1776.9152 1147.5438 1793.6683 1177.9089 1820.0197 1193.0916 1855.9692 1193.0916 1891.9187 1193.0916 1918.27 1177.9089 1935.0232 1147.5438 1951.7764 1117.1787 1960.153 1071.9801 1960.153 1011.94796 1960.153 951.2178 1951.7764 905.7573 1935.0232 875.5668 1918.27 845.37619 1891.9187 830.2809 1855.9692 830.2809ZM1855.9692 879.4933C1875.1655 879.1442 1888.952 889.7895 1897.3286 911.429 1905.7052 933.0685 1909.8934 966.9238 1909.8934 1012.99508 1909.8934 1058.3682 1905.7052 1091.5255 1897.3286 1112.4669 1888.952 1133.4083 1875.1655 1143.8792 1855.9692 1143.8792 1836.7728 1143.8792 1822.9865 1133.4083 1814.6099 1112.4669 1806.2333 1091.5255 1802.0449 1058.3682 1802.0449 1012.99508 1802.0449 966.9238 1806.2333 933.0685 1814.6099 911.429 1822.9865 889.7895 1836.7728 879.1442 1855.9692 879.4933Z"/>
<path transform="matrix(1,0,0,-1,0,2942.8636)" d="M2151.767 1095.1902C2151.767 1108.4531 2147.5789 1118.9238 2139.2025 1126.6024 2130.8258 1134.2809 2119.8316 1138.1203 2106.2196 1138.1203H2054.3895V1051.7367H2106.2196C2118.7845 1051.7367 2129.5169 1055.925 2138.417 1064.3016 2147.3172 1072.6781 2151.767 1082.9744 2151.767 1095.1902ZM2102.5548 1001.47726H2054.3895V836.5633H2004.13V1187.3327H2108.8372C2136.4102 1187.3327 2158.6605 1178.7815 2175.5882 1161.6793 2192.5159 1144.5772 2200.9796 1121.8906 2200.9796 1093.6196 2200.6307 1068.4899 2192.3414 1046.8504 2176.1116 1028.701 2159.882 1010.5519 2135.363 1001.47726 2102.5548 1001.47726Z"/>
</g>
</svg>
