<svg xmlns="http://www.w3.org/2000/svg" xmlns:xlink="http://www.w3.org/1999/xlink" xmlns:inkscape="http://www.inkscape.org/namespaces/inkscape" version="1.1" width="2942.8636" height="2942.8636" viewBox="0 0 2942.8636 2942.8636">
<g inkscape:groupmode="layer" inkscape:label="Layer 1">
<path transform="matrix(1,0,0,-1,0,2942.8636)" d="M1375.9724 2903.323 39.540586 1566.8912C-13.180195 1514.1704-13.180195 1428.6932 39.540586 1375.9724L1375.9724 39.540586C1428.6932-13.180195 1514.1704-13.180195 1566.8912 39.540586L2903.323 1375.9724C2956.0438 1428.6932 2956.0438 1514.1704 2903.323 1566.8912L1566.8912 2903.323C1514.1704 2956.0438 1428.6932 2956.0438 1375.9724 2903.323Z" fill="#ff7f00" fill-rule="evenodd"/>
<path transform="matrix(1,0,0,-1,0,2942.8636)" d="M935.9354 1788.9215C935.9354 1727.1336 925.92349 1679.7435 905.89956 1646.7518 885.8757 1613.76 856.2212 1597.2642 816.9362 1597.2642H721.9657V1980.5789H816.9362C856.2212 1980.5789 885.8757 1964.083 905.89956 1931.0913 925.92349 1898.0995 935.9354 1850.7096 935.9354 1788.9215ZM882.72909 1790.0658C882.72909 1838.5045 876.5312 1873.4987 864.13546 1895.0482 851.7397 1916.5978 835.2438 1927.3726 814.64779 1927.3726H775.17208V1789.4937 1651.6148H814.64779C835.2438 1651.6148 851.7397 1662.3895 864.13546 1683.9391 876.5312 1705.4887 882.72909 1740.8641 882.72909 1790.0658Z"/>
<path transform="matrix(1,0,0,-1,0,2942.8636)" d="M1186.5203 1597.2642H991.43026V1980.5789H1171.6454V1926.8004H1046.3529V1830.1135H1125.8765V1777.4794H1046.3529V1651.0426H1186.5203V1597.2642Z"/>
<path transform="matrix(1,0,0,-1,0,2942.8636)" d="M1432.5282 1929.0889H1362.7306V1597.2642H1307.2359V1929.0889H1237.4382V1980.5789H1432.5282V1929.0889Z"/>
<path transform="matrix(1,0,0,-1,0,2942.8636)" d="M1583.5657 1590.3988C1544.2807 1590.3988 1515.4844 1606.8948 1497.1769 1639.8865 1478.8693 1672.8783 1469.7155 1722.5567 1469.7155 1788.9215 1469.7155 1854.5237 1478.8693 1903.916 1497.1769 1937.0984 1515.4844 1970.2809 1544.2807 1986.8722 1583.5657 1986.8722 1622.8507 1986.8722 1651.647 1970.2809 1669.9545 1937.0984 1688.2621 1903.916 1697.4159 1854.5237 1697.4159 1788.9215 1697.4159 1722.5567 1688.2621 1672.8783 1669.9545 1639.8865 1651.647 1606.8948 1622.8507 1590.3988 1583.5657 1590.3988ZM1583.5657 1644.1774C1604.5431 1643.7959 1619.6087 1655.4288 1628.7625 1679.0762 1637.9163 1702.7234 1642.4932 1739.72 1642.4932 1790.0658 1642.4932 1839.6488 1637.9163 1875.8825 1628.7625 1898.767 1619.6087 1921.6514 1604.5431 1933.0936 1583.5657 1933.0936 1562.5883 1933.0936 1547.5227 1921.6514 1538.3689 1898.767 1529.2151 1875.8825 1524.6382 1839.6488 1524.6382 1790.0658 1524.6382 1739.72 1529.2151 1702.7234 1538.3689 1679.0762 1547.5227 1655.4288 1562.5883 1643.7959 1583.5657 1644.1774Z"/>
<path transform="matrix(1,0,0,-1,0,2942.8636)" d="M1954.8661 1711.6865C1954.8661 1683.8438 1949.9077 1661.3407 1939.9912 1644.1774 1930.8374 1628.5396 1917.7742 1615.6671 1900.8015 1605.5598 1883.8289 1595.4525 1866.3795 1590.3988 1848.4534 1590.3988 1829.7643 1590.3988 1811.7428 1595.3572 1794.3888 1605.2737 1777.0347 1615.1903 1763.7808 1628.1582 1754.6271 1644.1774 1744.7105 1661.722 1739.7521 1684.2251 1739.7521 1711.6865V1980.5789H1794.6748V1704.8212C1794.6748 1686.5136 1799.6332 1671.8294 1809.5497 1660.7686 1819.4663 1649.7078 1832.4342 1644.1774 1848.4534 1644.1774 1863.3283 1644.1774 1875.5332 1649.8031 1885.0685 1661.0546 1894.6036 1672.3062 1899.3712 1686.895 1899.3712 1704.8212V1980.5789H1954.8661V1711.6865Z"/>
<path transform="matrix(1,0,0,-1,0,2942.8636)" d="M2220.898 1597.2642H2164.2589L2113.341 1777.4794H2060.7069V1597.2642H2005.7839V1980.5789H2120.2064C2150.3375 1980.5789 2174.6524 1971.2344 2193.1507 1952.5454 2211.6488 1933.8565 2220.898 1909.065 2220.898 1878.1709 2220.898 1857.9563 2215.8443 1838.9813 2205.737 1821.2459 2195.6297 1803.5104 2182.185 1791.5914 2165.403 1785.4889L2220.898 1597.2642ZM2167.1195 1879.8873C2167.1195 1894.3807 2162.5426 1905.823 2153.3887 1914.214 2144.2349 1922.605 2132.2208 1926.8004 2117.3458 1926.8004H2060.7069V1832.402H2117.3458C2131.0765 1832.402 2142.8048 1836.9789 2152.5306 1846.1327 2162.2567 1855.2865 2167.1195 1866.538 2167.1195 1879.8873Z"/>
<path transform="matrix(1,0,0,-1,0,2942.8636)" d="M1070.0956 955.9915H1014.60079L987.7115 1060.6879H905.89956L880.15457 955.9915H825.2318L920.7745 1339.3063H974.5529L1070.0956 955.9915ZM974.5529 1114.4664 946.5195 1224.8839 919.63027 1114.4664H974.5529Z"/>
<path transform="matrix(1,0,0,-1,0,2942.8636)" d="M1320.6804 955.9915H1265.1856V1129.3413H1160.4891V955.9915H1105.5665V1339.3063H1160.4891V1183.1198H1265.1856V1339.3063H1320.6804V955.9915Z"/>
<path transform="matrix(1,0,0,-1,0,2942.8636)" d="M1574.1259 955.9915H1379.0358V1339.3063H1559.251V1285.5277H1433.9585V1188.8408H1513.482V1136.2067H1433.9585V1009.76998H1574.1259V955.9915Z"/>
<path transform="matrix(1,0,0,-1,0,2942.8636)" d="M1862.4701 955.9915H1806.9752L1780.0859 1060.6879H1698.274L1672.529 955.9915H1617.6063L1713.1489 1339.3063H1766.9274L1862.4701 955.9915ZM1766.9274 1114.4664 1738.8939 1224.8839 1712.0048 1114.4664H1766.9274Z"/>
<path transform="matrix(1,0,0,-1,0,2942.8636)" d="M2110.1944 1147.6488C2110.1944 1085.8609 2100.1824 1038.471 2080.1585 1005.4791 2060.1346 972.48739 2030.4801 955.9915 1991.1952 955.9915H1896.2246V1339.3063H1991.1952C2030.4801 1339.3063 2060.1346 1322.8103 2080.1585 1289.8186 2100.1824 1256.8268 2110.1944 1209.4369 2110.1944 1147.6488ZM2056.988 1148.7931C2056.988 1197.2318 2050.79 1232.226 2038.3944 1253.7755 2025.9985 1275.3251 2009.5027 1286.0999 1988.9067 1286.0999H1949.431V1148.221 1010.3421H1988.9067C2009.5027 1010.3421 2025.9985 1021.1168 2038.3944 1042.6664 2050.79 1064.216 2056.988 1099.5914 2056.988 1148.7931Z"/>
<path transform="matrix(1,0,0,-1,0,2942.8636)" d="M45.080575 1512.9197C39.351034 1500.472 36.598054 1488.95 36.08172 1475.2567 35.557649 1461.5493 37.418096 1449.8403 42.165025 1436.9705 47.362829 1422.9503 54.3815 1412.0221 64.969379 1401.4636L1401.4367 64.99643C1410.1249 56.294626 1418.7991 50.23432 1429.9584 45.069387 1453.8992 34.020139 1481.408 33.09913 1505.9015 42.15659 1519.9218 47.354394 1530.85 54.373067 1541.4083 64.960948L2877.8758 1401.4282C2886.5775 1410.1165 2892.6378 1418.7907 2897.8028 1429.95 2908.852 1453.8908 2909.773 1481.3995 2900.7156 1505.8931 2895.5177 1519.9133 2888.499 1530.8416 2877.9112 1541.3999L1541.4439 2877.8673C1532.7556 2886.569 1524.0814 2892.6295 1512.9221 2897.7943 1488.9813 2908.8436 1461.4725 2909.7645 1436.979 2900.707 1422.9588 2895.5093 1412.0305 2888.4906 1401.4722 2877.9027L64.97568 1541.4063C56.28221 1532.7327 50.23073 1524.0679 45.080575 1512.9197ZM94.11346 1490.2971C96.4611 1495.3544 99.21195 1499.2849 103.15945 1503.2224L1439.709 2839.7723C1444.4664 2844.5428 1449.388 2847.7078 1455.7025 2850.057 1466.8253 2854.1683 1479.473 2853.761 1490.2855 2848.7679 1495.3606 2846.4068 1499.3056 2843.6448 1503.26 2839.6834L2839.7806 1503.163C2844.5513 1498.4057 2847.716 1493.4841 2850.0655 1487.1696 2854.1768 1476.0468 2853.7694 1463.399 2848.7762 1452.5866 2846.4154 1447.5114 2843.653 1443.5665 2839.692 1439.612L1503.1715 103.09148C1498.4141 98.3208 1493.4926 95.155979 1487.178 92.80672 1476.0552 88.6954 1463.4075 89.10268 1452.595 94.095859 1447.5199 96.45681 1443.575 99.21887 1439.6205 103.1802L103.099918 1439.7006C98.32923 1444.458 95.16441 1449.3795 92.815158 1455.694 90.6507 1461.5881 89.803188 1466.9476 90.04337 1473.2219 90.27742 1479.4291 91.52236 1484.6519 94.11346 1490.2971Z" fill-rule="evenodd"/>
</g>
</svg>
