<svg xmlns="http://www.w3.org/2000/svg" xmlns:xlink="http://www.w3.org/1999/xlink" xmlns:inkscape="http://www.inkscape.org/namespaces/inkscape" version="1.1" width="3531.4364" height="3531.4364" viewBox="0 0 3531.4364 3531.4364">
<g inkscape:groupmode="layer" inkscape:label="Layer 1">
<path transform="matrix(1,0,0,-1,0,3531.4364)" d="M1651.1669 3483.9876 47.4487 1880.2694C-15.816234 1817.0045-15.816234 1714.4318 47.4487 1651.1669L1651.1669 47.4487C1714.4318-15.816234 1817.0045-15.816234 1880.2694 47.4487L3483.9876 1651.1669C3547.2528 1714.4318 3547.2528 1817.0045 3483.9876 1880.2694L1880.2694 3483.9876C1817.0045 3547.2528 1714.4318 3547.2528 1651.1669 3483.9876Z" fill="#ff7f00" fill-rule="evenodd"/>
<path transform="matrix(1,0,0,-1,0,3531.4364)" d="M55.72115 1814.7499C48.95022 1800.0393 45.69686 1786.4227 45.086668 1770.2402 44.46713 1754.0393 46.665864 1740.2002 52.276128 1724.989 58.41853 1708.4215 66.71252 1695.5078 79.22415 1683.031L1683.0231 79.232028C1693.273 68.95867 1703.5123 61.807397 1716.6865 55.72115 1744.9966 42.66652 1777.4923 41.568948 1806.4473 52.276128 1823.0148 58.41853 1835.9286 66.71252 1848.4054 79.22415L3452.2044 1683.0231C3462.4779 1693.273 3469.629 1703.5123 3475.715 1716.6865 3488.7698 1744.9966 3489.8675 1777.4923 3479.1602 1806.4473 3473.0179 1823.0148 3464.7239 1835.9286 3452.2122 1848.4054L1848.4132 3452.2044C1838.1633 3462.4779 1827.9241 3469.629 1814.7499 3475.715 1786.4398 3488.7698 1753.944 3489.8675 1724.989 3479.1602 1708.4215 3473.0179 1695.5078 3464.7239 1683.031 3452.2122L79.232028 1848.4132C68.95867 1838.1633 61.807397 1827.9241 55.72115 1814.7499ZM112.926158 1788.3568C115.74289 1794.4248 119.04344 1799.1409 123.779758 1803.8655L1727.6408 3407.7266C1733.3496 3413.4515 1739.2555 3417.2493 1746.833 3420.0684 1753.9059 3422.6658 1760.3372 3423.6827 1767.8663 3423.3946 1775.315 3423.1136 1781.5825 3421.6197 1788.3568 3418.5103 1794.4248 3415.6934 1799.1409 3412.3929 1803.8655 3407.6566L3407.7266 1803.7957C3413.4515 1798.0867 3417.2493 1792.1809 3420.0684 1784.6034 3422.6658 1777.5304 3423.6827 1771.0993 3423.3946 1763.57 3423.1136 1756.1215 3421.6197 1749.8539 3418.5103 1743.0796 3415.6934 1737.0116 3412.3929 1732.2954 3407.6566 1727.5708L1803.7957 123.70978C1798.0867 117.98492 1792.1809 114.18711 1784.6034 111.36801 1777.5304 108.770709 1771.0993 107.75371 1763.57 108.04192 1756.1215 108.32279 1749.8539 109.81676 1743.0796 112.926158 1737.0116 115.74289 1732.2954 119.04344 1727.5708 123.779758L123.70978 1727.6408C117.98492 1733.3496 114.18711 1739.2555 111.36801 1746.833 108.770709 1753.9059 107.75371 1760.3372 108.04192 1767.8663 108.32279 1775.315 109.81676 1781.5825 112.926158 1788.3568Z" fill-rule="evenodd"/>
<path transform="matrix(1,0,0,-1,0,3531.4364)" stroke-width=".25" stroke-linecap="butt" stroke-miterlimit="4" stroke-linejoin="miter" fill="none" stroke="#000000" d="M1651.1669 3483.9876 47.4487 1880.2694C-15.816234 1817.0045-15.816234 1714.4318 47.4487 1651.1669L1651.1669 47.4487C1714.4318-15.816234 1817.0045-15.816234 1880.2694 47.4487L3483.9876 1651.1669C3547.2528 1714.4318 3547.2528 1817.0045 3483.9876 1880.2694L1880.2694 3483.9876C1817.0045 3547.2528 1714.4318 3547.2528 1651.1669 3483.9876Z"/>
<path transform="matrix(1,0,0,-1,0,3531.4364)" d="M1966.8034 2737.749C2083.8148 2737.749 2179.2532 2642.3109 2179.2532 2525.295 2179.2532 2408.2833 2083.8148 2312.845 1966.8034 2312.845 1849.7832 2312.845 1754.3491 2408.2833 1754.3491 2525.295 1754.3491 2642.3109 1849.7832 2737.749 1966.8034 2737.749ZM725.9302 1713.6531H1160.9171V2255.2296H725.9302V1713.6531ZM1199.8079 2255.2296H2206.6199L2579.6724 2180.3299 2640.17 2356.0548 2739.5543 2335.8887 2660.3319 2013.2511 2209.372 2046.3779 2295.0374 712.7182 2197.0899 713.82406 2009.2925 1480.3169 1882.5414 714.377H1788.917L1778.8339 2043.4959 1199.8079 2155.8453V2255.2296Z" fill-rule="evenodd"/>
</g>
</svg>
