<svg xmlns="http://www.w3.org/2000/svg" xmlns:xlink="http://www.w3.org/1999/xlink" xmlns:inkscape="http://www.inkscape.org/namespaces/inkscape" version="1.1" width="2942.856" height="2942.856" viewBox="0 0 2942.856 2942.856">
<g inkscape:groupmode="layer" inkscape:label="Layer 1">
<path transform="matrix(1,0,0,-1,0,2942.856)" d="M1375.9689 2903.3155 39.54048 1566.8872C-13.180161 1514.1665-13.180161 1428.6895 39.54048 1375.9689L1375.9689 39.54048C1428.6895-13.180161 1514.1665-13.180161 1566.8872 39.54048L2903.3155 1375.9689C2956.0362 1428.6895 2956.0362 1514.1665 2903.3155 1566.8872L1566.8872 2903.3155C1514.1665 2956.0362 1428.6895 2956.0362 1375.9689 2903.3155Z" fill="#ff7f00" fill-rule="evenodd"/>
<path transform="matrix(1,0,0,-1,0,2942.856)" d="M46.43417 1512.2876C40.79174 1500.0289 38.08062 1488.6818 37.572126 1475.1964 37.055845 1461.6957 38.88812 1450.1631 43.563325 1437.4872 48.68198 1423.6809 55.59362 1412.9196 66.01995 1402.5222L1402.5156 66.02652C1411.0571 57.465414 1419.5899 51.506029 1430.5684 46.43417 1454.16 35.555345 1481.2398 34.640699 1505.3688 43.563325 1519.175 48.68198 1529.9365 55.59362 1540.3339 66.01995L2876.8297 1402.5156C2885.3907 1411.0571 2891.3499 1419.5899 2896.4219 1430.5684 2907.3006 1454.16 2908.2154 1481.2398 2899.2928 1505.3688 2894.174 1519.175 2887.2625 1529.9365 2876.836 1540.3339L1540.3403 2876.8297C1531.7988 2885.3907 1523.2661 2891.3499 1512.2876 2896.4219 1488.696 2907.3006 1461.6162 2908.2154 1437.4872 2899.2928 1423.6809 2894.174 1412.9196 2887.2625 1402.5222 2876.836L66.02652 1540.3403C57.465414 1531.7988 51.506029 1523.2661 46.43417 1512.2876ZM94.10488 1490.2935C96.45216 1495.3501 99.20261 1499.2803 103.14953 1503.2174L1439.6969 2839.765C1444.4544 2844.5355 1449.3759 2847.7005 1455.6904 2850.0496 1461.5845 2852.2139 1466.9439 2853.0616 1473.2182 2852.8214 1479.4253 2852.5872 1484.6482 2851.3424 1490.2935 2848.7513 1495.3501 2846.4039 1499.2803 2843.6534 1503.2174 2839.7066L2839.765 1503.1592C2844.5355 1498.4017 2847.7005 1493.4802 2850.0496 1487.1657 2852.2139 1481.2715 2853.0616 1475.9121 2852.8214 1469.6378 2852.5872 1463.4307 2851.3424 1458.2078 2848.7513 1452.5625 2846.4039 1447.5059 2843.6534 1443.5758 2839.7066 1439.6387L1503.1592 103.09121C1498.4017 98.32051 1493.4802 95.15568 1487.1657 92.806438 1481.2715 90.64201 1475.9121 89.794528 1469.6378 90.034709 1463.4307 90.26876 1458.2078 91.513729 1452.5625 94.10488 1447.5059 96.45216 1443.5758 99.20261 1439.6387 103.14953L103.09121 1439.6969C98.32051 1444.4544 95.15568 1449.3759 92.806438 1455.6904 90.64201 1461.5845 89.794528 1466.9439 90.034709 1473.2182 90.26876 1479.4253 91.513729 1484.6482 94.10488 1490.2935Z" fill-rule="evenodd"/>
<path transform="matrix(1,0,0,-1,0,2942.856)" stroke-width=".25" stroke-linecap="butt" stroke-miterlimit="4" stroke-linejoin="miter" fill="none" stroke="#000000" d="M1375.9689 2903.3155 39.54048 1566.8872C-13.180161 1514.1665-13.180161 1428.6895 39.54048 1375.9689L1375.9689 39.54048C1428.6895-13.180161 1514.1665-13.180161 1566.8872 39.54048L2903.3155 1375.9689C2956.0362 1428.6895 2956.0362 1514.1665 2903.3155 1566.8872L1566.8872 2903.3155C1514.1665 2956.0362 1428.6895 2956.0362 1375.9689 2903.3155Z"/>
<path transform="matrix(1,0,0,-1,0,2942.856)" d="M974.9904 2257.394V753.17269H1233.349V2257.394H974.9904Z" fill-rule="evenodd"/>
<path transform="matrix(1,0,0,-1,0,2942.856)" d="M1847.6685 753.17269H2106.027V1610.5789L1853.4098 1865.0335V2257.394H1595.0512V1754.0541L1847.6685 1500.5181V753.17269Z" fill-rule="evenodd"/>
<path transform="matrix(1,0,0,-1,0,2942.856)" d="M1715.6185 1315.8203V1511.0247H1595.0512V1315.8203H1715.6185Z" fill-rule="evenodd"/>
<path transform="matrix(1,0,0,-1,0,2942.856)" d="M1715.6185 1034.4965V1229.7008H1595.0512V1034.4965H1715.6185Z" fill-rule="evenodd"/>
<path transform="matrix(1,0,0,-1,0,2942.856)" d="M1715.6185 954.1183H1595.0512V753.17269H1715.6185V954.1183Z" fill-rule="evenodd"/>
</g>
</svg>
