<svg xmlns="http://www.w3.org/2000/svg" xmlns:xlink="http://www.w3.org/1999/xlink" xmlns:inkscape="http://www.inkscape.org/namespaces/inkscape" version="1.1" width="2942.8636" height="2942.8636" viewBox="0 0 2942.8636 2942.8636">
<g inkscape:groupmode="layer" inkscape:label="Layer 1">
<path transform="matrix(1,0,0,-1,0,2942.8636)" d="M1375.9724 2903.323 39.540586 1566.8912C-13.180195 1514.1704-13.180195 1428.6932 39.540586 1375.9724L1375.9724 39.540586C1428.6932-13.180195 1514.1704-13.180195 1566.8912 39.540586L2903.323 1375.9724C2956.0438 1428.6932 2956.0438 1514.1704 2903.323 1566.8912L1566.8912 2903.323C1514.1704 2956.0438 1428.6932 2956.0438 1375.9724 2903.323Z" fill="#ff7f00" fill-rule="evenodd"/>
<path transform="matrix(1,0,0,-1,0,2942.8636)" d="M815.4217 1707.9414C785.00576 1707.9414 762.7106 1720.7131 748.53616 1746.2566 734.3617 1771.8002 727.2745 1810.263 727.2745 1861.6453 727.2745 1912.437 734.3617 1950.6784 748.53616 1976.3695 762.7106 2002.0607 785.00576 2014.9063 815.4217 2014.9063 845.83767 2014.9063 868.1329 2002.0607 882.30728 1976.3695 896.4817 1950.6784 903.5689 1912.437 903.5689 1861.6453 903.5689 1810.263 896.4817 1771.8002 882.30728 1746.2566 868.1329 1720.7131 845.83767 1707.9414 815.4217 1707.9414ZM815.4217 1749.5787C831.6632 1749.2835 843.32766 1758.2902 850.4148 1776.5988 857.502 1794.9074 861.04568 1823.5515 861.04568 1862.5313 861.04568 1900.9203 857.502 1928.9738 850.4148 1946.6919 843.32766 1964.4099 831.6632 1973.2689 815.4217 1973.2689 799.1802 1973.2689 787.5158 1964.4099 780.4286 1946.6919 773.3414 1928.9738 769.7978 1900.9203 769.7978 1862.5313 769.7978 1823.5515 773.3414 1794.9074 780.4286 1776.5988 787.5158 1758.2902 799.1802 1749.2835 815.4217 1749.5787Z"/>
<path transform="matrix(1,0,0,-1,0,2942.8636)" d="M1104.6686 1713.2568H1063.4741L980.64236 1901.9539V1713.2568H938.1191V2010.0338H980.64236L1061.7024 1823.9945V2010.0338H1104.6686V1713.2568Z"/>
<path transform="matrix(1,0,0,-1,0,2942.8636)" d="M1300.8958 1713.2568H1149.8495V2010.0338H1289.379V1968.3965H1192.3728V1893.5377H1253.943V1852.7863H1192.3728V1754.8942H1300.8958V1713.2568Z"/>
<path transform="matrix(1,0,0,-1,0,2942.8636)" d="M1602.1023 1713.2568H1451.056V2010.0338H1493.5794V1754.8942H1602.1023V1713.2568Z"/>
<path transform="matrix(1,0,0,-1,0,2942.8636)" d="M1825.3495 1713.2568H1782.3833L1761.5646 1794.3168H1698.2227L1678.2898 1713.2568H1635.7666L1709.7394 2010.0338H1751.3767L1825.3495 1713.2568ZM1751.3767 1835.9541 1729.6721 1921.4436 1708.8534 1835.9541H1751.3767Z"/>
<path transform="matrix(1,0,0,-1,0,2942.8636)" d="M2019.3619 1713.2568H1978.1675L1895.3357 1901.9539V1713.2568H1852.8124V2010.0338H1895.3357L1976.3958 1823.9945V2010.0338H2019.3619V1713.2568Z"/>
<path transform="matrix(1,0,0,-1,0,2942.8636)" d="M2215.589 1713.2568H2064.543V2010.0338H2204.0726V1968.3965H2107.0662V1893.5377H2168.6363V1852.7863H2107.0662V1754.8942H2215.589V1713.2568Z"/>
<path transform="matrix(1,0,0,-1,0,2942.8636)" d="M887.6227 1374.8424C887.6227 1432.426 896.26028 1472.4392 913.5353 1494.8821 930.81039 1517.3248 951.7029 1528.5463 976.2128 1528.5463 997.4745 1528.5463 1015.34017 1521.533 1029.8099 1507.5061 1044.2796 1493.4794 1052.1051 1475.5399 1053.2863 1453.6876H1010.32009C1010.0248 1463.7278 1006.6288 1471.7748 1000.1322 1477.8285 993.63558 1483.8821 985.2195 1486.9089 974.884 1486.9089 963.07199 1486.9089 952.73648 1479.7479 943.87747 1465.4258 935.01846 1451.1038 930.5889 1420.9093 930.5889 1374.8424 930.5889 1326.7084 935.0922 1295.8495 944.09896 1282.2656 953.1056 1268.6819 963.36727 1262.1852 974.884 1262.7759 985.2195 1262.7759 993.63558 1265.8026 1000.1322 1271.8563 1006.6288 1277.91 1010.0248 1285.9569 1010.32009 1295.9972H1053.2863C1052.1051 1274.1449 1044.2796 1256.2055 1029.8099 1242.1786 1015.34017 1228.1519 997.4745 1221.1384 976.2128 1221.1384 951.7029 1221.1384 930.81039 1232.3599 913.5353 1254.8027 896.26028 1277.2456 887.6227 1317.2588 887.6227 1374.8424Z"/>
<path transform="matrix(1,0,0,-1,0,2942.8636)" d="M1247.7417 1226.8969H1096.6954V1523.6738H1139.2188V1268.5342H1247.7417V1226.8969Z"/>
<path transform="matrix(1,0,0,-1,0,2942.8636)" d="M1375.7544 1221.5814C1345.3385 1221.5814 1323.0433 1234.3532 1308.8689 1259.8966 1294.6945 1285.4402 1287.6073 1323.9031 1287.6073 1375.2854 1287.6073 1426.077 1294.6945 1464.3185 1308.8689 1490.0097 1323.0433 1515.7007 1345.3385 1528.5463 1375.7544 1528.5463 1406.1704 1528.5463 1428.4656 1515.7007 1442.64 1490.0097 1456.8145 1464.3185 1463.9016 1426.077 1463.9016 1375.2854 1463.9016 1323.9031 1456.8145 1285.4402 1442.64 1259.8966 1428.4656 1234.3532 1406.1704 1221.5814 1375.7544 1221.5814ZM1375.7544 1263.2188C1391.996 1262.9235 1403.6604 1271.9302 1410.7476 1290.2388 1417.8347 1308.5474 1421.3784 1337.1915 1421.3784 1376.1713 1421.3784 1414.5603 1417.8347 1442.6139 1410.7476 1460.3319 1403.6604 1478.0499 1391.996 1486.9089 1375.7544 1486.9089 1359.513 1486.9089 1347.8485 1478.0499 1340.7614 1460.3319 1333.6741 1442.6139 1330.1305 1414.5603 1330.1305 1376.1713 1330.1305 1337.1915 1333.6741 1308.5474 1340.7614 1290.2388 1347.8485 1271.9302 1359.513 1262.9235 1375.7544 1263.2188Z"/>
<path transform="matrix(1,0,0,-1,0,2942.8636)" d="M1661.9006 1310.1716C1661.9006 1286.8428 1654.6658 1266.2456 1640.196 1248.3799 1625.7263 1230.5143 1605.7936 1221.5814 1580.3977 1221.5814 1557.069 1221.5814 1537.3577 1230.6619 1521.2638 1248.8229 1505.1699 1266.9839 1497.1229 1288.7623 1497.1229 1314.1581H1537.8744C1537.8744 1298.5072 1541.7871 1286.1046 1549.6127 1276.9503 1557.4381 1267.7959 1567.4046 1263.2188 1579.5119 1263.2188 1590.7333 1263.2188 1600.4782 1267.7222 1608.7466 1276.7288 1617.015 1285.7355 1621.0015 1296.2925 1620.7062 1308.3998 1620.4109 1318.1447 1616.7935 1328.4064 1609.8539 1339.1848 1602.9144 1349.9633 1590.1426 1361.2586 1571.5387 1373.0706 1550.2771 1386.6544 1534.7738 1400.1644 1525.0288 1413.6006 1515.2839 1427.0368 1510.4115 1439.6609 1510.4115 1451.4729 1510.1162 1472.7345 1516.9081 1490.8217 1530.7872 1505.7344 1544.6664 1520.647 1562.3844 1528.251 1583.9413 1528.5463 1606.6795 1528.5463 1625.3572 1521.09 1639.9746 1506.1773 1654.5919 1491.2647 1661.9006 1473.1775 1661.9006 1451.9158H1618.4915C1618.7868 1463.4325 1615.1693 1472.4392 1607.6392 1478.9358 1600.109 1485.4324 1592.2097 1488.3854 1583.9413 1487.7948 1574.1964 1487.2042 1566.6663 1483.5868 1561.3508 1476.9425 1556.0354 1470.2984 1553.5254 1462.2514 1553.8207 1452.8018 1554.116 1446.6005 1556.7737 1440.5468 1561.7938 1434.6408 1566.8139 1428.7348 1577.74 1419.8757 1594.5722 1408.0637 1618.1962 1392.1174 1635.2498 1376.4666 1645.7329 1361.111 1656.2161 1345.7553 1661.6054 1328.7755 1661.9006 1310.1716Z"/>
<path transform="matrix(1,0,0,-1,0,2942.8636)" d="M1856.799 1226.8969H1705.7528V1523.6738H1845.2822V1482.0365H1748.276V1407.1777H1809.8462V1366.4263H1748.276V1268.5342H1856.799V1226.8969Z"/>
<path transform="matrix(1,0,0,-1,0,2942.8636)" d="M2065.8719 1375.2854C2065.8719 1327.4467 2058.12 1290.7556 2042.6168 1265.212 2027.1135 1239.6686 2004.1539 1226.8969 1973.738 1226.8969H1900.2081V1523.6738H1973.738C2004.1539 1523.6738 2027.1135 1510.9021 2042.6168 1485.3587 2058.12 1459.8151 2065.8719 1423.124 2065.8719 1375.2854ZM2024.6774 1376.1713C2024.6774 1413.6744 2019.8787 1440.7682 2010.2815 1457.4528 2000.6842 1474.1372 1987.9125 1482.4794 1971.9662 1482.4794H1941.4026V1375.7283 1268.9772H1971.9662C1987.9125 1268.9772 2000.6842 1277.3193 2010.2815 1294.0039 2019.8787 1310.6884 2024.6774 1338.0775 2024.6774 1376.1713Z"/>
<path transform="matrix(1,0,0,-1,0,2942.8636)" d="M1164.2455 740.53689H1121.2792L1100.4606 821.59689H1037.1185L1017.1858 740.53689H974.66256L1048.6353 1037.3139H1090.2727L1164.2455 740.53689ZM1090.2727 863.23428 1068.5681 948.72378 1047.7494 863.23428H1090.2727Z"/>
<path transform="matrix(1,0,0,-1,0,2942.8636)" d="M1358.2579 740.53689H1315.2916V874.751H1234.2317V740.53689H1191.7084V1037.3139H1234.2317V916.3883H1315.2916V1037.3139H1358.2579V740.53689Z"/>
<path transform="matrix(1,0,0,-1,0,2942.8636)" d="M1554.4851 740.53689H1403.4389V1037.3139H1542.9684V995.6765H1445.9622V920.8178H1507.5324V880.06637H1445.9622V782.17428H1554.4851V740.53689Z"/>
<path transform="matrix(1,0,0,-1,0,2942.8636)" d="M1777.7323 740.53689H1734.766L1713.9474 821.59689H1650.6054L1630.6726 740.53689H1588.1493L1662.1221 1037.3139H1703.7595L1777.7323 740.53689ZM1703.7595 863.23428 1682.0549 948.72378 1661.2362 863.23428H1703.7595Z"/>
<path transform="matrix(1,0,0,-1,0,2942.8636)" d="M1969.53 888.92538C1969.53 841.0867 1961.7783 804.3956 1946.275 778.8521 1930.7717 753.3086 1907.8121 740.53689 1877.3963 740.53689H1803.8663V1037.3139H1877.3963C1907.8121 1037.3139 1930.7717 1024.5421 1946.275 998.99868 1961.7783 973.45516 1969.53 936.76406 1969.53 888.92538ZM1928.3356 889.8113C1928.3356 927.31448 1923.5369 954.40829 1913.9397 971.0928 1904.3424 987.7772 1891.5707 996.11947 1875.6244 996.11947H1845.0608V889.36837 782.6172H1875.6244C1891.5707 782.6172 1904.3424 790.9594 1913.9397 807.6439 1923.5369 824.32839 1928.3356 851.7175 1928.3356 889.8113Z"/>
<path transform="matrix(1,0,0,-1,0,2942.8636)" d="M45.080575 1512.9197C39.351034 1500.472 36.598054 1488.95 36.08172 1475.2567 35.557649 1461.5493 37.418096 1449.8403 42.165025 1436.9705 47.362829 1422.9503 54.3815 1412.0221 64.969379 1401.4636L1401.4367 64.99643C1410.1249 56.294626 1418.7991 50.23432 1429.9584 45.069387 1453.8992 34.020139 1481.408 33.09913 1505.9015 42.15659 1519.9218 47.354394 1530.85 54.373067 1541.4083 64.960948L2877.8758 1401.4282C2886.5775 1410.1165 2892.6378 1418.7907 2897.8028 1429.95 2908.852 1453.8908 2909.773 1481.3995 2900.7156 1505.8931 2895.5177 1519.9133 2888.499 1530.8416 2877.9112 1541.3999L1541.4439 2877.8673C1532.7556 2886.569 1524.0814 2892.6295 1512.9221 2897.7943 1488.9813 2908.8436 1461.4725 2909.7645 1436.979 2900.707 1422.9588 2895.5093 1412.0305 2888.4906 1401.4722 2877.9027L64.97568 1541.4063C56.28221 1532.7327 50.23073 1524.0679 45.080575 1512.9197ZM94.11346 1490.2971C96.4611 1495.3544 99.21195 1499.2849 103.15945 1503.2224L1439.709 2839.7723C1444.4664 2844.5428 1449.388 2847.7078 1455.7025 2850.057 1466.8253 2854.1683 1479.473 2853.761 1490.2855 2848.7679 1495.3606 2846.4068 1499.3056 2843.6448 1503.26 2839.6834L2839.7806 1503.163C2844.5513 1498.4057 2847.716 1493.4841 2850.0655 1487.1696 2854.1768 1476.0468 2853.7694 1463.399 2848.7762 1452.5866 2846.4154 1447.5114 2843.653 1443.5665 2839.692 1439.612L1503.1715 103.09148C1498.4141 98.3208 1493.4926 95.155979 1487.178 92.80672 1476.0552 88.6954 1463.4075 89.10268 1452.595 94.095859 1447.5199 96.45681 1443.575 99.21887 1439.6205 103.1802L103.099918 1439.7006C98.32923 1444.458 95.16441 1449.3795 92.815158 1455.694 90.6507 1461.5881 89.803188 1466.9476 90.04337 1473.2219 90.27742 1479.4291 91.52236 1484.6519 94.11346 1490.2971Z" fill-rule="evenodd"/>
</g>
</svg>
