<svg xmlns="http://www.w3.org/2000/svg" xmlns:xlink="http://www.w3.org/1999/xlink" xmlns:inkscape="http://www.inkscape.org/namespaces/inkscape" version="1.1" width="2942.8636" height="2942.8636" viewBox="0 0 2942.8636 2942.8636">
<g inkscape:groupmode="layer" inkscape:label="Layer 1">
<path transform="matrix(1,0,0,-1,0,2942.8636)" d="M1375.9724 2903.323 39.540586 1566.8912C-13.180195 1514.1704-13.180195 1428.6932 39.540586 1375.9724L1375.9724 39.540586C1428.6932-13.180195 1514.1704-13.180195 1566.8912 39.540586L2903.323 1375.9724C2956.0438 1428.6932 2956.0438 1514.1704 2903.323 1566.8912L1566.8912 2903.323C1514.1704 2956.0438 1428.6932 2956.0438 1375.9724 2903.323Z" fill="#ff7f00" fill-rule="evenodd"/>
<path transform="matrix(1,0,0,-1,0,2942.8636)" d="M45.07214 1512.9197C39.3426 1500.472 36.58962 1488.95 36.073286 1475.2567 35.549215 1461.5493 37.40966 1449.8403 42.15659 1436.9705 47.354394 1422.9503 54.373067 1412.0221 64.960948 1401.4636L1401.4282 64.99643C1410.1165 56.294626 1418.7907 50.23432 1429.95 45.069387 1453.8908 34.020139 1481.3995 33.09913 1505.8931 42.15659 1519.9133 47.354394 1530.8416 54.373067 1541.3999 64.960948L2877.8673 1401.4282C2886.569 1410.1165 2892.6295 1418.7907 2897.7943 1429.95 2908.8436 1453.8908 2909.7645 1481.3995 2900.707 1505.8931 2895.5093 1519.9133 2888.4906 1530.8416 2877.9027 1541.3999L1541.4354 2877.8673C1532.7472 2886.569 1524.073 2892.6295 1512.9137 2897.7943 1488.9729 2908.8436 1461.4641 2909.7645 1436.9705 2900.707 1422.9503 2895.5093 1412.0221 2888.4906 1401.4636 2877.9027L64.96725 1541.4063C56.273778 1532.7327 50.222295 1524.0679 45.07214 1512.9197ZM94.10503 1490.2971C96.45266 1495.3544 99.20352 1499.2849 103.15101 1503.2224L1439.7006 2839.7723C1444.458 2844.5428 1449.3795 2847.7078 1455.694 2850.057 1466.8169 2854.1683 1479.4646 2853.761 1490.2771 2848.7679 1495.3522 2846.4068 1499.2971 2843.6448 1503.2516 2839.6834L2839.7723 1503.163C2844.5428 1498.4057 2847.7078 1493.4841 2850.057 1487.1696 2854.1683 1476.0468 2853.761 1463.399 2848.7679 1452.5866 2846.4068 1447.5114 2843.6448 1443.5665 2839.6834 1439.612L1503.163 103.09148C1498.4057 98.3208 1493.4841 95.155979 1487.1696 92.80672 1476.0468 88.6954 1463.399 89.10268 1452.5866 94.095859 1447.5114 96.45681 1443.5665 99.21887 1439.612 103.1802L103.09148 1439.7006C98.3208 1444.458 95.155979 1449.3795 92.80672 1455.694 90.642269 1461.5881 89.794757 1466.9476 90.034938 1473.2219 90.26899 1479.4291 91.51393 1484.6519 94.10503 1490.2971Z" fill-rule="evenodd"/>
<path transform="matrix(1,0,0,-1,0,2942.8636)" stroke-width=".25" stroke-linecap="butt" stroke-miterlimit="4" stroke-linejoin="miter" fill="none" stroke="#000000" d="M1375.9724 2903.323 39.540586 1566.8912C-13.180195 1514.1704-13.180195 1428.6932 39.540586 1375.9724L1375.9724 39.540586C1428.6932-13.180195 1514.1704-13.180195 1566.8912 39.540586L2903.323 1375.9724C2956.0438 1428.6932 2956.0438 1514.1704 2903.323 1566.8912L1566.8912 2903.323C1514.1704 2956.0438 1428.6932 2956.0438 1375.9724 2903.323Z"/>
<path transform="matrix(1,0,0,-1,0,2942.8636)" d="M1207.5696 1904.1808H1155.7394L1109.1448 2069.0948H1060.9794V1904.1808H1010.7199V2254.95H1115.4271C1143 2254.95 1165.2504 2246.399 1182.178 2229.2969 1199.1057 2212.1947 1207.5696 2189.508 1207.5696 2161.237 1207.5696 2142.7388 1202.945 2125.3748 1193.6958 2109.1453 1184.4467 2092.9156 1172.1436 2082.0086 1156.7865 2076.424L1207.5696 1904.1808ZM1158.3572 2162.8077C1158.3572 2176.0706 1154.1688 2186.5413 1145.7922 2194.22 1137.4157 2201.8985 1126.4214 2205.7376 1112.8095 2205.7376H1060.9794V2119.3543H1112.8095C1125.3744 2119.3543 1136.1068 2123.5426 1145.007 2131.919 1153.9071 2140.2957 1158.3572 2150.5919 1158.3572 2162.8077Z"/>
<path transform="matrix(1,0,0,-1,0,2942.8636)" d="M1354.6832 1897.8983C1318.7338 1897.8983 1292.3825 1912.9937 1275.6293 1943.1842 1258.8761 1973.3748 1250.4995 2018.8352 1250.4995 2079.5655 1250.4995 2139.5977 1258.8761 2184.7962 1275.6293 2215.1614 1292.3825 2245.5264 1318.7338 2260.709 1354.6832 2260.709 1390.6327 2260.709 1416.984 2245.5264 1433.7372 2215.1614 1450.4904 2184.7962 1458.867 2139.5977 1458.867 2079.5655 1458.867 2018.8352 1450.4904 1973.3748 1433.7372 1943.1842 1416.984 1912.9937 1390.6327 1897.8983 1354.6832 1897.8983ZM1354.6832 1947.1107C1373.8795 1946.7617 1387.666 1957.407 1396.0426 1979.0464 1404.4192 2000.6859 1408.6074 2034.5413 1408.6074 2080.6126 1408.6074 2125.9857 1404.4192 2159.1429 1396.0426 2180.0845 1387.666 2201.026 1373.8795 2211.4967 1354.6832 2211.4967 1335.4869 2211.4967 1321.7005 2201.026 1313.3239 2180.0845 1304.9473 2159.1429 1300.759 2125.9857 1300.759 2080.6126 1300.759 2034.5413 1304.9473 2000.6859 1313.3239 1979.0464 1321.7005 1957.407 1335.4869 1946.7617 1354.6832 1947.1107Z"/>
<path transform="matrix(1,0,0,-1,0,2942.8636)" d="M1710.6879 1904.1808H1659.9049L1635.2987 1999.9879H1560.433L1536.8739 1904.1808H1486.6144L1574.0449 2254.95H1623.2573L1710.6879 1904.1808ZM1623.2573 2049.2003 1597.604 2150.243 1572.9978 2049.2003H1623.2573Z"/>
<path transform="matrix(1,0,0,-1,0,2942.8636)" d="M1937.3792 2079.5655C1937.3792 2023.0234 1928.2172 1979.6572 1909.8934 1949.4667 1891.5697 1919.276 1864.433 1904.1808 1828.4835 1904.1808H1741.5765V2254.95H1828.4835C1864.433 2254.95 1891.5697 2239.8548 1909.8934 2209.664 1928.2172 2179.4737 1937.3792 2136.1075 1937.3792 2079.5655ZM1888.6902 2080.6126C1888.6902 2124.9385 1883.0186 2156.9615 1871.6753 2176.6815 1860.332 2196.4012 1845.2367 2206.2613 1826.3894 2206.2613H1790.2654V2080.0889 1953.9168H1826.3894C1845.2367 1953.9168 1860.332 1963.7766 1871.6753 1983.4965 1883.0186 2003.2163 1888.6902 2035.5884 1888.6902 2080.6126Z"/>
<path transform="matrix(1,0,0,-1,0,2942.8636)" d="M775.1286 1504.1991C775.1286 1572.2588 785.3375 1619.5515 805.75546 1646.0774 826.17337 1672.6032 850.8668 1685.8661 879.8358 1685.8661 904.9656 1685.8661 926.08157 1677.5768 943.1837 1660.9982 960.2859 1644.4196 969.53506 1623.2163 970.93118 1597.3886H920.14816C919.7991 1609.2554 915.78536 1618.7662 908.1068 1625.9213 900.4283 1633.0762 890.4811 1636.6537 878.2652 1636.6537 864.30429 1636.6537 852.08847 1628.1898 841.6177 1611.2622 831.147 1594.3346 825.9116 1558.6469 825.9116 1504.1991 825.9116 1447.3081 831.2342 1410.8351 841.87948 1394.78 852.5247 1378.7249 864.65328 1371.0463 878.2652 1371.7444 890.4811 1371.7444 900.4283 1375.3219 908.1068 1382.4769 915.78536 1389.6318 919.7991 1399.1428 920.14816 1411.0097H970.93118C969.53506 1385.1818 960.2859 1363.9786 943.1837 1347.3999 926.08157 1330.8213 904.9656 1322.532 879.8358 1322.532 850.8668 1322.532 826.17337 1335.7949 805.75546 1362.3207 785.3375 1388.8466 775.1286 1436.1393 775.1286 1504.1991Z"/>
<path transform="matrix(1,0,0,-1,0,2942.8636)" d="M1200.7636 1329.3379H1022.2377V1680.1072H1072.4972V1378.5503H1200.7636V1329.3379Z"/>
<path transform="matrix(1,0,0,-1,0,2942.8636)" d="M1352.0656 1323.0556C1316.1161 1323.0556 1289.7648 1338.1508 1273.0116 1368.3414 1256.2584 1398.532 1247.8818 1443.9924 1247.8818 1504.7225 1247.8818 1564.7548 1256.2584 1609.9534 1273.0116 1640.3185 1289.7648 1670.6836 1316.1161 1685.8661 1352.0656 1685.8661 1388.015 1685.8661 1414.3663 1670.6836 1431.1195 1640.3185 1447.8727 1609.9534 1456.2493 1564.7548 1456.2493 1504.7225 1456.2493 1443.9924 1447.8727 1398.532 1431.1195 1368.3414 1414.3663 1338.1508 1388.015 1323.0556 1352.0656 1323.0556ZM1352.0656 1372.268C1371.2619 1371.9188 1385.0484 1382.5641 1393.4249 1404.2036 1401.8015 1425.8432 1405.9898 1459.6985 1405.9898 1505.7697 1405.9898 1551.1428 1401.8015 1584.3 1393.4249 1605.2416 1385.0484 1626.183 1371.2619 1636.6537 1352.0656 1636.6537 1332.8693 1636.6537 1319.0828 1626.183 1310.7062 1605.2416 1302.3296 1584.3 1298.1414 1551.1428 1298.1414 1505.7697 1298.1414 1459.6985 1302.3296 1425.8432 1310.7062 1404.2036 1319.0828 1382.5641 1332.8693 1371.9188 1352.0656 1372.268Z"/>
<path transform="matrix(1,0,0,-1,0,2942.8636)" d="M1690.27 1427.7627C1690.27 1400.1898 1681.7189 1375.8455 1664.6167 1354.7295 1647.5145 1333.6135 1623.9553 1323.0556 1593.9393 1323.0556 1566.3663 1323.0556 1543.069 1333.788 1524.0473 1355.2529 1505.0254 1376.718 1495.5145 1402.4585 1495.5145 1432.4746H1543.6798C1543.6798 1413.9763 1548.3043 1399.3173 1557.5536 1388.4976 1566.8026 1377.6777 1578.5823 1372.268 1592.8922 1372.268 1606.1552 1372.268 1617.673 1377.5906 1627.4457 1388.2357 1637.2183 1398.881 1641.9302 1411.3587 1641.581 1425.6686 1641.232 1437.1864 1636.9566 1449.315 1628.7545 1462.0543 1620.5524 1474.7937 1605.4572 1488.1439 1583.4686 1502.1049 1558.3389 1518.16 1540.015 1534.1279 1528.4973 1550.0084 1516.9795 1565.889 1511.2206 1580.8098 1511.2206 1594.7709 1510.8716 1619.9005 1518.899 1641.2783 1535.3032 1658.904 1551.7074 1676.5298 1572.6488 1685.5171 1598.1276 1685.8661 1625.0025 1685.8661 1647.0783 1677.0532 1664.355 1659.4275 1681.6316 1641.8019 1690.27 1620.4241 1690.27 1595.2943H1638.9634C1639.3125 1608.9063 1635.0369 1619.5515 1626.1369 1627.2301 1617.2367 1634.9086 1607.9003 1638.3988 1598.1276 1637.7008 1586.6098 1637.0027 1577.7097 1632.7272 1571.4273 1624.8742 1565.1448 1617.0211 1562.1781 1607.5103 1562.5271 1596.3414 1562.8761 1589.012 1566.0173 1581.8569 1571.9508 1574.8765 1577.8842 1567.896 1590.7981 1557.4252 1610.6925 1543.4642 1638.6144 1524.617 1658.7705 1506.1187 1671.1609 1487.9694 1683.5513 1469.8202 1689.9209 1449.7512 1690.27 1427.7627Z"/>
<path transform="matrix(1,0,0,-1,0,2942.8636)" d="M1920.626 1329.3379H1742.1001V1680.1072H1907.014V1630.8948H1792.3595V1542.4172H1865.1311V1494.2518H1792.3595V1378.5503H1920.626V1329.3379Z"/>
<path transform="matrix(1,0,0,-1,0,2942.8636)" d="M2167.735 1504.7225C2167.735 1448.1807 2158.5733 1404.8145 2140.2496 1374.6238 2121.9256 1344.4332 2094.789 1329.3379 2058.8397 1329.3379H1971.9325V1680.1072H2058.8397C2094.789 1680.1072 2121.9256 1665.012 2140.2496 1634.8213 2158.5733 1604.6307 2167.735 1561.2645 2167.735 1504.7225ZM2119.0462 1505.7697C2119.0462 1550.0957 2113.3746 1582.1187 2102.0313 1601.8385 2090.688 1621.5585 2075.5928 1631.4183 2056.7454 1631.4183H2020.6213V1505.2461 1379.0739H2056.7454C2075.5928 1379.0739 2090.688 1388.9338 2102.0313 1408.6537 2113.3746 1428.3735 2119.0462 1460.7455 2119.0462 1505.7697Z"/>
<path transform="matrix(1,0,0,-1,0,2942.8636)" d="M1102.077 754.4951H1051.294L1026.6878 850.30227H951.8221L928.26296 754.4951H878.0035L965.434 1105.2644H1014.6464L1102.077 754.4951ZM1014.6464 899.51467 988.99319 1000.5572 964.38699 899.51467H1014.6464Z"/>
<path transform="matrix(1,0,0,-1,0,2942.8636)" d="M1331.3859 754.4951H1280.6028V913.1266H1184.7957V754.4951H1134.5363V1105.2644H1184.7957V962.339H1280.6028V1105.2644H1331.3859V754.4951Z"/>
<path transform="matrix(1,0,0,-1,0,2942.8636)" d="M1563.3124 754.4951H1384.7865V1105.2644H1549.7005V1056.052H1435.046V967.5744H1507.8176V919.40908H1435.046V803.7075H1563.3124V754.4951Z"/>
<path transform="matrix(1,0,0,-1,0,2942.8636)" d="M1827.1747 754.4951H1776.3917L1751.7855 850.30227H1676.9198L1653.3607 754.4951H1603.1012L1690.5317 1105.2644H1739.7442L1827.1747 754.4951ZM1739.7442 899.51467 1714.0908 1000.5572 1689.4846 899.51467H1739.7442Z"/>
<path transform="matrix(1,0,0,-1,0,2942.8636)" d="M2053.866 929.87979C2053.866 873.3378 2044.704 829.9716 2026.3803 799.781 2008.0565 769.5904 1980.9198 754.4951 1944.9703 754.4951H1858.0634V1105.2644H1944.9703C1980.9198 1105.2644 2008.0565 1090.1691 2026.3803 1059.9785 2044.704 1029.788 2053.866 986.4217 2053.866 929.87979ZM2005.177 930.9268C2005.177 975.2529 1999.5054 1007.2759 1988.1621 1026.9957 1976.8189 1046.7156 1961.7235 1056.5756 1942.8762 1056.5756H1906.7522V930.4033 804.2311H1942.8762C1961.7235 804.2311 1976.8189 814.091 1988.1621 833.81088 1999.5054 853.5307 2005.177 885.9027 2005.177 930.9268Z"/>
</g>
</svg>
