<svg xmlns="http://www.w3.org/2000/svg" xmlns:xlink="http://www.w3.org/1999/xlink" xmlns:inkscape="http://www.inkscape.org/namespaces/inkscape" version="1.1" width="2160" height="1728" viewBox="0 0 2160 1728">
<g inkscape:groupmode="layer" inkscape:label="Layer 1">
<path transform="matrix(1,0,0,-1,0,1728)" d="M2025 1728H135C60.44156 1728 0 1667.5585 0 1593V135C0 60.44156 60.44156 0 135 0H2025C2099.5584 0 2160 60.44156 2160 135V1593C2160 1667.5585 2099.5584 1728 2025 1728Z" fill="#ff7f00" fill-rule="evenodd"/>
<path transform="matrix(1,0,0,-1,0,1728)" stroke-width=".25" stroke-linecap="butt" stroke-miterlimit="4" stroke-linejoin="miter" fill="none" stroke="#000000" d="M2025 1728H135C60.44156 1728 0 1667.5585 0 1593V135C0 60.44156 60.44156 0 135 0H2025C2099.5584 0 2160 60.44156 2160 135V1593C2160 1667.5585 2099.5584 1728 2025 1728Z"/>
<path transform="matrix(1,0,0,-1,0,1728)" d="M97.633579 1694.369C83.6095 1689.1868 72.59597 1682.4216 61.633226 1672.2556 50.66063 1662.0902 43.067586 1651.6272 36.8055 1638.0435 29.995194 1623.2108 26.977238 1609.3589 26.999974 1593.0376L27 135C26.990397 121.58594 29.007576 110.22042 33.632707 97.62894 43.580785 70.62907 64.07497 48.7129 89.9566 36.8055 104.78916 29.995194 118.64109 26.977238 134.96239 26.999974L2025 27C2038.4141 26.990397 2049.7796 29.007576 2062.371 33.632707 2089.3709 43.580785 2111.287 64.07497 2123.1947 89.9566 2130.005 104.78916 2133.0228 118.64109 2133 134.96239V1593C2133.0096 1606.4141 2130.9925 1617.7796 2126.3673 1630.3711 2116.4193 1657.371 2095.925 1679.2871 2070.0435 1691.1945 2055.211 1698.0048 2041.3589 1701.0227 2025.0376 1701H134.96907C121.567058 1701.0154 110.21065 1698.9984 97.633579 1694.369ZM113.196208 1652.1458C120.53319 1654.8356 127.15456 1656.0077 134.96907 1656L2025.1004 1656.0001C2034.5757 1656.0133 2042.6174 1654.2638 2051.231 1650.3154 2066.3184 1643.372 2078.361 1630.5128 2084.14 1614.8196 2086.831 1607.4657 2088.005 1600.8309 2088 1593V134.8997C2088.0133 125.42427 2086.264 117.38255 2082.3155 108.76895 2075.3719 93.681697 2062.513 81.6388 2046.8196 75.86016 2039.4657 73.16897 2032.8309 71.99521 2025 72L134.8997 71.99993C125.42427 71.98673 117.38255 73.736179 108.76895 77.68456 93.681697 84.628108 81.6388 97.48716 75.86016 113.18037 73.16897 120.53434 71.99521 127.169078 72 135L71.99993 1593.1004C71.98673 1602.5757 73.736179 1610.6174 77.68456 1619.2311 81.35843 1627.182 85.806659 1633.3064 92.231449 1639.2594 98.61663 1645.1806 105.02977 1649.1224 113.196208 1652.1458Z" fill-rule="evenodd"/>
<path transform="matrix(1,0,0,-1,0,1728)" d="M544.5036 1217.1589C544.5036 1155.371 534.49166 1107.9811 514.4678 1074.9893 494.44386 1041.9974 464.7894 1025.5016 425.5044 1025.5016H330.53388V1408.8163H425.5044C464.7894 1408.8163 494.44386 1392.3204 514.4678 1359.3287 534.49166 1326.3369 544.5036 1278.947 544.5036 1217.1589ZM491.29725 1218.3032C491.29725 1266.742 485.09934 1301.7361 472.7036 1323.2857 460.30787 1344.8352 443.81199 1355.61 423.21595 1355.61H383.74028V1217.7311 1079.8522H423.21595C443.81199 1079.8522 460.30787 1090.627 472.7036 1112.1765 485.09934 1133.7261 491.29725 1169.1016 491.29725 1218.3032Z"/>
<path transform="matrix(1,0,0,-1,0,1728)" d="M795.08847 1025.5016H599.9984V1408.8163H780.21359V1355.0379H654.92117V1258.351H734.44467V1205.7168H654.92117V1079.2802H795.08847V1025.5016Z"/>
<path transform="matrix(1,0,0,-1,0,1728)" d="M1041.0964 1357.3263H971.2988V1025.5016H915.804V1357.3263H846.0064V1408.8163H1041.0964V1357.3263Z"/>
<path transform="matrix(1,0,0,-1,0,1728)" d="M1192.1339 1018.6363C1152.8489 1018.6363 1124.0526 1035.1322 1105.745 1068.1239 1087.4375 1101.1157 1078.2837 1150.7941 1078.2837 1217.1589 1078.2837 1282.7611 1087.4375 1332.1535 1105.745 1365.3358 1124.0526 1398.5183 1152.8489 1415.1096 1192.1339 1415.1096 1231.4188 1415.1096 1260.2151 1398.5183 1278.5227 1365.3358 1296.8303 1332.1535 1305.984 1282.7611 1305.984 1217.1589 1305.984 1150.7941 1296.8303 1101.1157 1278.5227 1068.1239 1260.2151 1035.1322 1231.4188 1018.6363 1192.1339 1018.6363ZM1192.1339 1072.4148C1213.1113 1072.0333 1228.1769 1083.6663 1237.3307 1107.3136 1246.4845 1130.9608 1251.0614 1167.9574 1251.0614 1218.3032 1251.0614 1267.8862 1246.4845 1304.1199 1237.3307 1327.0044 1228.1769 1349.8888 1213.1113 1361.331 1192.1339 1361.331 1171.1564 1361.331 1156.0908 1349.8888 1146.937 1327.0044 1137.7832 1304.1199 1133.2064 1267.8862 1133.2064 1218.3032 1133.2064 1167.9574 1137.7832 1130.9608 1146.937 1107.3136 1156.0908 1083.6663 1171.1564 1072.0333 1192.1339 1072.4148Z"/>
<path transform="matrix(1,0,0,-1,0,1728)" d="M1563.4342 1139.924C1563.4342 1112.0812 1558.476 1089.5781 1548.5593 1072.4148 1539.4055 1056.7771 1526.3423 1043.9046 1509.3698 1033.7973 1492.3971 1023.68997 1474.9476 1018.6363 1457.0215 1018.6363 1438.3325 1018.6363 1420.311 1023.5946 1402.9569 1033.5112 1385.6029 1043.4277 1372.349 1056.3956 1363.1952 1072.4148 1353.2786 1089.9595 1348.3203 1112.4625 1348.3203 1139.924V1408.8163H1403.243V1133.0586C1403.243 1114.751 1408.2013 1100.0668 1418.1179 1089.006 1428.0346 1077.9452 1441.0023 1072.4148 1457.0215 1072.4148 1471.8964 1072.4148 1484.1015 1078.0405 1493.6366 1089.292 1503.1719 1100.5436 1507.9395 1115.1325 1507.9395 1133.0586V1408.8163H1563.4342V1139.924Z"/>
<path transform="matrix(1,0,0,-1,0,1728)" d="M1829.4661 1025.5016H1772.827L1721.9092 1205.7168H1669.2749V1025.5016H1614.3522V1408.8163H1728.7745C1758.9057 1408.8163 1783.2205 1399.4718 1801.7188 1380.7828 1820.2169 1362.0939 1829.4661 1337.3024 1829.4661 1306.4083 1829.4661 1286.1937 1824.4125 1267.2188 1814.3052 1249.4833 1804.1979 1231.7478 1790.7532 1219.8289 1773.9713 1213.7263L1829.4661 1025.5016ZM1775.6876 1308.1248C1775.6876 1322.6182 1771.1107 1334.0604 1761.9569 1342.4514 1752.8031 1350.8424 1740.7888 1355.0379 1725.914 1355.0379H1669.2749V1260.6394H1725.914C1739.6447 1260.6394 1751.3729 1265.2163 1761.0988 1274.3701 1770.8247 1283.5239 1775.6876 1294.7754 1775.6876 1308.1248Z"/>
<path transform="matrix(1,0,0,-1,0,1728)" d="M1006.35977 641.4538V154.05403H1153.6403V641.4538L1241.6129 612.9438C1244.3402 612.3419 1247.1034 611.9348 1249.9617 611.9348 1266.2299 611.9348 1279.4179 625.12277 1279.4179 641.3909 1279.4179 647.5771 1277.5109 653.3178 1274.2527 658.0574 1274.2378 658.03677 1080 930.2571 1080 930.2571 1080 930.2571 885.7622 658.03677 885.74728 658.0574 882.48916 653.3178 880.58218 647.5771 880.58218 641.3909 880.58218 625.12277 893.77017 611.9348 910.03829 611.9348 912.8966 611.9348 915.6598 612.3419 918.3871 612.9438L1006.35977 641.4538Z" fill-rule="evenodd"/>
</g>
</svg>
