<svg xmlns="http://www.w3.org/2000/svg" xmlns:xlink="http://www.w3.org/1999/xlink" xmlns:inkscape="http://www.inkscape.org/namespaces/inkscape" version="1.1" width="2160" height="1728" viewBox="0 0 2160 1728">
<g inkscape:groupmode="layer" inkscape:label="Layer 1">
<path transform="matrix(1,0,0,-1,0,1728)" d="M2025 1728H135C60.44156 1728 0 1667.5585 0 1593V135C0 60.44156 60.44156 0 135 0H2025C2099.5584 0 2160 60.44156 2160 135V1593C2160 1667.5585 2099.5584 1728 2025 1728Z" fill="#ff7f00" fill-rule="evenodd"/>
<path transform="matrix(1,0,0,-1,0,1728)" stroke-width=".25" stroke-linecap="butt" stroke-miterlimit="4" stroke-linejoin="miter" fill="none" stroke="#000000" d="M2025 1728H135C60.44156 1728 0 1667.5585 0 1593V135C0 60.44156 60.44156 0 135 0H2025C2099.5584 0 2160 60.44156 2160 135V1593C2160 1667.5585 2099.5584 1728 2025 1728Z"/>
<path transform="matrix(1,0,0,-1,0,1728)" d="M100.747768 1685.9249C87.89455 1681.1746 77.80056 1674.9739 67.75287 1665.6564 57.689725 1656.3344 50.725755 1646.7394 44.98198 1634.2824 38.7436 1620.6932 35.979135 1608.0028 35.999967 1593.0502L36 135C35.9904 122.70339 37.83866 112.28457 42.07732 100.741588 51.193067 75.99984 69.99341 55.896997 93.71761 44.98198 107.30679 38.7436 119.99716 35.979135 134.94985 35.999967L2025 36C2037.2966 35.9904 2047.7155 37.83866 2059.2584 42.07732 2084.0003 51.193067 2104.103 69.99341 2115.018 93.71761 2121.2564 107.30679 2124.0208 119.99716 2124 134.94985V1593C2124.0096 1605.2966 2122.1614 1615.7155 2117.9227 1627.2584 2108.807 1652.0001 2090.0067 1672.103 2066.2825 1683.0181 2052.693 1689.2564 2040.0028 1692.0209 2025.0502 1692H134.95876C122.6784 1692.014 112.27247 1690.1663 100.747768 1685.9249ZM119.42266 1635.2568C124.6587 1637.1729 129.38318 1638.0071 134.95876 1638L2025.1254 1638.0001C2031.8628 1638.0095 2037.5807 1636.7673 2043.7069 1633.9635 2054.479 1629.0055 2063.1343 1619.7743 2067.2493 1608.5979 2069.1685 1603.3399 2070.005 1598.5974 2070 1593V134.87462C2070.0096 128.13726 2068.7674 122.41936 2065.9635 116.29314 2061.0057 105.52094 2051.7742 96.86564 2040.5979 92.750759 2035.3399 90.83157 2030.5974 89.99522 2025 90L134.87462 89.999919C128.13726 89.990528 122.41936 91.23268 116.29314 94.03656 105.52094 98.99445 96.86564 108.22574 92.750759 119.402057 90.83157 124.660129 89.99522 129.40264 90 135L89.999919 1593.1254C89.990528 1599.8628 91.23268 1605.5807 94.03656 1611.7069 96.673839 1617.4052 99.86424 1621.7941 104.47074 1626.0609 109.02528 1630.2844 113.59872 1633.0973 119.42266 1635.2568Z" fill-rule="evenodd"/>
<path transform="matrix(1,0,0,-1,0,1728)" d="M917.33486 995.86636H723.0482V1377.6026H902.5212V1324.0455H777.74478V1227.7568H856.94076V1175.3394H777.74478V1049.4234H917.33486V995.86636Z"/>
<path transform="matrix(1,0,0,-1,0,1728)" d="M1189.1082 995.86636H1136.1209L1029.5767 1238.5822V995.86636H974.8801V1377.6026H1029.5767L1133.8419 1138.3052V1377.6026H1189.1082V995.86636Z"/>
<path transform="matrix(1,0,0,-1,0,1728)" d="M1451.1957 1186.7344C1451.1957 1125.2008 1441.225 1078.0061 1421.2836 1045.1502 1401.342 1012.2943 1371.8097 995.86636 1332.6865 995.86636H1238.1072V1377.6026H1332.6865C1371.8097 1377.6026 1401.342 1361.1746 1421.2836 1328.3186 1441.225 1295.4628 1451.1957 1248.2681 1451.1957 1186.7344ZM1398.2084 1187.8739C1398.2084 1236.1133 1392.036 1270.9633 1379.6914 1292.4241 1367.3467 1313.8849 1350.9187 1324.6152 1330.4075 1324.6152H1291.0944V1187.3042 1049.9932H1330.4075C1350.9187 1049.9932 1367.3467 1060.7235 1379.6914 1082.1843 1392.036 1103.645 1398.2084 1138.875 1398.2084 1187.8739Z"/>
<path transform="matrix(1,0,0,-1,0,1728)" d="M546.70889 548.10269C546.70889 486.56904 536.73818 439.3743 516.7967 406.5184 496.8553 373.6625 467.32295 357.23457 428.19975 357.23457H333.62034V738.9707H428.19975C467.32295 738.9707 496.8553 722.5428 516.7967 689.6869 536.73818 656.831 546.70889 609.6362 546.70889 548.10269ZM493.72163 549.2421C493.72163 597.48147 487.54927 632.3315 475.20457 653.7923 462.85987 675.25308 446.43193 685.98348 425.92073 685.98348H386.6076V548.67239 411.36134H425.92073C446.43193 411.36134 462.85987 422.0917 475.20457 443.55253 487.54927 465.01329 493.72163 500.24317 493.72163 549.2421Z"/>
<path transform="matrix(1,0,0,-1,0,1728)" d="M796.2618 357.23457H601.97518V738.9707H781.4481V685.4137H656.6717V589.125H735.8677V536.7075H656.6717V410.79158H796.2618V357.23457Z"/>
<path transform="matrix(1,0,0,-1,0,1728)" d="M1041.2566 687.69277H971.74649V357.23457H916.48019V687.69277H846.97006V738.9707H1041.2566V687.69277Z"/>
<path transform="matrix(1,0,0,-1,0,1728)" d="M1191.6721 350.3975C1152.5488 350.3975 1123.8712 366.82545 1105.639 399.68135 1087.4069 432.53724 1078.2908 482.011 1078.2908 548.10269 1078.2908 613.4346 1087.4069 662.6235 1105.639 695.6693 1123.8712 728.7151 1152.5488 745.23806 1191.6721 745.23806 1230.7953 745.23806 1259.473 728.7151 1277.7052 695.6693 1295.9374 662.6235 1305.0534 613.4346 1305.0534 548.10269 1305.0534 482.011 1295.9374 432.53724 1277.7052 399.68135 1259.473 366.82545 1230.7953 350.3975 1191.6721 350.3975ZM1191.6721 403.9545C1212.5631 403.57466 1227.5667 415.1597 1236.6828 438.7096 1245.7988 462.25947 1250.3569 499.10368 1250.3569 549.2421 1250.3569 598.621 1245.7988 634.70547 1236.6828 657.49569 1227.5667 680.2859 1212.5631 691.681 1191.6721 691.681 1170.781 691.681 1155.7775 680.2859 1146.6614 657.49569 1137.5453 634.70547 1132.9873 598.621 1132.9873 549.2421 1132.9873 499.10368 1137.5453 462.25947 1146.6614 438.7096 1155.7775 415.1597 1170.781 403.57466 1191.6721 403.9545Z"/>
<path transform="matrix(1,0,0,-1,0,1728)" d="M1561.4434 471.18565C1561.4434 443.45756 1556.5055 421.04719 1546.6298 403.9545 1537.5137 388.38117 1524.5042 375.56169 1507.6015 365.496 1490.6987 355.43034 1473.3212 350.3975 1455.4689 350.3975 1436.8568 350.3975 1418.9096 355.33537 1401.627 365.21113 1384.3444 375.08689 1371.145 388.00135 1362.0289 403.9545 1352.1532 421.427 1347.2153 443.83738 1347.2153 471.18565V738.9707H1401.9119V464.34858C1401.9119 446.1164 1406.8497 431.49269 1416.7255 420.47743 1426.6012 409.46214 1439.5158 403.9545 1455.4689 403.9545 1470.2825 403.9545 1482.4373 409.5571 1491.9332 420.7623 1501.4291 431.96748 1506.1771 446.49626 1506.1771 464.34858V738.9707H1561.4434V471.18565Z"/>
<path transform="matrix(1,0,0,-1,0,1728)" d="M1826.3796 357.23457H1769.9739L1719.2656 536.7075H1666.8482V357.23457H1612.1516V738.9707H1726.1027C1756.1099 738.9707 1780.3245 729.6647 1798.7465 711.0527 1817.1686 692.4407 1826.3796 667.7513 1826.3796 636.9845 1826.3796 616.85317 1821.3468 597.95626 1811.2811 580.2938 1801.2155 562.6314 1787.8262 550.7615 1771.1134 544.6841L1826.3796 357.23457ZM1772.8226 638.6937C1772.8226 653.12759 1768.2647 664.52267 1759.1486 672.8791 1750.0325 681.2355 1738.0675 685.4137 1723.2539 685.4137H1666.8482V591.40408H1723.2539C1736.9281 591.40408 1748.608 595.9621 1758.2938 605.0782 1767.9797 614.1943 1772.8226 625.3995 1772.8226 638.6937Z"/>
</g>
</svg>
