<svg xmlns="http://www.w3.org/2000/svg" xmlns:xlink="http://www.w3.org/1999/xlink" xmlns:inkscape="http://www.inkscape.org/namespaces/inkscape" version="1.1" width="2592" height="1296" viewBox="0 0 2592 1296">
<g inkscape:groupmode="layer" inkscape:label="Layer 1">
<path transform="matrix(1,0,0,-1,0,1296)" d="M2430 1296H162C72.52987 1296 0 1223.4701 0 1134V162C0 72.52987 72.52987 0 162 0H2430C2519.4703 0 2592 72.52987 2592 162V1134C2592 1223.4701 2519.4703 1296 2430 1296Z" fill="#ff7f00" fill-rule="evenodd"/>
<path transform="matrix(1,0,0,-1,0,1296)" stroke-width=".25" stroke-linecap="butt" stroke-miterlimit="4" stroke-linejoin="miter" fill="none" stroke="#000000" d="M2430 1296H162C72.52987 1296 0 1223.4701 0 1134V162C0 72.52987 72.52987 0 162 0H2430C2519.4703 0 2592 72.52987 2592 162V1134C2592 1223.4701 2519.4703 1296 2430 1296Z"/>
<path transform="matrix(1,0,0,-1,0,1296)" d="M121.52016 1243.8212C106.33047 1238.207 94.401599 1230.879 82.527378 1219.8678 70.63349 1208.8501 62.40254 1197.5097 55.613676 1182.7866 48.242 1166.7283 44.97534 1151.7322 44.999956 1134.0626L44.99997 161.94844C44.98334 147.43636 47.166936 135.13933 52.178853 121.52016 62.966077 92.270908 85.16796 68.51681 113.21333 55.613676 129.27169 48.242 144.2678 44.97534 161.93732 44.999956L2430.0516 44.99997C2444.5638 44.98334 2456.8607 47.166936 2470.4798 52.178853 2499.729 62.966077 2523.4832 85.16796 2536.3863 113.21333 2543.758 129.27169 2547.0247 144.2678 2547 161.93732V1134.0515C2547.0167 1148.5636 2544.833 1160.8607 2539.821 1174.4799 2529.034 1203.7291 2506.832 1227.4832 2478.7867 1240.3864 2462.7283 1247.7579 2447.7322 1251.0247 2430.0628 1251H161.94844C147.43636 1251.0166 135.13933 1248.833 121.52016 1243.8212ZM143.30748 1184.7084C149.58992 1187.0073 155.25858 1188.0083 161.94844 1188L2430.1505 1188.0001C2438.2354 1188.0114 2445.097 1186.5208 2452.4486 1183.156 2459.2864 1179.9913 2464.553 1176.1629 2469.673 1170.6351 2474.7415 1165.1696 2478.117 1159.6814 2480.7083 1152.6925 2483.0074 1146.41 2484.0084 1140.7415 2484 1134.0515V161.84955C2484.0115 153.76464 2482.5208 146.90312 2479.156 139.55162 2475.9913 132.71373 2472.1629 127.44703 2466.635 122.32687 2461.1697 117.258548 2455.6815 113.883129 2448.6927 111.29162 2442.4102 108.99265 2436.7415 107.99167 2430.0516 107.99997L161.84955 107.99989C153.76464 107.98863 146.90312 109.47924 139.55162 112.84393 132.71373 116.00867 127.44703 119.83713 122.32687 125.36488 117.258548 130.83042 113.883129 136.31864 111.29162 143.30748 108.99265 149.58992 107.99167 155.25858 107.99997 161.94844L107.99989 1134.1504C107.98863 1142.2354 109.47924 1149.0969 112.84393 1156.4484 116.00867 1163.2863 119.83713 1168.553 125.36488 1173.6731 130.83042 1178.7415 136.31864 1182.1168 143.30748 1184.7084Z" fill-rule="evenodd"/>
<path transform="matrix(1,0,0,-1,0,1296)" d="M1174.3704 743.4251H1033.7749V1019.6686H1163.6505V980.91207H1073.356V911.2327H1130.6663V873.3008H1073.356V782.18167H1174.3704V743.4251Z"/>
<path transform="matrix(1,0,0,-1,0,1296)" d="M1371.0393 743.4251H1332.6951L1255.5942 919.06649V743.4251H1216.0131V1019.6686H1255.5942L1331.0458 846.50106V1019.6686H1371.0393V743.4251Z"/>
<path transform="matrix(1,0,0,-1,0,1296)" d="M1560.699 881.5469C1560.699 837.01809 1553.4837 802.86557 1539.053 779.0894 1524.6224 755.31326 1503.2514 743.4251 1474.9398 743.4251H1406.4974V1019.6686H1474.9398C1503.2514 1019.6686 1524.6224 1007.7805 1539.053 984.00436 1553.4837 960.22817 1560.699 926.0757 1560.699 881.5469ZM1522.3547 882.37149C1522.3547 917.27987 1517.8881 942.4991 1508.9548 958.0292 1500.0216 973.55929 1488.1336 981.32437 1473.2905 981.32437H1444.8417V881.95919 782.594H1473.2905C1488.1336 782.594 1500.0216 790.359 1508.9548 805.8891 1517.8881 821.41928 1522.3547 846.9133 1522.3547 882.37149Z"/>
<path transform="matrix(1,0,0,-1,0,1296)" d="M639.61257 281.27906H598.79446L562.0994 411.15473H524.1675V281.27906H484.58634V557.5225H567.04708C588.7617 557.5225 606.2846 550.7882 619.6158 537.31967 632.94699 523.8511 639.61257 505.98457 639.61257 483.72016 639.61257 469.1521 635.9705 455.47737 628.68649 442.69596 621.40249 429.91453 611.7133 421.32487 599.6191 416.92698L639.61257 281.27906ZM600.85598 484.95707C600.85598 495.4021 597.55758 503.64817 590.9607 509.69529 584.36386 515.74246 575.70547 518.766 564.98556 518.766H524.1675V450.73588H564.98556C574.88088 450.73588 583.33309 454.0343 590.3422 460.63117 597.3514 467.22804 600.85598 475.33665 600.85598 484.95707Z"/>
<path transform="matrix(1,0,0,-1,0,1296)" d="M755.46987 276.3314C727.1583 276.3314 706.4057 288.21949 693.212 311.99568 680.0183 335.77186 673.42147 371.57356 673.42147 419.4008 673.42147 466.67829 680.0183 502.27384 693.212 526.18746 706.4057 550.1011 727.1583 562.05789 755.46987 562.05789 783.7814 562.05789 804.534 550.1011 817.7277 526.18746 830.92147 502.27384 837.5183 466.67829 837.5183 419.4008 837.5183 371.57356 830.92147 335.77186 817.7277 311.99568 804.534 288.21949 783.7814 276.3314 755.46987 276.3314ZM755.46987 315.08796C770.58767 314.81309 781.445 323.1966 788.0419 340.23847 794.63876 357.28038 797.93716 383.94267 797.93716 420.2254 797.93716 455.95838 794.63876 482.07096 788.0419 498.5631 781.445 515.05526 770.58767 523.30136 755.46987 523.30136 740.35208 523.30136 729.49478 515.05526 722.8979 498.5631 716.301 482.07096 713.00259 455.95838 713.00259 420.2254 713.00259 383.94267 716.301 357.28038 722.8979 340.23847 729.49478 323.1966 740.35208 314.81309 755.46987 315.08796Z"/>
<path transform="matrix(1,0,0,-1,0,1296)" d="M1035.8363 281.27906H995.8429L976.46469 356.73063H917.5052L898.95156 281.27906H859.37039L928.2251 557.5225H966.9816L1035.8363 281.27906ZM966.9816 395.48719 946.77877 475.0618 927.4005 395.48719H966.9816Z"/>
<path transform="matrix(1,0,0,-1,0,1296)" d="M1214.3639 419.4008C1214.3639 374.87199 1207.1486 340.71949 1192.7179 316.94334 1178.2872 293.16716 1156.9163 281.27906 1128.6047 281.27906H1060.1622V557.5225H1128.6047C1156.9163 557.5225 1178.2872 545.63449 1192.7179 521.8583 1207.1486 498.08207 1214.3639 463.9296 1214.3639 419.4008ZM1176.0197 420.2254C1176.0197 455.13377 1171.553 480.35304 1162.6198 495.88313 1153.6865 511.41325 1141.7985 519.1783 1126.9555 519.1783H1098.5065V419.81309 320.4479H1126.9555C1141.7985 320.4479 1153.6865 328.21296 1162.6198 343.74308 1171.553 359.27317 1176.0197 384.76728 1176.0197 420.2254Z"/>
<path transform="matrix(1,0,0,-1,0,1296)" d="M1540.9085 557.5225 1496.3796 281.27906H1462.1583L1436.1832 425.58537 1409.7958 281.27906H1375.1624L1331.4581 557.5225H1370.2146L1393.716 410.3301 1420.5158 557.5225H1451.8508L1477.8259 410.3301 1502.1519 557.5225H1540.9085Z"/>
<path transform="matrix(1,0,0,-1,0,1296)" d="M1643.9843 276.3314C1615.6727 276.3314 1594.9202 288.21949 1581.7265 311.99568 1568.5327 335.77186 1561.9359 371.57356 1561.9359 419.4008 1561.9359 466.67829 1568.5327 502.27384 1581.7265 526.18746 1594.9202 550.1011 1615.6727 562.05789 1643.9843 562.05789 1672.2958 562.05789 1693.0485 550.1011 1706.2422 526.18746 1719.4359 502.27384 1726.0327 466.67829 1726.0327 419.4008 1726.0327 371.57356 1719.4359 335.77186 1706.2422 311.99568 1693.0485 288.21949 1672.2958 276.3314 1643.9843 276.3314ZM1643.9843 315.08796C1659.102 314.81309 1669.9595 323.1966 1676.5563 340.23847 1683.1532 357.28038 1686.4515 383.94267 1686.4515 420.2254 1686.4515 455.95838 1683.1532 482.07096 1676.5563 498.5631 1669.9595 515.05526 1659.102 523.30136 1643.9843 523.30136 1628.8665 523.30136 1618.0092 515.05526 1611.4124 498.5631 1604.8154 482.07096 1601.5171 455.95838 1601.5171 420.2254 1601.5171 383.94267 1604.8154 357.28038 1611.4124 340.23847 1618.0092 323.1966 1628.8665 314.81309 1643.9843 315.08796Z"/>
<path transform="matrix(1,0,0,-1,0,1296)" d="M1915.6925 281.27906H1874.8744L1838.1793 411.15473H1800.2474V281.27906H1760.6663V557.5225H1843.127C1864.8417 557.5225 1882.3645 550.7882 1895.6957 537.31967 1909.0269 523.8511 1915.6925 505.98457 1915.6925 483.72016 1915.6925 469.1521 1912.0504 455.47737 1904.7664 442.69596 1897.4824 429.91453 1887.7932 421.32487 1875.699 416.92698L1915.6925 281.27906ZM1876.9359 484.95707C1876.9359 495.4021 1873.6375 503.64817 1867.0407 509.69529 1860.4437 515.74246 1851.7854 518.766 1841.0654 518.766H1800.2474V450.73588H1841.0654C1850.9608 450.73588 1859.413 454.0343 1866.4221 460.63117 1873.4313 467.22804 1876.9359 475.33665 1876.9359 484.95707Z"/>
<path transform="matrix(1,0,0,-1,0,1296)" d="M2107.4136 281.27906H2065.771L2017.1192 416.10237 1991.9686 373.63508V281.27906H1952.3875V557.5225H1991.9686V447.02516L2056.7003 557.5225H2100.4046L2043.5066 460.63117 2107.4136 281.27906Z"/>
</g>
</svg>
