<svg xmlns="http://www.w3.org/2000/svg" xmlns:xlink="http://www.w3.org/1999/xlink" xmlns:inkscape="http://www.inkscape.org/namespaces/inkscape" version="1.1" width="2942.8636" height="2942.8636" viewBox="0 0 2942.8636 2942.8636">
<g inkscape:groupmode="layer" inkscape:label="Layer 1">
<path transform="matrix(1,0,0,-1,0,2942.8636)" d="M1375.9724 2903.323 39.540586 1566.8912C-13.180195 1514.1704-13.180195 1428.6932 39.540586 1375.9724L1375.9724 39.540586C1428.6932-13.180195 1514.1704-13.180195 1566.8912 39.540586L2903.323 1375.9724C2956.0438 1428.6932 2956.0438 1514.1704 2903.323 1566.8912L1566.8912 2903.323C1514.1704 2956.0438 1428.6932 2956.0438 1375.9724 2903.323Z" fill="#ff7f00" fill-rule="evenodd"/>
<path transform="matrix(1,0,0,-1,0,2942.8636)" d="M798.3681 1666.8255H647.3219V1963.6026H689.84518V1708.4629H798.3681V1666.8255Z"/>
<path transform="matrix(1,0,0,-1,0,2942.8636)" d="M999.9107 1666.8255H848.8645V1963.6026H988.394V1921.9651H891.38778V1847.1065H952.95797V1806.355H891.38778V1708.4629H999.9107V1666.8255Z"/>
<path transform="matrix(1,0,0,-1,0,2942.8636)" d="M1201.4534 1921.9651H1092.9304V1847.1065H1152.2858V1806.355H1092.9304V1666.8255H1050.4071V1963.6026H1201.4534V1921.9651Z"/>
<path transform="matrix(1,0,0,-1,0,2942.8636)" d="M1391.9221 1923.7369H1337.8822V1666.8255H1294.9159V1923.7369H1240.876V1963.6026H1391.9221V1923.7369Z"/>
<path transform="matrix(1,0,0,-1,0,2942.8636)" d="M1682.0549 1666.8255H1531.0087V1963.6026H1573.532V1708.4629H1682.0549V1666.8255Z"/>
<path transform="matrix(1,0,0,-1,0,2942.8636)" d="M1905.3021 1666.8255H1862.3359L1841.5172 1747.8855H1778.1752L1758.2424 1666.8255H1715.7191L1789.6919 1963.6026H1831.3294L1905.3021 1666.8255ZM1831.3294 1789.5228 1809.6248 1875.0123 1788.806 1789.5228H1831.3294Z"/>
<path transform="matrix(1,0,0,-1,0,2942.8636)" d="M2099.3145 1666.8255H2058.12L1975.2883 1855.5225V1666.8255H1932.765V1963.6026H1975.2883L2056.3485 1777.5632V1963.6026H2099.3145V1666.8255Z"/>
<path transform="matrix(1,0,0,-1,0,2942.8636)" d="M2295.5418 1666.8255H2144.4957V1963.6026H2284.025V1921.9651H2187.0189V1847.1065H2248.5889V1806.355H2187.0189V1708.4629H2295.5418V1666.8255Z"/>
<path transform="matrix(1,0,0,-1,0,2942.8636)" d="M882.30728 1328.4111C882.30728 1385.9948 890.9448 1426.0079 908.2199 1448.4508 925.495 1470.8936 946.3875 1482.115 970.89749 1482.115 992.15908 1482.115 1010.0248 1475.1016 1024.4945 1461.0748 1038.9642 1447.0481 1046.7897 1429.1085 1047.9708 1407.2564H1005.00466C1004.70938 1417.2965 1001.31338 1425.3435 994.8168 1431.3971 988.3202 1437.4508 979.9041 1440.4777 969.5686 1440.4777 957.75656 1440.4777 947.421 1433.3167 938.562 1418.9945 929.703 1404.6725 925.2735 1374.478 925.2735 1328.4111 925.2735 1280.2771 929.77688 1249.4182 938.7835 1235.8344 947.79019 1222.2506 958.0519 1215.7539 969.5686 1216.3445 979.9041 1216.3445 988.3202 1219.3713 994.8168 1225.425 1001.31338 1231.4786 1004.70938 1239.5256 1005.00466 1249.5658H1047.9708C1046.7897 1227.7136 1038.9642 1209.774 1024.4945 1195.7473 1010.0248 1181.7206 992.15908 1174.7072 970.89749 1174.7072 946.3875 1174.7072 925.495 1185.9286 908.2199 1208.3715 890.9448 1230.8142 882.30728 1270.8275 882.30728 1328.4111Z"/>
<path transform="matrix(1,0,0,-1,0,2942.8636)" d="M1242.4263 1180.4656H1091.38V1477.2426H1133.9033V1222.1029H1242.4263V1180.4656Z"/>
<path transform="matrix(1,0,0,-1,0,2942.8636)" d="M1370.4391 1175.1502C1340.0231 1175.1502 1317.7279 1187.9219 1303.5535 1213.4653 1289.379 1239.0088 1282.2919 1277.4718 1282.2919 1328.854 1282.2919 1379.6458 1289.379 1417.8871 1303.5535 1443.5783 1317.7279 1469.2694 1340.0231 1482.115 1370.4391 1482.115 1400.855 1482.115 1423.1502 1469.2694 1437.3246 1443.5783 1451.499 1417.8871 1458.5862 1379.6458 1458.5862 1328.854 1458.5862 1277.4718 1451.499 1239.0088 1437.3246 1213.4653 1423.1502 1187.9219 1400.855 1175.1502 1370.4391 1175.1502ZM1370.4391 1216.7875C1386.6806 1216.4922 1398.345 1225.4989 1405.4321 1243.8075 1412.5194 1262.1161 1416.063 1290.7603 1416.063 1329.74 1416.063 1368.129 1412.5194 1396.1825 1405.4321 1413.9006 1398.345 1431.6187 1386.6806 1440.4777 1370.4391 1440.4777 1354.1975 1440.4777 1342.5331 1431.6187 1335.4459 1413.9006 1328.3588 1396.1825 1324.8151 1368.129 1324.8151 1329.74 1324.8151 1290.7603 1328.3588 1262.1161 1335.4459 1243.8075 1342.5331 1225.4989 1354.1975 1216.4922 1370.4391 1216.7875Z"/>
<path transform="matrix(1,0,0,-1,0,2942.8636)" d="M1656.5852 1263.7402C1656.5852 1240.4115 1649.3504 1219.8143 1634.8806 1201.9486 1620.4109 1184.083 1600.4782 1175.1502 1575.0823 1175.1502 1551.7536 1175.1502 1532.0422 1184.2306 1515.9484 1202.3916 1499.8545 1220.5526 1491.8075 1242.3309 1491.8075 1267.7268H1532.559C1532.559 1252.0759 1536.4718 1239.6732 1544.2973 1230.5189 1552.1227 1221.3646 1562.0891 1216.7875 1574.1964 1216.7875 1585.4179 1216.7875 1595.1627 1221.2908 1603.4312 1230.2975 1611.6996 1239.3042 1615.6862 1249.8611 1615.3909 1261.9685 1615.0955 1271.7134 1611.478 1281.9751 1604.5386 1292.7536 1597.599 1303.532 1584.8273 1314.8273 1566.2233 1326.6393 1544.9617 1340.2232 1529.4584 1353.7332 1519.7135 1367.1693 1509.9685 1380.6055 1505.0961 1393.2295 1505.0961 1405.0416 1504.8008 1426.3032 1511.5927 1444.3904 1525.4718 1459.3031 1539.351 1474.2157 1557.069 1481.8197 1578.6259 1482.115 1601.364 1482.115 1620.0418 1474.6587 1634.6592 1459.746 1649.2765 1444.8333 1656.5852 1426.7462 1656.5852 1405.4845H1613.176C1613.4713 1417.0012 1609.8539 1426.0079 1602.3237 1432.5045 1594.7936 1439.0011 1586.8943 1441.9541 1578.6259 1441.3635 1568.881 1440.773 1561.3508 1437.1555 1556.0354 1430.5112 1550.72 1423.867 1548.21 1415.8201 1548.5053 1406.3704 1548.8005 1400.1691 1551.4583 1394.1155 1556.4784 1388.2095 1561.4984 1382.3035 1572.4246 1373.4445 1589.2567 1361.6325 1612.8807 1345.6862 1629.9343 1330.0353 1640.4175 1314.6796 1650.9008 1299.324 1656.2899 1282.3442 1656.5852 1263.7402Z"/>
<path transform="matrix(1,0,0,-1,0,2942.8636)" d="M1851.4835 1180.4656H1700.4374V1477.2426H1839.9669V1435.6052H1742.9607V1360.7465H1804.5308V1319.995H1742.9607V1222.1029H1851.4835V1180.4656Z"/>
<path transform="matrix(1,0,0,-1,0,2942.8636)" d="M2060.5565 1328.854C2060.5565 1281.0154 2052.8048 1244.3242 2037.3014 1218.7808 2021.7982 1193.2373 1998.8385 1180.4656 1968.4226 1180.4656H1894.8927V1477.2426H1968.4226C1998.8385 1477.2426 2021.7982 1464.4708 2037.3014 1438.9274 2052.8048 1413.3838 2060.5565 1376.6928 2060.5565 1328.854ZM2019.3619 1329.74C2019.3619 1367.243 2014.5632 1394.3369 2004.9661 1411.0214 1995.3688 1427.7059 1982.597 1436.0481 1966.6508 1436.0481H1936.0872V1329.297 1222.5459H1966.6508C1982.597 1222.5459 1995.3688 1230.8881 2004.9661 1247.5725 2014.5632 1264.2571 2019.3619 1291.6461 2019.3619 1329.74Z"/>
<path transform="matrix(1,0,0,-1,0,2942.8636)" d="M1158.93 694.1056H1115.9639L1095.1452 775.1656H1031.8031L1011.87039 694.1056H969.3471L1043.3198 990.88259H1084.9573L1158.93 694.1056ZM1084.9573 816.8029 1063.2527 902.2924 1042.434 816.8029H1084.9573Z"/>
<path transform="matrix(1,0,0,-1,0,2942.8636)" d="M1352.9425 694.1056H1309.9762V828.31967H1228.9163V694.1056H1186.393V990.88259H1228.9163V869.95706H1309.9762V990.88259H1352.9425V694.1056Z"/>
<path transform="matrix(1,0,0,-1,0,2942.8636)" d="M1549.1697 694.1056H1398.1234V990.88259H1537.653V949.24526H1440.6467V874.38656H1502.2169V833.6351H1440.6467V735.7429H1549.1697V694.1056Z"/>
<path transform="matrix(1,0,0,-1,0,2942.8636)" d="M1772.4169 694.1056H1729.4507L1708.632 775.1656H1645.29L1625.3572 694.1056H1582.834L1656.8068 990.88259H1698.4441L1772.4169 694.1056ZM1698.4441 816.8029 1676.7395 902.2924 1655.9208 816.8029H1698.4441Z"/>
<path transform="matrix(1,0,0,-1,0,2942.8636)" d="M1964.2146 842.4941C1964.2146 794.6554 1956.4629 757.9643 1940.9596 732.42086 1925.4564 706.8773 1902.4967 694.1056 1872.0808 694.1056H1798.5509V990.88259H1872.0808C1902.4967 990.88259 1925.4564 978.11087 1940.9596 952.5673 1956.4629 927.02389 1964.2146 890.33279 1964.2146 842.4941ZM1923.0202 843.38C1923.0202 880.8831 1918.2216 907.977 1908.6243 924.66146 1899.027 941.34597 1886.2553 949.6882 1870.309 949.6882H1839.7454V842.937 736.1859H1870.309C1886.2553 736.1859 1899.027 744.52816 1908.6243 761.2126 1918.2216 777.8971 1923.0202 805.2862 1923.0202 843.38Z"/>
<path transform="matrix(1,0,0,-1,0,2942.8636)" d="M45.080575 1512.9197C39.351034 1500.472 36.598054 1488.95 36.08172 1475.2567 35.557649 1461.5493 37.418096 1449.8403 42.165025 1436.9705 47.362829 1422.9503 54.3815 1412.0221 64.969379 1401.4636L1401.4367 64.99643C1410.1249 56.294626 1418.7991 50.23432 1429.9584 45.069387 1453.8992 34.020139 1481.408 33.09913 1505.9015 42.15659 1519.9218 47.354394 1530.85 54.373067 1541.4083 64.960948L2877.8758 1401.4282C2886.5775 1410.1165 2892.6378 1418.7907 2897.8028 1429.95 2908.852 1453.8908 2909.773 1481.3995 2900.7156 1505.8931 2895.5177 1519.9133 2888.499 1530.8416 2877.9112 1541.3999L1541.4439 2877.8673C1532.7556 2886.569 1524.0814 2892.6295 1512.9221 2897.7943 1488.9813 2908.8436 1461.4725 2909.7645 1436.979 2900.707 1422.9588 2895.5093 1412.0305 2888.4906 1401.4722 2877.9027L64.97568 1541.4063C56.28221 1532.7327 50.23073 1524.0679 45.080575 1512.9197ZM94.11346 1490.2971C96.4611 1495.3544 99.21195 1499.2849 103.15945 1503.2224L1439.709 2839.7723C1444.4664 2844.5428 1449.388 2847.7078 1455.7025 2850.057 1466.8253 2854.1683 1479.473 2853.761 1490.2855 2848.7679 1495.3606 2846.4068 1499.3056 2843.6448 1503.26 2839.6834L2839.7806 1503.163C2844.5513 1498.4057 2847.716 1493.4841 2850.0655 1487.1696 2854.1768 1476.0468 2853.7694 1463.399 2848.7762 1452.5866 2846.4154 1447.5114 2843.653 1443.5665 2839.692 1439.612L1503.1715 103.09148C1498.4141 98.3208 1493.4926 95.155979 1487.178 92.80672 1476.0552 88.6954 1463.4075 89.10268 1452.595 94.095859 1447.5199 96.45681 1443.575 99.21887 1439.6205 103.1802L103.099918 1439.7006C98.32923 1444.458 95.16441 1449.3795 92.815158 1455.694 90.6507 1461.5881 89.803188 1466.9476 90.04337 1473.2219 90.27742 1479.4291 91.52236 1484.6519 94.11346 1490.2971Z" fill-rule="evenodd"/>
</g>
</svg>
