<svg xmlns="http://www.w3.org/2000/svg" xmlns:xlink="http://www.w3.org/1999/xlink" xmlns:inkscape="http://www.inkscape.org/namespaces/inkscape" version="1.1" width="2942.8636" height="2942.8636" viewBox="0 0 2942.8636 2942.8636">
<g inkscape:groupmode="layer" inkscape:label="Layer 1">
<path transform="matrix(1,0,0,-1,0,2942.8636)" d="M1375.9724 2903.323 39.540586 1566.8912C-13.180195 1514.1704-13.180195 1428.6932 39.540586 1375.9724L1375.9724 39.540586C1428.6932-13.180195 1514.1704-13.180195 1566.8912 39.540586L2903.323 1375.9724C2956.0438 1428.6932 2956.0438 1514.1704 2903.323 1566.8912L1566.8912 2903.323C1514.1704 2956.0438 1428.6932 2956.0438 1375.9724 2903.323Z" fill="#ff7f00" fill-rule="evenodd"/>
<path transform="matrix(1,0,0,-1,0,2942.8636)" d="M784.98257 1623.9369H743.1748L705.59 1756.9616H666.7384V1623.9369H626.1976V1906.8782H710.65768C732.8988 1906.8782 750.84658 1899.9806 764.501 1886.1856 778.15536 1872.3904 784.98257 1854.0907 784.98257 1831.2865 784.98257 1816.3651 781.2522 1802.3589 773.79159 1789.2676 766.33096 1776.1763 756.40689 1767.3783 744.0194 1762.8738L784.98257 1623.9369ZM745.28628 1832.5534C745.28628 1843.2516 741.9079 1851.6976 735.15109 1857.8914 728.3943 1864.0851 719.52597 1867.182 708.54617 1867.182H666.7384V1797.5025H708.54617C718.68136 1797.5025 727.3385 1800.8809 734.51766 1807.6376 741.6967 1814.3944 745.28628 1822.6997 745.28628 1832.5534Z"/>
<path transform="matrix(1,0,0,-1,0,2942.8636)" d="M877.044 1623.9369H837.3478V1906.8782H877.044V1623.9369Z"/>
<path transform="matrix(1,0,0,-1,0,2942.8636)" d="M1084.3936 1724.0221C1084.3936 1691.3643 1078.4109 1665.6743 1066.4457 1646.9523 1054.4806 1628.2304 1036.9551 1618.8694 1013.8693 1618.8694 984.8714 1618.8694 963.0525 1630.0603 948.4128 1652.4423 933.773 1674.8241 926.4531 1712.3385 926.4531 1764.9852 927.01626 1819.6028 935.39187 1857.6802 951.58 1879.2175 967.7682 1900.7549 987.54598 1911.5236 1010.9132 1911.5236 1031.1836 1911.5236 1048.2164 1904.837 1062.0116 1891.4642 1075.8068 1878.0914 1083.2673 1860.9883 1084.3936 1840.1548H1043.4304C1043.1488 1849.7269 1039.9111 1857.3987 1033.7174 1863.1702 1027.5237 1868.9415 1019.5 1871.8273 1009.6463 1871.8273 998.385 1872.1088 988.81289 1866.8301 980.92996 1855.991 973.04696 1845.152 968.5424 1814.8168 967.4163 1764.9852 967.6978 1717.6876 972.20236 1687.9154 980.92996 1675.6687 989.6575 1663.422 1000.07418 1657.721 1012.1801 1658.5656 1022.8784 1658.0026 1030.9725 1662.859 1036.4624 1673.1349 1041.9523 1683.4109 1044.2749 1699.388 1043.4304 1721.066H1011.7578V1760.7623H1084.3936V1724.0221Z"/>
<path transform="matrix(1,0,0,-1,0,2942.8636)" d="M1278.6517 1623.9369H1237.6886V1751.8939H1160.4076V1623.9369H1119.8667V1906.8782H1160.4076V1791.5902H1237.6886V1906.8782H1278.6517V1623.9369Z"/>
<path transform="matrix(1,0,0,-1,0,2942.8636)" d="M1455.1732 1868.8712H1403.6526V1623.9369H1362.6895V1868.8712H1311.1688V1906.8782H1455.1732V1868.8712Z"/>
<path transform="matrix(1,0,0,-1,0,2942.8636)" d="M1731.78 1623.9369H1587.7755V1906.8782H1628.3164V1663.6332H1731.78V1623.9369Z"/>
<path transform="matrix(1,0,0,-1,0,2942.8636)" d="M1944.6194 1623.9369H1903.6563L1883.8081 1701.2179H1823.4192L1804.4157 1623.9369H1763.8749L1834.399 1906.8782H1874.0952L1944.6194 1623.9369ZM1874.0952 1740.9142 1853.4025 1822.4181 1833.5545 1740.9142H1874.0952Z"/>
<path transform="matrix(1,0,0,-1,0,2942.8636)" d="M2129.587 1623.9369H2090.313L2011.3429 1803.8369V1623.9369H1970.802V1906.8782H2011.3429L2088.6239 1729.5121V1906.8782H2129.587V1623.9369Z"/>
<path transform="matrix(1,0,0,-1,0,2942.8636)" d="M2316.666 1623.9369H2172.6617V1906.8782H2305.6864V1867.182H2213.2025V1795.8132H2271.902V1756.9616H2213.2025V1663.6332H2316.666V1623.9369Z"/>
<path transform="matrix(1,0,0,-1,0,2942.8636)" d="M911.25039 1301.2994C911.25039 1356.1985 919.48519 1394.3463 935.9549 1415.7428 952.4246 1437.1394 972.34317 1447.8377 995.7104 1447.8377 1015.98086 1447.8377 1033.0136 1441.1513 1046.8087 1427.7785 1060.6039 1414.4055 1068.0646 1397.3024 1069.1907 1376.4689H1028.2276C1027.946 1386.041 1024.7084 1393.7129 1018.51467 1399.4843 1012.32089 1405.2557 1004.2972 1408.1415 994.44357 1408.1415 983.1822 1408.1415 973.3285 1401.3142 964.8825 1387.6599 956.43649 1374.0055 952.2135 1345.2186 952.2135 1301.2994 952.2135 1255.4094 956.50686 1225.9893 965.0936 1213.0387 973.6804 1200.0881 983.4637 1193.8944 994.44357 1194.4574 1004.2972 1194.4574 1012.32089 1197.3432 1018.51467 1203.1146 1024.7084 1208.886 1027.946 1216.5579 1028.2276 1226.13H1069.1907C1068.0646 1205.2965 1060.6039 1188.1934 1046.8087 1174.8204 1033.0136 1161.4476 1015.98086 1154.7612 995.7104 1154.7612 972.34317 1154.7612 952.4246 1165.4595 935.9549 1186.8561 919.48519 1208.2526 911.25039 1246.4004 911.25039 1301.2994Z"/>
<path transform="matrix(1,0,0,-1,0,2942.8636)" d="M1254.5806 1160.2511H1110.5762V1443.1924H1151.117V1199.9474H1254.5806V1160.2511Z"/>
<path transform="matrix(1,0,0,-1,0,2942.8636)" d="M1376.6254 1155.1835C1347.6275 1155.1835 1326.3716 1167.3599 1312.858 1191.7125 1299.3444 1216.0652 1292.5877 1252.7349 1292.5877 1301.7217 1292.5877 1350.1455 1299.3444 1386.6041 1312.858 1411.0975 1326.3716 1435.591 1347.6275 1447.8377 1376.6254 1447.8377 1405.6233 1447.8377 1426.8792 1435.591 1440.3927 1411.0975 1453.9064 1386.6041 1460.6632 1350.1455 1460.6632 1301.7217 1460.6632 1252.7349 1453.9064 1216.0652 1440.3927 1191.7125 1426.8792 1167.3599 1405.6233 1155.1835 1376.6254 1155.1835ZM1376.6254 1194.8798C1392.1098 1194.5982 1403.2304 1203.1849 1409.987 1220.64 1416.7439 1238.0951 1420.1223 1265.4039 1420.1223 1302.5663 1420.1223 1339.1657 1416.7439 1365.9114 1409.987 1382.8035 1403.2304 1399.6954 1392.1098 1408.1415 1376.6254 1408.1415 1361.141 1408.1415 1350.0205 1399.6954 1343.2637 1382.8035 1336.5068 1365.9114 1333.1284 1339.1657 1333.1284 1302.5663 1333.1284 1265.4039 1336.5068 1238.0951 1343.2637 1220.64 1350.0205 1203.1849 1361.141 1194.5982 1376.6254 1194.8798Z"/>
<path transform="matrix(1,0,0,-1,0,2942.8636)" d="M1649.4314 1239.6436C1649.4314 1217.4025 1642.5338 1197.7655 1628.7388 1180.7327 1614.9436 1163.6998 1595.9401 1155.1835 1571.7282 1155.1835 1549.487 1155.1835 1530.6946 1163.8407 1515.3511 1181.155 1500.0075 1198.4692 1492.3357 1219.2324 1492.3357 1243.4443H1531.1874C1531.1874 1228.523 1534.9176 1216.6986 1542.3783 1207.9711 1549.8389 1199.2435 1559.3407 1194.8798 1570.8836 1194.8798 1581.5818 1194.8798 1590.8724 1199.1731 1598.7554 1207.7599 1606.6383 1216.3467 1610.439 1226.4115 1610.1575 1237.9544 1609.876 1247.245 1606.4271 1257.0283 1599.8112 1267.3042 1593.1951 1277.5802 1581.0188 1288.3489 1563.2821 1299.6102 1543.0117 1312.5608 1528.2312 1325.4409 1518.9406 1338.2507 1509.65 1351.0606 1505.0046 1363.0961 1505.0046 1374.3574 1504.7232 1394.6278 1511.1985 1411.8717 1524.4306 1426.0892 1537.6626 1440.3067 1554.5546 1447.5562 1575.1066 1447.8377 1596.7847 1447.8377 1614.5917 1440.729 1628.5276 1426.5115 1642.4635 1412.2941 1649.4314 1395.0502 1649.4314 1374.7797H1608.046C1608.3275 1385.7595 1604.8788 1394.3463 1597.6996 1400.54 1590.5205 1406.7338 1582.9895 1409.5491 1575.1066 1408.9861 1565.8159 1408.423 1558.6369 1404.9743 1553.5692 1398.6397 1548.5016 1392.3052 1546.1087 1384.6334 1546.3901 1375.6243 1546.6716 1369.7122 1549.2055 1363.9407 1553.9916 1358.3099 1558.7776 1352.6793 1569.1943 1344.2333 1585.2418 1332.9719 1607.7644 1317.7692 1624.0231 1302.8479 1634.0175 1288.2081 1644.0119 1273.5684 1649.1499 1257.3803 1649.4314 1239.6436Z"/>
<path transform="matrix(1,0,0,-1,0,2942.8636)" d="M1835.2437 1160.2511H1691.2391V1443.1924H1824.2638V1403.4961H1731.78V1332.1273H1790.4797V1293.2758H1731.78V1199.9474H1835.2437V1160.2511Z"/>
<path transform="matrix(1,0,0,-1,0,2942.8636)" d="M2034.5693 1301.7217C2034.5693 1256.1133 2027.1792 1221.1327 2012.3986 1196.78 1997.6182 1172.4275 1975.7289 1160.2511 1946.731 1160.2511H1876.629V1443.1924H1946.731C1975.7289 1443.1924 1997.6182 1431.016 2012.3986 1406.6633 2027.1792 1382.3108 2034.5693 1347.3302 2034.5693 1301.7217ZM1995.2954 1302.5663C1995.2954 1338.3212 1990.7206 1364.1519 1981.5707 1380.0585 1972.4209 1395.9651 1960.2445 1403.9185 1945.0418 1403.9185H1915.903V1302.144 1200.3696H1945.0418C1960.2445 1200.3696 1972.4209 1208.323 1981.5707 1224.2296 1990.7206 1240.1362 1995.2954 1266.2485 1995.2954 1302.5663Z"/>
<path transform="matrix(1,0,0,-1,0,2942.8636)" d="M1174.9769 696.56527H1134.0138L1114.1657 773.84628H1053.7767L1034.7732 696.56527H994.23239L1064.7565 979.50656H1104.4528L1174.9769 696.56527ZM1104.4528 813.5425 1083.76 895.04647 1063.912 813.5425H1104.4528Z"/>
<path transform="matrix(1,0,0,-1,0,2942.8636)" d="M1359.9445 696.56527H1318.9813V824.5223H1241.7005V696.56527H1201.1596V979.50656H1241.7005V864.2185H1318.9813V979.50656H1359.9445V696.56527Z"/>
<path transform="matrix(1,0,0,-1,0,2942.8636)" d="M1547.0236 696.56527H1403.0192V979.50656H1536.0438V939.8103H1443.5599V868.4415H1502.2598V829.5899H1443.5599V736.26156H1547.0236V696.56527Z"/>
<path transform="matrix(1,0,0,-1,0,2942.8636)" d="M1759.863 696.56527H1718.8999L1699.0518 773.84628H1638.6627L1619.6593 696.56527H1579.1184L1649.6426 979.50656H1689.3389L1759.863 696.56527ZM1689.3389 813.5425 1668.6461 895.04647 1648.798 813.5425H1689.3389Z"/>
<path transform="matrix(1,0,0,-1,0,2942.8636)" d="M1942.7191 838.0359C1942.7191 792.4275 1935.3289 757.4469 1920.5484 733.09426 1905.7678 708.7416 1883.8786 696.56527 1854.8806 696.56527H1784.7787V979.50656H1854.8806C1883.8786 979.50656 1905.7678 967.3302 1920.5484 942.97756 1935.3289 918.6249 1942.7191 883.64437 1942.7191 838.0359ZM1903.4451 838.8805C1903.4451 874.63528 1898.8703 900.466 1889.7203 916.3726 1880.5706 932.2793 1868.3942 940.2326 1853.1914 940.2326H1824.0526V838.4582 736.68386H1853.1914C1868.3942 736.68386 1880.5706 744.63717 1889.7203 760.54379 1898.8703 776.45046 1903.4451 802.5627 1903.4451 838.8805Z"/>
<path transform="matrix(1,0,0,-1,0,2942.8636)" d="M45.080575 1512.9197C39.351034 1500.472 36.598054 1488.95 36.08172 1475.2567 35.557649 1461.5493 37.418096 1449.8403 42.165025 1436.9705 47.362829 1422.9503 54.3815 1412.0221 64.969379 1401.4636L1401.4367 64.99643C1410.1249 56.294626 1418.7991 50.23432 1429.9584 45.069387 1453.8992 34.020139 1481.408 33.09913 1505.9015 42.15659 1519.9218 47.354394 1530.85 54.373067 1541.4083 64.960948L2877.8758 1401.4282C2886.5775 1410.1165 2892.6378 1418.7907 2897.8028 1429.95 2908.852 1453.8908 2909.773 1481.3995 2900.7156 1505.8931 2895.5177 1519.9133 2888.499 1530.8416 2877.9112 1541.3999L1541.4439 2877.8673C1532.7556 2886.569 1524.0814 2892.6295 1512.9221 2897.7943 1488.9813 2908.8436 1461.4725 2909.7645 1436.979 2900.707 1422.9588 2895.5093 1412.0305 2888.4906 1401.4722 2877.9027L64.97568 1541.4063C56.28221 1532.7327 50.23073 1524.0679 45.080575 1512.9197ZM94.11346 1490.2971C96.4611 1495.3544 99.21195 1499.2849 103.15945 1503.2224L1439.709 2839.7723C1444.4664 2844.5428 1449.388 2847.7078 1455.7025 2850.057 1466.8253 2854.1683 1479.473 2853.761 1490.2855 2848.7679 1495.3606 2846.4068 1499.3056 2843.6448 1503.26 2839.6834L2839.7806 1503.163C2844.5513 1498.4057 2847.716 1493.4841 2850.0655 1487.1696 2854.1768 1476.0468 2853.7694 1463.399 2848.7762 1452.5866 2846.4154 1447.5114 2843.653 1443.5665 2839.692 1439.612L1503.1715 103.09148C1498.4141 98.3208 1493.4926 95.155979 1487.178 92.80672 1476.0552 88.6954 1463.4075 89.10268 1452.595 94.095859 1447.5199 96.45681 1443.575 99.21887 1439.6205 103.1802L103.099918 1439.7006C98.32923 1444.458 95.16441 1449.3795 92.815158 1455.694 90.6507 1461.5881 89.803188 1466.9476 90.04337 1473.2219 90.27742 1479.4291 91.52236 1484.6519 94.11346 1490.2971Z" fill-rule="evenodd"/>
</g>
</svg>
