<svg xmlns="http://www.w3.org/2000/svg" xmlns:xlink="http://www.w3.org/1999/xlink" xmlns:inkscape="http://www.inkscape.org/namespaces/inkscape" version="1.1" width="2438.735" height="2438.735" viewBox="0 0 2438.735 2438.735">
<g inkscape:groupmode="layer" inkscape:label="Layer 1">
<path transform="matrix(1,0,0,-1,0,2438.735)" d="M1140.2609 2405.968 32.767068 1298.4743C-10.922356 1254.7848-10.922356 1183.9503 32.767068 1140.2609L1140.2609 32.767068C1183.9503-10.922356 1254.7848-10.922356 1298.4743 32.767068L2405.968 1140.2609C2449.6575 1183.9503 2449.6575 1254.7848 2405.968 1298.4743L1298.4743 2405.968C1254.7848 2449.6575 1183.9503 2449.6575 1140.2609 2405.968Z" fill="#ff7f00" fill-rule="evenodd"/>
<path transform="matrix(1,0,0,-1,0,2438.735)" d="M38.479845 1253.2278C33.80398 1243.069 31.557284 1233.6657 31.135895 1222.4904 30.708056 1211.3024 32.226457 1201.7454 36.100786 1191.2409 40.342599 1179.7997 46.07025 1170.8817 54.710519 1162.2655L1162.2601 54.715959C1169.3384 47.6214 1176.4094 42.682878 1185.5073 38.479845 1205.0576 29.464596 1227.4985 28.706633 1247.4942 36.100786 1258.9354 40.342599 1267.8533 46.07025 1276.4696 54.710519L2384.019 1162.2601C2391.1138 1169.3384 2396.0523 1176.4094 2400.2552 1185.5073 2409.2706 1205.0576 2410.0284 1227.4985 2402.6343 1247.4942 2398.3927 1258.9354 2392.6649 1267.8533 2384.0247 1276.4696L1276.475 2384.019C1269.3966 2391.1138 1262.3256 2396.0523 1253.2278 2400.2552 1233.6775 2409.2706 1211.2366 2410.0284 1191.2409 2402.6343 1179.7997 2398.3927 1170.8817 2392.6649 1162.2655 2384.0247L54.715959 1276.475C47.6214 1269.3966 42.682878 1262.3256 38.479845 1253.2278ZM77.984409 1235.0014C79.92959 1239.1917 82.20888 1242.4486 85.479679 1245.7113L1193.072 2353.3038C1197.0145 2357.257 1201.093 2359.88 1206.3258 2361.8267 1211.2102 2363.6204 1215.6515 2364.3228 1220.8511 2364.1236 1225.9949 2363.9298 1230.3231 2362.898 1235.0014 2360.7508 1239.1917 2358.8055 1242.4486 2356.5262 1245.7113 2353.2554L2353.3038 1245.663C2357.257 1241.7206 2359.88 1237.6421 2361.8267 1232.4092 2363.6204 1227.5248 2364.3228 1223.0835 2364.1236 1217.884 2363.9298 1212.7402 2362.898 1208.412 2360.7508 1203.7338 2358.8055 1199.5433 2356.5262 1196.2865 2353.2554 1193.0238L1245.663 85.43135C1241.7206 81.47788 1237.6421 78.8552 1232.4092 76.90839 1227.5248 75.11474 1223.0835 74.41242 1217.884 74.611469 1212.7402 74.80542 1208.412 75.83713 1203.7338 77.984409 1199.5433 79.92959 1196.2865 82.20888 1193.0238 85.479679L85.43135 1193.072C81.47788 1197.0145 78.8552 1201.093 76.90839 1206.3258 75.11474 1211.2102 74.41242 1215.6515 74.611469 1220.8511 74.80542 1225.9949 75.83713 1230.3231 77.984409 1235.0014Z" fill-rule="evenodd"/>
<path transform="matrix(1,0,0,-1,0,2438.735)" stroke-width=".25" stroke-linecap="butt" stroke-miterlimit="4" stroke-linejoin="miter" fill="none" stroke="#000000" d="M1140.2609 2405.968 32.767068 1298.4743C-10.922356 1254.7848-10.922356 1183.9503 32.767068 1140.2609L1140.2609 32.767068C1183.9503-10.922356 1254.7848-10.922356 1298.4743 32.767068L2405.968 1140.2609C2449.6575 1183.9503 2449.6575 1254.7848 2405.968 1298.4743L1298.4743 2405.968C1254.7848 2449.6575 1183.9503 2449.6575 1140.2609 2405.968Z"/>
<path transform="matrix(1,0,0,-1,0,2438.735)" d="M848.44137 1573.1166C848.44137 1553.6856 844.981 1537.981 838.06039 1526.0029 831.6721 1515.0896 822.5555 1506.106 810.7105 1499.0523 798.86557 1491.9985 786.6878 1488.4717 774.1774 1488.4717 761.13467 1488.4717 748.5577 1491.932 736.44656 1498.8527 724.3354 1505.7733 715.08566 1514.8234 708.6973 1526.0029 701.7767 1538.2471 698.31637 1553.9517 698.31637 1573.1166V1760.7728H736.6462V1568.3253C736.6462 1555.5488 740.1065 1545.3009 747.02719 1537.5817 753.9478 1529.8626 762.99789 1526.0029 774.1774 1526.0029 784.5584 1526.0029 793.0761 1529.9291 799.7306 1537.7814 806.3851 1545.6336 809.71237 1555.815 809.71237 1568.3253V1760.7728H848.44137V1573.1166Z"/>
<path transform="matrix(1,0,0,-1,0,2438.735)" d="M1012.94009 1724.8386H964.22927V1493.2628H925.50027V1724.8386H876.7894V1760.7728H1012.94009V1724.8386Z"/>
<path transform="matrix(1,0,0,-1,0,2438.735)" d="M1093.193 1493.2628H1055.6618V1760.7728H1093.193V1493.2628Z"/>
<path transform="matrix(1,0,0,-1,0,2438.735)" d="M1282.4464 1493.2628H1146.2958V1760.7728H1184.6256V1530.7941H1282.4464V1493.2628Z"/>
<path transform="matrix(1,0,0,-1,0,2438.735)" d="M1372.681 1493.2628H1335.1498V1760.7728H1372.681V1493.2628Z"/>
<path transform="matrix(1,0,0,-1,0,2438.735)" d="M1551.9528 1724.8386H1503.242V1493.2628H1464.5128V1724.8386H1415.8021V1760.7728H1551.9528V1724.8386Z"/>
<path transform="matrix(1,0,0,-1,0,2438.735)" d="M1741.206 1760.7728 1674.5282 1614.2412V1493.2628H1636.1984V1614.2412L1570.3191 1760.7728H1610.6452L1655.7626 1664.1498 1699.6821 1760.7728H1741.206Z"/>
<path transform="matrix(1,0,0,-1,0,2438.735)" d="M1037.4951 1322.3759 994.3741 1054.866H961.23477L936.0808 1194.61 910.52767 1054.866H876.9891L834.6666 1322.3759H872.1979L894.9562 1179.837 920.9086 1322.3759H951.25308L976.407 1179.837 999.9638 1322.3759H1037.4951Z"/>
<path transform="matrix(1,0,0,-1,0,2438.735)" d="M1137.3123 1050.0747C1109.8958 1050.0747 1089.7993 1061.5869 1077.0227 1084.6115 1064.2461 1107.6359 1057.8578 1142.3058 1057.8578 1188.6209 1057.8578 1234.4037 1064.2461 1268.8739 1077.0227 1292.0315 1089.7993 1315.1891 1109.8958 1326.7678 1137.3123 1326.7678 1164.7286 1326.7678 1184.8252 1315.1891 1197.6018 1292.0315 1210.3784 1268.8739 1216.7667 1234.4037 1216.7667 1188.6209 1216.7667 1142.3058 1210.3784 1107.6359 1197.6018 1084.6115 1184.8252 1061.5869 1164.7286 1050.0747 1137.3123 1050.0747ZM1137.3123 1087.606C1151.952 1087.3397 1162.4662 1095.4583 1168.8545 1111.9613 1175.2428 1128.4645 1178.4369 1154.2838 1178.4369 1189.4194 1178.4369 1224.0227 1175.2428 1249.3097 1168.8545 1265.2805 1162.4662 1281.2512 1151.952 1289.2366 1137.3123 1289.2366 1122.6724 1289.2366 1112.1583 1281.2512 1105.77 1265.2805 1099.3817 1249.3097 1096.1875 1224.0227 1096.1875 1189.4194 1096.1875 1154.2838 1099.3817 1128.4645 1105.77 1111.9613 1112.1583 1095.4583 1122.6724 1087.3397 1137.3123 1087.606Z"/>
<path transform="matrix(1,0,0,-1,0,2438.735)" d="M1400.4303 1054.866H1360.9027L1325.3678 1180.6355H1288.635V1054.866H1250.3053V1322.3759H1330.1589C1351.1871 1322.3759 1368.156 1315.8545 1381.0657 1302.8118 1393.9755 1289.7689 1400.4303 1272.4673 1400.4303 1250.9069 1400.4303 1236.7993 1396.9033 1223.5569 1389.8496 1211.1796 1382.7959 1198.8023 1373.4131 1190.4841 1361.7012 1186.2254L1400.4303 1054.866ZM1362.899 1252.1046C1362.899 1262.2194 1359.7048 1270.2048 1353.3165 1276.0608 1346.9282 1281.9166 1338.5436 1284.8446 1328.1626 1284.8446H1288.635V1218.9653H1328.1626C1337.7451 1218.9653 1345.93 1222.1594 1352.7177 1228.5477 1359.5053 1234.936 1362.899 1242.7883 1362.899 1252.1046Z"/>
<path transform="matrix(1,0,0,-1,0,2438.735)" d="M1586.0902 1054.866H1545.764L1498.6504 1185.4268 1474.2949 1144.3021V1054.866H1435.9652V1322.3759H1474.2949V1215.372L1536.9801 1322.3759H1579.3026L1524.2035 1228.5477 1586.0902 1054.866Z"/>
<path transform="matrix(1,0,0,-1,0,2438.735)" d="M932.6871 616.46896H893.958L875.1924 689.5351H818.097L800.1299 616.46896H761.80007L828.47799 883.97897H866.0092L932.6871 616.46896ZM866.0092 727.06637 846.445 804.1252 827.6794 727.06637H866.0092Z"/>
<path transform="matrix(1,0,0,-1,0,2438.735)" d="M1107.5667 616.46896H1068.8377V737.4473H995.7715V616.46896H957.4417V883.97897H995.7715V774.9786H1068.8377V883.97897H1107.5667V616.46896Z"/>
<path transform="matrix(1,0,0,-1,0,2438.735)" d="M1284.4428 616.46896H1148.2921V883.97897H1274.0618V846.4477H1186.622V778.9713H1242.1203V742.2386H1186.622V654.0002H1284.4428V616.46896Z"/>
<path transform="matrix(1,0,0,-1,0,2438.735)" d="M1485.6741 616.46896H1446.9451L1428.1795 689.5351H1371.084L1353.117 616.46896H1314.7871L1381.465 883.97897H1418.9962L1485.6741 616.46896ZM1418.9962 727.06637 1399.4321 804.1252 1380.6665 727.06637H1418.9962Z"/>
<path transform="matrix(1,0,0,-1,0,2438.735)" d="M1658.5574 750.22396C1658.5574 707.1029 1651.5702 674.03018 1637.5958 651.0057 1623.6215 627.9812 1602.926 616.46896 1575.5095 616.46896H1509.231V883.97897H1575.5095C1602.926 883.97897 1623.6215 872.4667 1637.5958 849.4422 1651.5702 826.4177 1658.5574 793.345 1658.5574 750.22396ZM1621.4254 751.02249C1621.4254 784.8272 1617.1 809.24917 1608.4492 824.28829 1599.7984 839.3274 1588.2861 846.8469 1573.9125 846.8469H1546.3629V750.6232 654.3995H1573.9125C1588.2861 654.3995 1599.7984 661.919 1608.4492 676.9581 1617.1 691.99728 1621.4254 716.68539 1621.4254 751.02249Z"/>
</g>
</svg>
