<svg xmlns="http://www.w3.org/2000/svg" xmlns:xlink="http://www.w3.org/1999/xlink" xmlns:inkscape="http://www.inkscape.org/namespaces/inkscape" version="1.1" width="2942.8636" height="2942.8636" viewBox="0 0 2942.8636 2942.8636">
<g inkscape:groupmode="layer" inkscape:label="Layer 1">
<path transform="matrix(1,0,0,-1,0,2942.8636)" d="M1375.9724 2903.323 39.540586 1566.8912C-13.180195 1514.1704-13.180195 1428.6932 39.540586 1375.9724L1375.9724 39.540586C1428.6932-13.180195 1514.1704-13.180195 1566.8912 39.540586L2903.323 1375.9724C2956.0438 1428.6932 2956.0438 1514.1704 2903.323 1566.8912L1566.8912 2903.323C1514.1704 2956.0438 1428.6932 2956.0438 1375.9724 2903.323Z" fill="#ff7f00" fill-rule="evenodd"/>
<path transform="matrix(1,0,0,-1,0,2942.8636)" d="M45.080575 1512.9197C39.351034 1500.472 36.598054 1488.95 36.08172 1475.2567 35.557649 1461.5493 37.418096 1449.8403 42.165025 1436.9705 47.362829 1422.9503 54.3815 1412.0221 64.969379 1401.4636L1401.4367 64.99643C1410.1249 56.294626 1418.7991 50.23432 1429.9584 45.069387 1453.8992 34.020139 1481.408 33.09913 1505.9015 42.15659 1519.9218 47.354394 1530.85 54.373067 1541.4083 64.960948L2877.8758 1401.4282C2886.5775 1410.1165 2892.6378 1418.7907 2897.8028 1429.95 2908.852 1453.8908 2909.773 1481.3995 2900.7156 1505.8931 2895.5177 1519.9133 2888.499 1530.8416 2877.9112 1541.3999L1541.4439 2877.8673C1532.7556 2886.569 1524.0814 2892.6295 1512.9221 2897.7943 1488.9813 2908.8436 1461.4725 2909.7645 1436.979 2900.707 1422.9588 2895.5093 1412.0305 2888.4906 1401.4722 2877.9027L64.97568 1541.4063C56.28221 1532.7327 50.23073 1524.0679 45.080575 1512.9197ZM94.11346 1490.2971C96.4611 1495.3544 99.21195 1499.2849 103.15945 1503.2224L1439.709 2839.7723C1444.4664 2844.5428 1449.388 2847.7078 1455.7025 2850.057 1466.8253 2854.1683 1479.473 2853.761 1490.2855 2848.7679 1495.3606 2846.4068 1499.3056 2843.6448 1503.26 2839.6834L2839.7806 1503.163C2844.5513 1498.4057 2847.716 1493.4841 2850.0655 1487.1696 2854.1768 1476.0468 2853.7694 1463.399 2848.7762 1452.5866 2846.4154 1447.5114 2843.653 1443.5665 2839.692 1439.612L1503.1715 103.09148C1498.4141 98.3208 1493.4926 95.155979 1487.178 92.80672 1476.0552 88.6954 1463.4075 89.10268 1452.595 94.095859 1447.5199 96.45681 1443.575 99.21887 1439.6205 103.1802L103.099918 1439.7006C98.32923 1444.458 95.16441 1449.3795 92.815158 1455.694 90.6507 1461.5881 89.803188 1466.9476 90.04337 1473.2219 90.27742 1479.4291 91.52236 1484.6519 94.11346 1490.2971Z" fill-rule="evenodd"/>
<path transform="matrix(1,0,0,-1,0,2942.8636)" stroke-width=".25" stroke-linecap="butt" stroke-miterlimit="4" stroke-linejoin="miter" fill="none" stroke="#000000" d="M1375.9724 2903.323 39.540586 1566.8912C-13.180195 1514.1704-13.180195 1428.6932 39.540586 1375.9724L1375.9724 39.540586C1428.6932-13.180195 1514.1704-13.180195 1566.8912 39.540586L2903.323 1375.9724C2956.0438 1428.6932 2956.0438 1514.1704 2903.323 1566.8912L1566.8912 2903.323C1514.1704 2956.0438 1428.6932 2956.0438 1375.9724 2903.323Z"/>
<path transform="matrix(1,0,0,-1,0,2942.8636)" d="M1022.7552 1901.31C1022.7552 1877.8309 1018.574 1858.8546 1010.21157 1844.3812 1002.4924 1831.1943 991.4765 1820.3392 977.1639 1811.8159 962.85128 1803.2927 948.1366 1799.0311 933.0199 1799.0311 917.2599 1799.0311 902.0628 1803.2123 887.4285 1811.5747 872.79428 1819.9371 861.61758 1830.8727 853.8984 1844.3812 845.53598 1859.1763 841.35476 1878.1526 841.35476 1901.31V2128.0606H887.66976V1895.5206C887.66976 1880.0824 891.85098 1867.6995 900.21347 1858.3722 908.57589 1849.0448 919.51138 1844.3812 933.0199 1844.3812 945.56356 1844.3812 955.8557 1849.1253 963.89657 1858.6134 971.9373 1868.1016 975.95779 1880.4039 975.95779 1895.5206V2128.0606H1022.7552V1901.31Z"/>
<path transform="matrix(1,0,0,-1,0,2942.8636)" d="M1221.5238 2084.6405H1162.6652V1804.8204H1115.8677V2084.6405H1057.009V2128.0606H1221.5238V2084.6405Z"/>
<path transform="matrix(1,0,0,-1,0,2942.8636)" d="M1318.4959 1804.8204H1273.1456V2128.0606H1318.4959V1804.8204Z"/>
<path transform="matrix(1,0,0,-1,0,2942.8636)" d="M1547.1762 1804.8204H1382.6614V2128.0606H1428.9765V1850.1705H1547.1762V1804.8204Z"/>
<path transform="matrix(1,0,0,-1,0,2942.8636)" d="M1656.2094 1804.8204H1610.8593V2128.0606H1656.2094V1804.8204Z"/>
<path transform="matrix(1,0,0,-1,0,2942.8636)" d="M1872.8285 2084.6405H1813.9699V1804.8204H1767.1724V2084.6405H1708.3137V2128.0606H1872.8285V2084.6405Z"/>
<path transform="matrix(1,0,0,-1,0,2942.8636)" d="M2101.5089 2128.0606 2020.9401 1951.0022V1804.8204H1974.625V1951.0022L1895.0211 2128.0606H1943.7484L1998.265 2011.3082 2051.3343 2128.0606H2101.5089Z"/>
<path transform="matrix(1,0,0,-1,0,2942.8636)" d="M1251.1943 1598.3328 1199.09 1275.0925H1159.0468L1128.6525 1443.9494 1097.7759 1275.0925H1057.2503L1006.1107 1598.3328H1051.4608L1078.9603 1426.0988 1110.3195 1598.3328H1146.9856L1177.3798 1426.0988 1205.8442 1598.3328H1251.1943Z"/>
<path transform="matrix(1,0,0,-1,0,2942.8636)" d="M1371.8063 1269.3032C1338.6782 1269.3032 1314.395 1283.2138 1298.9567 1311.0349 1283.5183 1338.8561 1275.7992 1380.7487 1275.7992 1436.7127 1275.7992 1492.0333 1283.5183 1533.6847 1298.9567 1561.6668 1314.395 1589.6487 1338.6782 1603.6397 1371.8063 1603.6397 1404.9345 1603.6397 1429.2177 1589.6487 1444.656 1561.6668 1460.0942 1533.6847 1467.8135 1492.0333 1467.8135 1436.7127 1467.8135 1380.7487 1460.0942 1338.8561 1444.656 1311.0349 1429.2177 1283.2138 1404.9345 1269.3032 1371.8063 1269.3032ZM1371.8063 1314.6533C1389.4961 1314.3317 1402.2006 1324.1415 1409.9197 1344.0827 1417.6389 1364.0238 1421.4984 1395.2222 1421.4984 1437.6776 1421.4984 1479.4898 1417.6389 1510.0448 1409.9197 1529.3427 1402.2006 1548.6406 1389.4961 1558.2896 1371.8063 1558.2896 1354.1166 1558.2896 1341.4121 1548.6406 1333.6929 1529.3427 1325.9738 1510.0448 1322.1141 1479.4898 1322.1141 1437.6776 1322.1141 1395.2222 1325.9738 1364.0238 1333.6929 1344.0827 1341.4121 1324.1415 1354.1166 1314.3317 1371.8063 1314.6533Z"/>
<path transform="matrix(1,0,0,-1,0,2942.8636)" d="M1689.7395 1275.0925H1641.9772L1599.0393 1427.0637H1554.654V1275.0925H1508.3391V1598.3328H1604.8287C1630.2376 1598.3328 1650.7417 1590.4528 1666.3408 1574.6928 1681.94 1558.9329 1689.7395 1538.0267 1689.7395 1511.9746 1689.7395 1494.9281 1685.4779 1478.9269 1676.9546 1463.971 1668.4314 1449.0151 1657.0939 1438.9641 1642.942 1433.818L1689.7395 1275.0925ZM1644.3894 1513.4219C1644.3894 1525.6439 1640.5298 1535.2929 1632.8107 1542.3688 1625.0914 1549.4447 1614.9601 1552.9827 1602.4164 1552.9827H1554.654V1473.3787H1602.4164C1613.9953 1473.3787 1623.8854 1477.2383 1632.087 1484.9575 1640.2886 1492.6766 1644.3894 1502.1648 1644.3894 1513.4219Z"/>
<path transform="matrix(1,0,0,-1,0,2942.8636)" d="M1914.0779 1275.0925H1865.3506L1808.4218 1432.853 1778.9924 1383.1609V1275.0925H1732.6774V1598.3328H1778.9924V1469.0366L1854.7367 1598.3328H1905.8762L1839.2984 1484.9575 1914.0779 1275.0925Z"/>
<path transform="matrix(1,0,0,-1,0,2942.8636)" d="M1124.5518 745.36477H1077.7543L1055.0792 833.6527H986.0892L964.37899 745.36477H918.06399L998.6328 1068.6049H1043.9829L1124.5518 745.36477ZM1043.9829 879.0028 1020.34298 972.1153 997.6679 879.0028H1043.9829Z"/>
<path transform="matrix(1,0,0,-1,0,2942.8636)" d="M1335.8639 745.36477H1289.0665V891.54647H1200.7785V745.36477H1154.4635V1068.6049H1200.7785V936.89657H1289.0665V1068.6049H1335.8639V745.36477Z"/>
<path transform="matrix(1,0,0,-1,0,2942.8636)" d="M1549.5884 745.36477H1385.0736V1068.6049H1537.0448V1023.25479H1431.3887V941.72109H1498.4489V897.3358H1431.3887V790.71487H1549.5884V745.36477Z"/>
<path transform="matrix(1,0,0,-1,0,2942.8636)" d="M1792.7422 745.36477H1745.9447L1723.2697 833.6527H1654.2796L1632.5695 745.36477H1586.2544L1666.8233 1068.6049H1712.1734L1792.7422 745.36477ZM1712.1734 879.0028 1688.5335 972.1153 1665.8584 879.0028H1712.1734Z"/>
<path transform="matrix(1,0,0,-1,0,2942.8636)" d="M2001.6421 906.9848C2001.6421 854.88046 1993.1994 814.9176 1976.3136 787.0965 1959.428 759.27529 1934.421 745.36477 1901.293 745.36477H1821.2066V1068.6049H1901.293C1934.421 1068.6049 1959.428 1054.6942 1976.3136 1026.8732 1993.1994 999.05197 2001.6421 959.0892 2001.6421 906.9848ZM1956.7745 907.9497C1956.7745 948.79696 1951.548 978.3067 1941.095 996.4789 1930.6419 1014.65109 1916.7313 1023.7372 1899.3632 1023.7372H1866.0742V907.4672 791.19729H1899.3632C1916.7313 791.19729 1930.6419 800.2834 1941.095 818.45559 1951.548 836.6278 1956.7745 866.45919 1956.7745 907.9497Z"/>
</g>
</svg>
