<svg xmlns="http://www.w3.org/2000/svg" xmlns:xlink="http://www.w3.org/1999/xlink" xmlns:inkscape="http://www.inkscape.org/namespaces/inkscape" version="1.1" width="1118.1461" height="763.20217" viewBox="0 0 1118.1461 763.20217">
<g inkscape:groupmode="layer" inkscape:label="Layer 1">
<path transform="matrix(1,0,0,-1,0,763.20217)" d="M146.57038 763.05697H247.13906L151.28899 680.3051 50.718034 680.3545 146.57038 763.05697Z" fill="#ec4d07" fill-rule="evenodd"/>
<path transform="matrix(1,0,0,-1,0,763.20217)" d="M238.47495 680.1517 176.54167 680.16177 271.9716 763.05697 500.21064 762.9833 409.34266 680.12399 325.71708 680.1376 258.07627 476.36247H169.96952L238.47495 680.1517Z" fill="#1d1c1c" fill-rule="evenodd"/>
<path transform="matrix(1,0,0,-1,0,763.20217)" d="M403.01853 656.1608 522.66946 763.20217 742.02 763.19107 763.93429 728.9094 736.59579 645.37509 701.8801 619.1214 720.10586 592.2168 694.937 515.40859 644.1655 476.35356 343.64784 476.48469 403.01853 656.1608ZM629.7088 584.0187H464.92756L452.42185 545.0302H617.20309L629.7088 584.0187ZM663.18 689.5816H498.39875L485.89305 650.5932H650.67428L663.18 689.5816Z" fill="#1d1c1c" fill-rule="evenodd"/>
<path transform="matrix(1,0,0,-1,0,763.20217)" d="M238.47495 680.1517 169.96952 476.36247H258.07627L325.71708 680.1376 409.34266 680.12399 500.21064 762.9833 271.9716 763.05697 176.54167 680.16177 238.47495 680.1517ZM481.63557 755.78927 406.55329 687.32449 320.52104 687.3384 252.87993 483.56245H179.98578L248.49066 687.3501 195.806 687.35867 274.66108 755.8561 481.63557 755.78927Z" fill="#ec4d07" fill-rule="evenodd"/>
<path transform="matrix(1,0,0,-1,0,763.20217)" d="M403.01853 656.1608 343.64784 476.48469 644.1655 476.35356 694.937 515.40859 720.10586 592.2168 701.8801 619.1214 736.59579 645.37509 763.93429 728.9094 742.02 763.19107 522.66946 763.20217 403.01853 656.1608ZM409.25184 652.07656 525.41989 756.002 738.0771 755.9913 756.03018 727.90628 730.4543 649.7576 692.08609 620.74166 712.16409 591.10269 688.7866 519.7612 641.718 483.55464 353.60838 483.68037 409.25184 652.07656Z" fill="#ec4d07" fill-rule="evenodd"/>
<path transform="matrix(1,0,0,-1,0,763.20217)" d="M639.5795 591.2186H459.6757L442.5511 537.83029H622.45498L639.5795 591.2186ZM629.7088 584.0187 617.20309 545.0302H452.42185L464.92756 584.0187H629.7088Z" fill="#ec4d07" fill-rule="evenodd"/>
<path transform="matrix(1,0,0,-1,0,763.20217)" d="M673.0507 696.7816H493.14689L476.02229 643.3932H655.92617L673.0507 696.7816ZM663.18 689.5816 650.67428 650.5932H485.89305L498.39875 689.5816H663.18Z" fill="#ec4d07" fill-rule="evenodd"/>
<path transform="matrix(1,0,0,-1,0,763.20217)" d="M832.4537 650.8626H982.2623L1014.1301 609.762 981.9645 512.0737 933.3079 476.5128 671.4444 476.40705 760.24569 544.72567H917.77877L930.84249 583.9168H781.5062L749.23117 625.4133 782.787 729.41079 829.1504 762.9666H1073.7749L987.4519 689.4512 844.3669 689.58059 832.4537 650.8626Z" fill="#ec4d07" fill-rule="evenodd"/>
<path transform="matrix(1,0,0,-1,0,763.20217)" d="M94.12396 381.9204V392.58076H29.721083V381.9204H55.925325V329.03547H67.91972V381.9204H94.12396Z" fill="#1d1c1c"/>
<path transform="matrix(1,0,0,-1,0,763.20217)" d="M163.39846 380.87153C163.43415 384.52503 162.5298 387.38105 160.68543 389.43955 158.84105 391.49806 155.84246 392.5451 151.68964 392.58076H104.426998V329.03547H116.42139V353.90568H127.573848L153.02234 329.03547H168.6393L143.30167 353.90568H151.30857C155.14421 353.86799 158.11118 354.77626 160.20943 356.63053 162.30768 358.4848 163.37068 361.51139 163.39846 365.7103V380.87153ZM151.40406 368.47557C151.43582 367.14457 151.1816 366.15925 150.6414 365.5196 150.10121 364.8799 149.08443 364.56208 147.59108 364.56605H116.42139V381.9204H147.59108C149.20954 381.92439 150.26206 381.55885 150.74864 380.82383 151.23522 380.0888 151.45369 378.96049 151.40406 377.43879V368.47557Z" fill="#1d1c1c"/>
<path transform="matrix(1,0,0,-1,0,763.20217)" d="M245.0604 329.03547 213.62059 392.58079H202.3783L170.17581 329.03547H183.03775L189.80219 342.5664H225.05342L231.72257 329.03547H245.0604ZM220.76612 352.7503H194.0895L207.52307 380.58638 220.76612 352.7503Z" fill="#1d1c1c"/>
<path transform="matrix(1,0,0,-1,0,763.20217)" d="M307.6647 381.9204V392.58076H253.64824V329.03547H265.64265V356.1926H294.0385V366.85298H265.64265V381.9204H307.6647Z" fill="#1d1c1c"/>
<path transform="matrix(1,0,0,-1,0,763.20217)" d="M371.98423 381.9204V392.58076H317.96775V329.03547H329.96214V356.1926H358.358V366.85298H329.96214V381.9204H371.98423Z" fill="#1d1c1c"/>
<path transform="matrix(1,0,0,-1,0,763.20217)" d="M394.28166 392.58079H382.28724V329.03547H394.28166V392.58079Z" fill="#1d1c1c"/>
<path transform="matrix(1,0,0,-1,0,763.20217)" d="M473.56138 351.3242 461.567 353.4211V339.69584H425.5367C424.8397 339.68989 424.375 339.82096 424.14268 340.08903 423.91035 340.3571 423.8031 340.7979 423.82096 341.4115V380.0138C423.81898 380.63536 423.96595 381.108 424.2618 381.43177 424.5577 381.75553 425.01445 381.9184 425.63203 381.9204H461.567V368.86204L473.56138 370.95893V380.681C473.54554 384.55073 472.53013 387.498 470.5152 389.5228 468.50025 391.5476 465.581 392.56694 461.7574 392.58076H423.63059C415.74537 392.56526 411.8107 388.59867 411.82658 380.681V340.7443C411.8603 337.04936 412.91139 334.18159 414.97987 332.14097 417.04835 330.10035 419.93193 329.0652 423.63059 329.0355H461.7574C465.4144 329.04734 468.28608 330.0468 470.3724 332.03388 472.4587 334.02098 473.52174 336.92445 473.56138 340.7443V351.3242Z" fill="#1d1c1c"/>
<path transform="matrix(1,0,0,-1,0,763.20217)" d="M588.0977 329.0355 570.8506 345.8914 583.3333 358.28205 576.4726 365.04927 563.8051 352.6586 539.59609 376.39149V382.11027C539.5861 382.80726 539.7252 383.27195 540.01327 383.50437 540.3013 383.73677 540.79788 383.84403 541.50308 383.82618H557.9986V373.81806L569.51657 376.01026V382.3962C569.5562 386.3188 568.83438 389.0157 567.35098 390.48695 565.8676 391.95823 563.3847 392.65617 559.9024 392.58076H536.9307C534.1048 392.6422 531.9273 392.11488 530.3984 390.99876 528.8694 389.88264 528.09597 387.80897 528.0781 384.77775V375.8196C528.08407 374.46937 528.40536 373.2859 529.04196 372.26924 529.67849 371.25254 530.59469 370.21205 531.7905 369.1477L533.97988 367.05085 522.7381 357.42424C521.70889 356.61607 520.8403 355.68278 520.1323 354.62443 519.4243 353.56605 519.0555 352.37068 519.02578 351.03828V340.1726C518.9583 335.91868 519.80709 332.97966 521.57217 331.35557 523.33718 329.73149 526.423 328.9581 530.8297 329.0355H549.51419C552.3244 329.17823 554.80648 330.24894 556.96029 332.2476 559.114 334.24623 561.237 336.31623 563.3292 338.45765L572.8516 329.0355H588.0977ZM556.2825 345.12889 549.7048 338.93354H532.1643C531.638 338.93156 531.2368 339.05467 530.96078 339.30287 530.6847 339.5511 530.54568 339.9363 530.5437 340.45854V350.27577L541.02987 360.28364 556.2825 345.12889Z" fill="#1d1c1c"/>
<path transform="matrix(1,0,0,-1,0,763.20217)" d="M689.96078 353.14085C689.9211 355.22209 689.5245 356.87376 688.7709 358.09584 688.0172 359.31794 687.14468 360.20649 686.153 360.76148 685.00997 361.4118 683.7721 361.82423 682.4395 361.9987 683.566 362.2049 684.64486 362.64903 685.67617 363.3311 686.52297 363.88414 687.2805 364.753 687.94888 365.93769 688.6172 367.12239 688.9702 368.73088 689.0079 370.76313V380.20387C689.0714 384.09407 688.08767 387.121 686.0567 389.28474 684.02578 391.44847 680.5666 392.54713 675.6792 392.58076H630.4176V329.0355H677.6799C682.3983 329.10087 685.6471 330.25505 687.42617 332.49809 689.20516 334.7411 690.05007 337.68074 689.96078 341.317V353.14085ZM677.9664 343.3194C678.0041 341.95069 677.73806 340.96934 677.1681 340.37538 676.59817 339.7814 675.498 339.49137 673.8676 339.50526H642.412V356.76435H673.8676C675.498 356.78819 676.59817 356.5021 677.1681 355.90614 677.73806 355.31013 678.0041 354.26124 677.9664 352.7594V343.3194ZM677.0135 370.09559C677.0274 368.77247 676.7137 367.81886 676.0723 367.23478 675.43099 366.6507 674.3785 366.3646 672.9149 366.37654H642.412V382.111H673.0102C674.63668 382.12687 675.7209 381.80903 676.26296 381.1574 676.80508 380.5058 677.05526 379.42506 677.0135 377.9152V370.09559Z" fill="#1d1c1c"/>
<path transform="matrix(1,0,0,-1,0,763.20217)" d="M771.90859 329.03547 740.46878 392.58079H729.2265L697.024 329.03547H709.8859L716.6504 342.5664H751.9016L758.57077 329.03547H771.90859ZM747.6143 352.7503H720.9377L734.3713 380.58638 747.6143 352.7503Z" fill="#1d1c1c"/>
<path transform="matrix(1,0,0,-1,0,763.20217)" d="M839.4679 380.87153C839.5036 384.52503 838.59927 387.38105 836.7549 389.43955 834.91049 391.49806 831.91189 392.5451 827.7591 392.58076H780.49649V329.03547H792.49087V353.90568H803.6433L829.0918 329.03547H844.70877L819.3711 353.90568H827.378C831.2136 353.86799 834.1806 354.77626 836.2789 356.63053 838.37716 358.4848 839.4401 361.51139 839.4679 365.7103V380.87153ZM827.4735 368.47557C827.50527 367.14457 827.25106 366.15925 826.7108 365.5196 826.17068 364.8799 825.1539 364.56208 823.6605 364.56605H792.49087V381.9204H823.6605C825.279 381.92439 826.3315 381.55885 826.81808 380.82383 827.3047 380.0888 827.52316 378.96049 827.4735 377.43879V368.47557Z" fill="#1d1c1c"/>
<path transform="matrix(1,0,0,-1,0,763.20217)" d="M914.55496 380.87153C914.59066 384.52503 913.6863 387.38105 911.8419 389.43955 909.99758 391.49806 906.99899 392.5451 902.8461 392.58076H855.5835V329.03547H867.5779V353.90568H878.73037L904.17886 329.03547H919.7958L894.4582 353.90568H902.4651C906.3007 353.86799 909.2677 354.77626 911.3659 356.63053 913.4642 358.4848 914.52719 361.51139 914.55496 365.7103V380.87153ZM902.56057 368.47557C902.59237 367.14457 902.3381 366.15925 901.7979 365.5196 901.2577 364.8799 900.2409 364.56208 898.74758 364.56605H867.5779V381.9204H898.74758C900.366 381.92439 901.4186 381.55885 901.90518 380.82383 902.3917 380.0888 902.61019 378.96049 902.56057 377.43879V368.47557Z" fill="#1d1c1c"/>
<path transform="matrix(1,0,0,-1,0,763.20217)" d="M942.665 392.58079H930.67056V329.03547H942.665V392.58079Z" fill="#1d1c1c"/>
<path transform="matrix(1,0,0,-1,0,763.20217)" d="M1016.13217 329.0355V339.69584H972.58547V356.38319H1000.7907V366.85298H972.58547V381.9204H1015.56039V392.58076H960.59109V329.0355H1016.13217Z" fill="#1d1c1c"/>
<path transform="matrix(1,0,0,-1,0,763.20217)" d="M1089.4087 380.87153C1089.4445 384.52503 1088.54 387.38105 1086.6957 389.43955 1084.8513 391.49806 1081.8527 392.5451 1077.6998 392.58076H1030.4373V329.03547H1042.4317V353.90568H1053.5841L1079.0326 329.03547H1094.6495L1069.3119 353.90568H1077.3189C1081.1544 353.86799 1084.1215 354.77626 1086.2197 356.63053 1088.318 358.4848 1089.381 361.51139 1089.4087 365.7103V380.87153ZM1077.4143 368.47557C1077.446 367.14457 1077.1919 366.15925 1076.6516 365.5196 1076.1115 364.8799 1075.0947 364.56208 1073.6013 364.56605H1042.4317V381.9204H1073.6013C1075.2199 381.92439 1076.2723 381.55885 1076.7589 380.82383 1077.2455 380.0888 1077.464 378.96049 1077.4143 377.43879V368.47557Z" fill="#1d1c1c"/>
<path transform="matrix(1,0,0,-1,0,763.20217)" d="M313.19145 247.18267C313.2152 250.81589 312.31089 253.5923 310.4784 255.51189 308.64595 257.4315 305.74253 258.3992 301.7682 258.41505H267.16783C266.4708 258.41108 266.0061 258.5382 265.77378 258.7965 265.5414 259.05479 265.43418 259.46803 265.45207 260.0362V272.05186C265.45603 272.75318 265.6149 273.23393 265.92866 273.49418 266.24244 273.7544 266.68727 273.87757 267.26316 273.86366H300.8159V266.52085L312.81028 268.71418V273.0055C312.9114 276.65089 312.11418 279.47508 310.41853 281.478 308.7229 283.48094 305.522 284.49629 300.8159 284.524H265.0713C261.21397 284.5954 258.3145 283.78633 256.37297 282.0967 254.43141 280.40708 253.45964 277.40849 253.45766 273.10084V258.7965C253.41403 255.29225 254.28664 252.56745 256.0755 250.62206 257.86433 248.67668 260.8312 247.68914 264.9761 247.6594H299.38587C300.60917 247.65941 301.2129 247.08728 301.19703 245.94298V233.35555C301.19505 232.78339 301.056 232.35427 300.77998 232.06819 300.5039 231.78212 300.10276 231.63907 299.5765 231.63907H264.3086V239.17247L252.21892 236.9792V232.11588C252.20107 228.61157 253.11731 225.88674 254.96764 223.94136 256.81797 221.99599 259.70948 221.00844 263.64216 220.97872H301.4826C306.01026 221.01238 309.11595 222.06343 310.79969 224.13188 312.48344 226.20032 313.28068 229.08417 313.19145 232.78339V247.18267Z" fill="#1d1c1c"/>
<path transform="matrix(1,0,0,-1,0,763.20217)" d="M393.7099 269.38356C393.81303 274.05656 393.0356 277.73487 391.37763 280.41847 389.71965 283.10209 386.56239 284.47059 381.90583 284.524H340.73008C336.45628 284.47257 333.43785 283.1239 331.67478 280.478 329.9117 277.8321 329.05894 274.19749 329.11647 269.5742V236.02353C329.09465 230.7301 330.0188 226.88932 331.88899 224.5012 333.75914 222.1131 336.70619 220.93894 340.73008 220.97872H382.001C386.19548 221.04006 389.206 222.41649 391.03254 225.10799 392.8591 227.7995 393.75157 231.438 393.7099 236.02353V269.38356ZM379.80906 273.86366C380.42665 273.86164 380.8834 273.69877 381.1793 273.375 381.47523 273.05125 381.6222 272.57859 381.62025 271.95704V233.35474C381.6381 232.74115 381.53083 232.30033 381.29847 232.03224 381.06608 231.76418 380.60139 231.63312 379.90437 231.63907H342.82655C342.12956 231.63312 341.6649 231.76418 341.43257 232.03224 341.2002 232.30033 341.093 232.74115 341.11085 233.35474V271.95704C341.11283 272.57859 341.27568 273.05125 341.59934 273.375 341.92304 273.69877 342.39564 273.86164 343.01719 273.86366H379.80906Z" fill="#1d1c1c"/>
<path transform="matrix(1,0,0,-1,0,763.20217)" d="M464.31843 220.97872V231.63907H423.24925V284.524H411.25486V220.97872H464.31843Z" fill="#1d1c1c"/>
<path transform="matrix(1,0,0,-1,0,763.20217)" d="M535.594 284.524H523.5043V233.35427C523.52218 232.65747 523.415 232.19293 523.1827 231.96068 522.9504 231.72841 522.4857 231.62122 521.78878 231.63907H487.56935C486.95173 231.62122 486.495 231.72841 486.19914 231.96068 485.90324 232.19293 485.7563 232.65747 485.75828 233.35427V284.524H473.76387V232.59195C473.80949 228.7346 474.88438 225.83522 476.98857 223.8938 479.09275 221.95236 481.9525 220.98067 485.56788 220.97872H523.8851C527.7047 221.01834 530.60818 222.08127 532.59536 224.16747 534.5825 226.25366 535.5821 229.12537 535.594 232.78253V284.524Z" fill="#1d1c1c"/>
<path transform="matrix(1,0,0,-1,0,763.20217)" d="M609.8234 273.86366V284.524H545.42056V273.86366H571.6248V220.97872H583.6192V273.86366H609.8234Z" fill="#1d1c1c"/>
<path transform="matrix(1,0,0,-1,0,763.20217)" d="M632.12088 284.524H620.12649V220.97872H632.12088V284.524Z" fill="#1d1c1c"/>
<path transform="matrix(1,0,0,-1,0,763.20217)" d="M714.2593 269.38356C714.36239 274.05656 713.58499 277.73487 711.92697 280.41847 710.269 283.10209 707.1117 284.47059 702.45516 284.524H661.2794C657.0056 284.47257 653.9872 283.1239 652.2241 280.478 650.46109 277.8321 649.6083 274.19749 649.6658 269.5742V236.02353C649.644 230.7301 650.5682 226.88932 652.4383 224.5012 654.3085 222.1131 657.2555 220.93894 661.2794 220.97872H702.55038C706.7448 221.04006 709.7553 222.41649 711.5819 225.10799 713.40847 227.7995 714.3009 231.438 714.2593 236.02353V269.38356ZM700.3584 273.86366C700.97598 273.86164 701.43276 273.69877 701.72866 273.375 702.0246 273.05125 702.1716 272.57859 702.16958 271.95704V233.35474C702.18746 232.74115 702.0802 232.30033 701.8478 232.03224 701.6154 231.76418 701.1507 231.63312 700.45376 231.63907H663.37588C662.6789 231.63312 662.21426 231.76418 661.9819 232.03224 661.7496 232.30033 661.64236 232.74115 661.6602 233.35474V271.95704C661.6622 272.57859 661.825 273.05125 662.1487 273.375 662.47238 273.69877 662.94497 273.86164 663.5665 273.86366H700.3584Z" fill="#1d1c1c"/>
<path transform="matrix(1,0,0,-1,0,763.20217)" d="M795.54006 220.97872V284.524H784.308V237.93689L742.5603 284.524H731.7089V220.97872H742.941V267.47084L784.7839 220.97872H795.54006Z" fill="#1d1c1c"/>
<path transform="matrix(1,0,0,-1,0,763.20217)" d="M872.43759 247.18267C872.46139 250.81589 871.55709 253.5923 869.72457 255.51189 867.8921 257.4315 864.9887 258.3992 861.01437 258.41505H826.414C825.717 258.41108 825.25228 258.5382 825.01998 258.7965 824.7876 259.05479 824.68038 259.46803 824.69827 260.0362V272.05186C824.7022 272.75318 824.8611 273.23393 825.1748 273.49418 825.4886 273.7544 825.9334 273.87757 826.5093 273.86366H860.062V266.52085L872.05648 268.71418V273.0055C872.1576 276.65089 871.36038 279.47508 869.6647 281.478 867.96908 283.48094 864.7682 284.49629 860.062 284.524H824.31747C820.46017 284.5954 817.56069 283.78633 815.61917 282.0967 813.67758 280.40708 812.7058 277.40849 812.7038 273.10084V258.7965C812.6602 255.29225 813.5328 252.56745 815.32168 250.62206 817.1105 248.67668 820.0774 247.68914 824.2222 247.6594H858.632C859.85537 247.65941 860.45907 247.08728 860.4432 245.94298V233.35555C860.4412 232.78339 860.3022 232.35427 860.0261 232.06819 859.75009 231.78212 859.34896 231.63907 858.8227 231.63907H823.55477V239.17247L811.4651 236.9792V232.11588C811.4472 228.61157 812.36349 225.88674 814.2138 223.94136 816.06417 221.99599 818.9556 221.00844 822.8883 220.97872H860.72879C865.2564 221.01238 868.3621 222.06343 870.04586 224.13188 871.72958 226.20032 872.52688 229.08417 872.43759 232.78339V247.18267Z" fill="#1d1c1c"/>
<path transform="matrix(1,0,0,-1,0,763.20217)" d="M553.99069 421.12886 999.01748 424.668 1041.9605 429.3669 554.02859 440.81819 553.54397 440.81797 65.621639 429.3669 108.56464 424.668 553.65219 421.12837 553.99069 421.12886Z" fill="#ec4d07" fill-rule="evenodd"/>
<path transform="matrix(1,0,0,-1,0,763.20217)" d="M1118.1461 247.4459 919.9804 242.3249V252.56691L1118.1461 247.4459Z" fill="#ec4d07" fill-rule="evenodd"/>
<path transform="matrix(1,0,0,-1,0,763.20217)" d="M0 247.4459 198.16574 242.3249V252.56691L0 247.4459Z" fill="#ec4d07" fill-rule="evenodd"/>
<path transform="matrix(1,0,0,-1,0,763.20217)" d="M569.5506 123.111598 575.6659 107.79363 562.86788 118.197818 550.18936 107.64831 556.1295 123.035037 542.17849 131.83304 558.6477 130.93837 562.704 146.92536 566.9424 130.98569 583.4004 132.06818 569.5506 123.111598Z" fill="#ec4d07" fill-rule="evenodd"/>
<path transform="matrix(1,0,0,-1,0,763.20217)" d="M562.6867 36.99483 607.5914 113.20086H652.1097L663.45059 127.77632H599.036L562.6195 64.28094 562.5434 64.15932 562.46578 64.28105 526.0494 127.77632H461.63484L472.97569 113.20086H517.494L562.383 37.021467 562.6867 36.99483Z" fill="#1d1c1c" fill-rule="evenodd"/>
<path transform="matrix(1,0,0,-1,0,763.20217)" d="M648.2691 106.94746H612.6661L603.5517 93.13349H639.1547L648.2691 106.94746Z" fill="#ec4d07" fill-rule="evenodd"/>
<path transform="matrix(1,0,0,-1,0,763.20217)" d="M630.56008 87.00977H600.1338L591.0194 73.1958H621.4457L630.56008 87.00977Z" fill="#ec4d07" fill-rule="evenodd"/>
<path transform="matrix(1,0,0,-1,0,763.20217)" d="M614.8037 66.50243H587.60159L578.4872 52.68846H605.68936L614.8037 66.50243Z" fill="#ec4d07" fill-rule="evenodd"/>
<path transform="matrix(1,0,0,-1,0,763.20217)" d="M477.98908 106.94746H513.5921L522.7065 93.13349H487.10346L477.98908 106.94746Z" fill="#ec4d07" fill-rule="evenodd"/>
<path transform="matrix(1,0,0,-1,0,763.20217)" d="M495.6981 87.00977H526.1244L535.2387 73.1958H504.81248L495.6981 87.00977Z" fill="#ec4d07" fill-rule="evenodd"/>
<path transform="matrix(1,0,0,-1,0,763.20217)" d="M511.45448 66.50243H538.6566L547.771 52.68846H520.56887L511.45448 66.50243Z" fill="#ec4d07" fill-rule="evenodd"/>
<path transform="matrix(1,0,0,-1,0,763.20217)" d="M810.72396 17.282994 745.48159 15.597V18.968985L810.72396 17.282994Z" fill="#ec4d07" fill-rule="evenodd"/>
<path transform="matrix(1,0,0,-1,0,763.20217)" d="M777.2553 5.846472 745.48159 4.16048V7.532465L777.2553 5.846472Z" fill="#ec4d07" fill-rule="evenodd"/>
<path transform="matrix(1,0,0,-1,0,763.20217)" d="M313.3565 17.282994 378.59889 15.597V18.968985L313.3565 17.282994Z" fill="#ec4d07" fill-rule="evenodd"/>
<path transform="matrix(1,0,0,-1,0,763.20217)" d="M346.82514 5.846472 378.59889 4.16048V7.532465L346.82514 5.846472Z" fill="#ec4d07" fill-rule="evenodd"/>
<path transform="matrix(1,0,0,-1,0,763.20217)" d="M418.2426 23.129466H413.45719L405.41215 5.063121 397.4364 23.129466H392.37358L403.26216 .000355H406.9726L418.2426 23.129466Z" fill="#1d1c1c"/>
<path transform="matrix(1,0,0,-1,0,763.20217)" d="M441.65354 .000356V3.880497H425.80348V9.954327H436.0696V13.765102H425.80348V19.249325H441.44544V23.129466H421.43778V.000356H441.65354Z" fill="#1d1c1c"/>
<path transform="matrix(1,0,0,-1,0,763.20217)" d="M467.49226 19.249325V23.129466H444.051V19.249325H453.58876V.000355H457.95448V19.249325H467.49226Z" fill="#1d1c1c"/>
<path transform="matrix(1,0,0,-1,0,763.20217)" d="M491.45808 .000356V3.880497H475.60804V9.954327H485.87416V13.765102H475.60804V19.249325H491.24998V23.129466H471.2423V.000356H491.45808Z" fill="#1d1c1c"/>
<path transform="matrix(1,0,0,-1,0,763.20217)" d="M518.12918 18.86755C518.14218 20.19735 517.813 21.236876 517.14169 21.986126 516.47036 22.735375 515.37899 23.116488 513.86746 23.129466H496.66484V.000355H501.03053V9.052573H505.08979L514.3525 .000355H520.03677L510.81437 9.052573H513.7287C515.1248 9.038844 516.2047 9.369438 516.96847 10.044356 517.7321 10.719273 518.1191 11.820886 518.12918 13.349194V18.86755ZM513.7635 14.355686C513.775 13.871239 513.6825 13.512604 513.4859 13.279781 513.28927 13.046957 512.9192 12.931268 512.3756 12.932714H501.03053V19.249325H512.3756C512.9647 19.250769 513.3478 19.117728 513.5249 18.850197 513.702 18.582667 513.78158 18.17197 513.7635 17.61811V14.355686Z" fill="#1d1c1c"/>
<path transform="matrix(1,0,0,-1,0,763.20217)" d="M547.85238 .000355 536.40896 23.129466H532.31698L520.59597 .000355H525.27749L527.73959 4.925317H540.57028L542.9977 .000355H547.85238ZM539.00979 8.632044H529.30007L534.1896 18.763764 539.00979 8.632044Z" fill="#1d1c1c"/>
<path transform="matrix(1,0,0,-1,0,763.20217)" d="M574.1766 .000355V23.129466H570.0884V6.172768L554.8931 23.129466H550.9434V.000355H555.0317V16.922476L570.2616 .000355H574.1766Z" fill="#1d1c1c"/>
<path transform="matrix(1,0,0,-1,0,763.20217)" d="M614.3046 17.618668C614.34219 19.319539 614.0592 20.658362 613.45578 21.635142 612.85226 22.61192 611.70309 23.110028 610.0082 23.129466H595.0211C593.4656 23.110747 592.3669 22.61986 591.72518 21.656805 591.0835 20.69375 590.7731 19.370833 590.794 17.688054V5.476345C590.7861 3.549648 591.12246 2.151688 591.80319 1.282467 592.4838 .413245 593.5565-.014125 595.0211 .000356H610.04287C611.5695 .022684 612.6653 .523674 613.33016 1.503324 613.99496 2.482974 614.31979 3.807314 614.3046 5.476345V17.618668ZM609.245 19.249325C609.4698 19.248595 609.63607 19.18931 609.7438 19.071467 609.8515 18.953625 609.90499 18.78159 609.90426 18.55536V4.504959C609.91079 4.281627 609.8717 4.121175 609.7871 4.023603 609.7026 3.926031 609.5334 3.878329 609.2797 3.880497H595.7842C595.5305 3.878329 595.3614 3.926031 595.2768 4.023603 595.19229 4.121175 595.1532 4.281627 595.1597 4.504959V18.55536C595.16049 18.78159 595.2197 18.953625 595.3375 19.071469 595.4553 19.18931 595.6273 19.248597 595.8536 19.249325H609.245Z" fill="#1d1c1c"/>
<path transform="matrix(1,0,0,-1,0,763.20217)" d="M650.7216 23.129466H646.1785L641.2543 6.519533 636.32998 23.129466H632.3073L627.3483 6.658238 622.45877 23.129466H617.4998L625.0943 .000355H629.11697L634.1106 16.055563 639.0002 .000355H643.0922L650.7216 23.129466Z" fill="#1d1c1c"/>
<path transform="matrix(1,0,0,-1,0,763.20217)" d="M677.25399 .000355V23.129466H673.1657V6.172768L657.97048 23.129466H654.0208V.000355H658.1091V16.922476L673.3389 .000355H677.25399Z" fill="#1d1c1c"/>
<path transform="matrix(1,0,0,-1,0,763.20217)" d="M703.99447 .000356V3.880497H688.14437V9.954327H698.41049V13.765102H688.14437V19.249325H703.7863V23.129466H683.7787V.000356H703.99447Z" fill="#1d1c1c"/>
<path transform="matrix(1,0,0,-1,0,763.20217)" d="M732.7118 18.55536C732.7118 19.943812 732.3306 21.048409 731.56838 21.869153 730.806 22.689896 729.66256 23.11 728.1379 23.129466H709.2012V.000356H727.99917C729.469 .001778 730.61837 .38868 731.4471 1.161062 732.27578 1.933443 732.6974 3.082768 732.7118 4.609036V18.55536ZM713.5669 19.249325H727.2012C727.6572 19.254378 727.95938 19.157509 728.10757 18.958718 728.25576 18.759926 728.32369 18.428883 728.3114 17.965592V4.990652C728.3266 4.580126 728.2702 4.291023 728.1423 4.123343 728.0143 3.955664 727.72378 3.874715 727.27059 3.880497H713.5669V19.249325Z" fill="#1d1c1c"/>
</g>
</svg>
