<svg xmlns="http://www.w3.org/2000/svg" xmlns:xlink="http://www.w3.org/1999/xlink" xmlns:inkscape="http://www.inkscape.org/namespaces/inkscape" version="1.1" width="1118.1461" height="542.2244" viewBox="0 0 1118.1461 542.2244">
<g inkscape:groupmode="layer" inkscape:label="Layer 1">
<path transform="matrix(1,0,0,-1,0,542.2244)" d="M146.57038 542.0792H247.13906L151.28899 459.3274 50.718034 459.37675 146.57038 542.0792Z" fill="#ec4d07" fill-rule="evenodd"/>
<path transform="matrix(1,0,0,-1,0,542.2244)" d="M238.47495 459.17396 176.54167 459.184 271.9716 542.0792 500.21064 542.00558 409.34266 459.14625 325.71708 459.15983 258.07627 255.3847H169.96952L238.47495 459.17396Z" fill="#1d1c1c" fill-rule="evenodd"/>
<path transform="matrix(1,0,0,-1,0,542.2244)" d="M403.01853 435.1831 522.66946 542.2244 742.02 542.2133 763.93429 507.93168 736.59579 424.3973 701.8801 398.14366 720.10586 371.23908 694.937 294.43086 644.1655 255.37581 343.64784 255.50696 403.01853 435.1831ZM629.7088 363.04093H464.92756L452.42185 324.05253H617.20309L629.7088 363.04093ZM663.18 468.6039H498.39875L485.89305 429.61549H650.67428L663.18 468.6039Z" fill="#1d1c1c" fill-rule="evenodd"/>
<path transform="matrix(1,0,0,-1,0,542.2244)" d="M238.47495 459.17396 169.96952 255.3847H258.07627L325.71708 459.15983 409.34266 459.14625 500.21064 542.00558 271.9716 542.0792 176.54167 459.184 238.47495 459.17396ZM481.63557 534.8115 406.55329 466.3467 320.52104 466.36067 252.87993 262.58473H179.98578L248.49066 466.37236 195.806 466.3809 274.66108 534.87838 481.63557 534.8115Z" fill="#ec4d07" fill-rule="evenodd"/>
<path transform="matrix(1,0,0,-1,0,542.2244)" d="M403.01853 435.1831 343.64784 255.50696 644.1655 255.37581 694.937 294.43086 720.10586 371.23908 701.8801 398.14366 736.59579 424.3973 763.93429 507.93168 742.02 542.2133 522.66946 542.2244 403.01853 435.1831ZM409.25184 431.0988 525.41989 535.0243 738.0771 535.0135 756.03018 506.9285 730.4543 428.77989 692.08609 399.76393 712.16409 370.12495 688.7866 298.7835 641.718 262.57688 353.60838 262.7026 409.25184 431.0988Z" fill="#ec4d07" fill-rule="evenodd"/>
<path transform="matrix(1,0,0,-1,0,542.2244)" d="M639.5795 370.24095H459.6757L442.5511 316.8525H622.45498L639.5795 370.24095ZM629.7088 363.04093 617.20309 324.05253H452.42185L464.92756 363.04093H629.7088Z" fill="#ec4d07" fill-rule="evenodd"/>
<path transform="matrix(1,0,0,-1,0,542.2244)" d="M673.0507 475.8039H493.14689L476.02229 422.4155H655.92617L673.0507 475.8039ZM663.18 468.6039 650.67428 429.61549H485.89305L498.39875 468.6039H663.18Z" fill="#ec4d07" fill-rule="evenodd"/>
<path transform="matrix(1,0,0,-1,0,542.2244)" d="M832.4537 429.88487H982.2623L1014.1301 388.7843 981.9645 291.09599 933.3079 255.53504 671.4444 255.42932 760.24569 323.7479H917.77877L930.84249 362.93907H781.5062L749.23117 404.43559 782.787 508.43305 829.1504 541.9889H1073.7749L987.4519 468.47346 844.3669 468.6028 832.4537 429.88487Z" fill="#ec4d07" fill-rule="evenodd"/>
<path transform="matrix(1,0,0,-1,0,542.2244)" d="M94.12396 160.94268V171.60303H29.721083V160.94268H55.925325V108.05774H67.91972V160.94268H94.12396Z" fill="#1d1c1c"/>
<path transform="matrix(1,0,0,-1,0,542.2244)" d="M163.39846 159.89377C163.43415 163.54729 162.5298 166.40329 160.68543 168.46179 158.84105 170.5203 155.84246 171.56739 151.68964 171.60303H104.426998V108.05774H116.42139V132.92795H127.573848L153.02234 108.05774H168.6393L143.30167 132.92795H151.30857C155.14421 132.89023 158.11118 133.79851 160.20943 135.65279 162.30768 137.50707 163.37068 140.53366 163.39846 144.73256V159.89377ZM151.40406 147.4978C151.43582 146.16683 151.1816 145.18152 150.6414 144.54186 150.10121 143.90219 149.08443 143.58434 147.59108 143.58832H116.42139V160.94268H147.59108C149.20954 160.94664 150.26206 160.58112 150.74864 159.8461 151.23522 159.11109 151.45369 157.98273 151.40406 156.46105V147.4978Z" fill="#1d1c1c"/>
<path transform="matrix(1,0,0,-1,0,542.2244)" d="M245.0604 108.05774 213.62059 171.60303H202.3783L170.17581 108.05774H183.03775L189.80219 121.58866H225.05342L231.72257 108.05774H245.0604ZM220.76612 131.77259H194.0895L207.52307 159.60863 220.76612 131.77259Z" fill="#1d1c1c"/>
<path transform="matrix(1,0,0,-1,0,542.2244)" d="M307.6647 160.94268V171.60303H253.64824V108.05774H265.64265V135.21486H294.0385V145.87523H265.64265V160.94268H307.6647Z" fill="#1d1c1c"/>
<path transform="matrix(1,0,0,-1,0,542.2244)" d="M371.98423 160.94268V171.60303H317.96775V108.05774H329.96214V135.21486H358.358V145.87523H329.96214V160.94268H371.98423Z" fill="#1d1c1c"/>
<path transform="matrix(1,0,0,-1,0,542.2244)" d="M394.28166 171.60303H382.28724V108.05774H394.28166V171.60303Z" fill="#1d1c1c"/>
<path transform="matrix(1,0,0,-1,0,542.2244)" d="M473.56138 130.34645 461.567 132.44336V118.7181H425.5367C424.8397 118.71215 424.375 118.84321 424.14268 119.111278 423.91035 119.37935 423.8031 119.820178 423.82096 120.43376V159.03606C423.81898 159.65761 423.96595 160.13027 424.2618 160.45403 424.5577 160.77779 425.01445 160.94068 425.63203 160.94268H461.567V147.8843L473.56138 149.9812V159.70326C473.54554 163.57299 472.53013 166.52027 470.5152 168.54506 468.50025 170.56987 465.581 171.58919 461.7574 171.60303H423.63059C415.74537 171.58751 411.8107 167.62093 411.82658 159.70326V119.76656C411.8603 116.071628 412.91139 113.20385 414.97987 111.16324 417.04835 109.12262 419.93193 108.087459 423.63059 108.05774H461.7574C465.4144 108.06961 468.28608 109.06908 470.3724 111.05615 472.4587 113.04323 473.52174 115.94669 473.56138 119.76656V130.34645Z" fill="#1d1c1c"/>
<path transform="matrix(1,0,0,-1,0,542.2244)" d="M588.0977 108.05774 570.8506 124.913639 583.3333 137.3043 576.4726 144.07152 563.8051 131.68085 539.59609 155.41376V161.13253C539.5861 161.82952 539.7252 162.2942 540.01327 162.52661 540.3013 162.75902 540.79788 162.86629 541.50308 162.84844H557.9986V152.8403L569.51657 155.0325V161.41847C569.5562 165.34104 568.83438 168.03795 567.35098 169.50922 565.8676 170.98049 563.3847 171.67842 559.9024 171.60303H536.9307C534.1048 171.66449 531.9273 171.13715 530.3984 170.02101 528.8694 168.90489 528.09597 166.83123 528.0781 163.80002V154.84188C528.08407 153.49161 528.40536 152.30815 529.04196 151.29148 529.67849 150.27481 530.59469 149.2343 531.7905 148.16999L533.97988 146.07309 522.7381 136.4465C521.70889 135.63832 520.8403 134.70505 520.1323 133.64669 519.4243 132.5883 519.0555 131.39293 519.02578 130.06053V119.19486C518.9583 114.940929 519.80709 112.00191 521.57217 110.37782 523.33718 108.75374 526.423 107.98038 530.8297 108.05774H549.51419C552.3244 108.2005 554.80648 109.2712 556.96029 111.269847 559.114 113.26848 561.237 115.3385 563.3292 117.4799L572.8516 108.05774H588.0977ZM556.2825 124.15114 549.7048 117.955799H532.1643C531.638 117.95381 531.2368 118.07693 530.96078 118.325138 530.6847 118.57335 530.54568 118.95857 530.5437 119.480808V129.29804L541.02987 139.30588 556.2825 124.15114Z" fill="#1d1c1c"/>
<path transform="matrix(1,0,0,-1,0,542.2244)" d="M689.96078 132.16309C689.9211 134.24434 689.5245 135.89601 688.7709 137.1181 688.0172 138.34018 687.14468 139.22873 686.153 139.78376 685.00997 140.43408 683.7721 140.84648 682.4395 141.02097 683.566 141.22718 684.64486 141.6713 685.67617 142.35335 686.52297 142.90639 687.2805 143.77526 687.94888 144.95995 688.6172 146.14464 688.9702 147.75312 689.0079 149.78539V159.2261C689.0714 163.11632 688.08767 166.14328 686.0567 168.307 684.02578 170.47072 680.5666 171.5694 675.6792 171.60303H630.4176V108.05774H677.6799C682.3983 108.123119 685.6471 109.27731 687.42617 111.52034 689.20516 113.76337 690.05007 116.703 689.96078 120.33925V132.16309ZM677.9664 122.341678C678.0041 120.972949 677.73806 119.9916 677.1681 119.39763 676.59817 118.80366 675.498 118.51362 673.8676 118.52753H642.412V135.78659H673.8676C675.498 135.81043 676.59817 135.52436 677.1681 134.92838 677.73806 134.3324 678.0041 133.2835 677.9664 131.78168V122.341678ZM677.0135 149.11786C677.0274 147.79473 676.7137 146.84113 676.0723 146.25704 675.43099 145.67295 674.3785 145.38687 672.9149 145.39879H642.412V161.13324H673.0102C674.63668 161.14914 675.7209 160.83129 676.26296 160.17967 676.80508 159.52808 677.05526 158.44733 677.0135 156.93746V149.11786Z" fill="#1d1c1c"/>
<path transform="matrix(1,0,0,-1,0,542.2244)" d="M771.90859 108.05774 740.46878 171.60303H729.2265L697.024 108.05774H709.8859L716.6504 121.58866H751.9016L758.57077 108.05774H771.90859ZM747.6143 131.77259H720.9377L734.3713 159.60863 747.6143 131.77259Z" fill="#1d1c1c"/>
<path transform="matrix(1,0,0,-1,0,542.2244)" d="M839.4679 159.89377C839.5036 163.54729 838.59927 166.40329 836.7549 168.46179 834.91049 170.5203 831.91189 171.56739 827.7591 171.60303H780.49649V108.05774H792.49087V132.92795H803.6433L829.0918 108.05774H844.70877L819.3711 132.92795H827.378C831.2136 132.89023 834.1806 133.79851 836.2789 135.65279 838.37716 137.50707 839.4401 140.53366 839.4679 144.73256V159.89377ZM827.4735 147.4978C827.50527 146.16683 827.25106 145.18152 826.7108 144.54186 826.17068 143.90219 825.1539 143.58434 823.6605 143.58832H792.49087V160.94268H823.6605C825.279 160.94664 826.3315 160.58112 826.81808 159.8461 827.3047 159.11109 827.52316 157.98273 827.4735 156.46105V147.4978Z" fill="#1d1c1c"/>
<path transform="matrix(1,0,0,-1,0,542.2244)" d="M914.55496 159.89377C914.59066 163.54729 913.6863 166.40329 911.8419 168.46179 909.99758 170.5203 906.99899 171.56739 902.8461 171.60303H855.5835V108.05774H867.5779V132.92795H878.73037L904.17886 108.05774H919.7958L894.4582 132.92795H902.4651C906.3007 132.89023 909.2677 133.79851 911.3659 135.65279 913.4642 137.50707 914.52719 140.53366 914.55496 144.73256V159.89377ZM902.56057 147.4978C902.59237 146.16683 902.3381 145.18152 901.7979 144.54186 901.2577 143.90219 900.2409 143.58434 898.74758 143.58832H867.5779V160.94268H898.74758C900.366 160.94664 901.4186 160.58112 901.90518 159.8461 902.3917 159.11109 902.61019 157.98273 902.56057 156.46105V147.4978Z" fill="#1d1c1c"/>
<path transform="matrix(1,0,0,-1,0,542.2244)" d="M942.665 171.60303H930.67056V108.05774H942.665V171.60303Z" fill="#1d1c1c"/>
<path transform="matrix(1,0,0,-1,0,542.2244)" d="M1016.13217 108.05774V118.7181H972.58547V135.40544H1000.7907V145.87523H972.58547V160.94268H1015.56039V171.60303H960.59109V108.05774H1016.13217Z" fill="#1d1c1c"/>
<path transform="matrix(1,0,0,-1,0,542.2244)" d="M1089.4087 159.89377C1089.4445 163.54729 1088.54 166.40329 1086.6957 168.46179 1084.8513 170.5203 1081.8527 171.56739 1077.6998 171.60303H1030.4373V108.05774H1042.4317V132.92795H1053.5841L1079.0326 108.05774H1094.6495L1069.3119 132.92795H1077.3189C1081.1544 132.89023 1084.1215 133.79851 1086.2197 135.65279 1088.318 137.50707 1089.381 140.53366 1089.4087 144.73256V159.89377ZM1077.4143 147.4978C1077.446 146.16683 1077.1919 145.18152 1076.6516 144.54186 1076.1115 143.90219 1075.0947 143.58434 1073.6013 143.58832H1042.4317V160.94268H1073.6013C1075.2199 160.94664 1076.2723 160.58112 1076.7589 159.8461 1077.2455 159.11109 1077.464 157.98273 1077.4143 156.46105V147.4978Z" fill="#1d1c1c"/>
<path transform="matrix(1,0,0,-1,0,542.2244)" d="M313.19145 26.204922C313.2152 29.838147 312.31089 32.61456 310.4784 34.534154 308.64595 36.45375 305.74253 37.421468 301.7682 37.43731H267.16783C266.4708 37.433336 266.0061 37.560487 265.77378 37.81876 265.5414 38.077035 265.43418 38.49027 265.45207 39.05847V51.07412C265.45603 51.775426 265.6149 52.256196 265.92866 52.516427 266.24244 52.776655 266.68727 52.899816 267.26316 52.885904H300.8159V45.543107L312.81028 47.73644V52.027746C312.9114 55.67315 312.11418 58.497323 310.41853 60.500265 308.7229 62.5032 305.522 63.518537 300.8159 63.546266H265.0713C261.21397 63.61768 258.3145 62.80858 256.37297 61.118967 254.43141 59.42935 253.45964 56.430734 253.45766 52.123106V37.81876C253.41403 34.314516 254.28664 31.589705 256.0755 29.644326 257.86433 27.698948 260.8312 26.711392 264.9761 26.68166H299.38587C300.60917 26.681679 301.2129 26.109543 301.19703 24.965249V12.377809C301.19505 11.805653 301.056 11.376535 300.77998 11.090456 300.5039 10.804378 300.10276 10.66134 299.5765 10.66134H264.3086V18.194733L252.21892 16.001467V11.138137C252.20107 7.633834 253.11731 4.908998 254.96764 2.963626 256.81797 1.018253 259.70948 .030705 263.64216 .000978H301.4826C306.01026 .034643 309.11595 1.085699 310.79969 3.154145 312.48344 5.22259 313.28068 8.106426 313.19145 11.805653V26.204922Z" fill="#1d1c1c"/>
<path transform="matrix(1,0,0,-1,0,542.2244)" d="M393.7099 48.40581C393.81303 53.07881 393.0356 56.75712 391.37763 59.440736 389.71965 62.12435 386.56239 63.492864 381.90583 63.546266H340.73008C336.45628 63.49484 333.43785 62.146169 331.67478 59.500257 329.9117 56.854345 329.05894 53.219739 329.11647 48.59644V15.045799C329.09465 9.75236 330.0188 5.911583 331.88899 3.52347 333.75914 1.135357 336.70619-.038806 340.73008 .000978H382.001C386.19548 .062323 389.206 1.438749 391.03254 4.130256 392.8591 6.821762 393.75157 10.460276 393.7099 15.045799V48.40581ZM379.80906 52.885904C380.42665 52.883905 380.8834 52.72102 381.1793 52.39726 381.47523 52.073495 381.6222 51.60084 381.62025 50.979299V12.376998C381.6381 11.763412 381.53083 11.322582 381.29847 11.054511 381.06608 10.78644 380.60139 10.655383 379.90437 10.66134H342.82655C342.12956 10.655383 341.6649 10.78644 341.43257 11.054513 341.2002 11.322583 341.093 11.763412 341.11085 12.376998V50.979299C341.11283 51.60084 341.27568 52.073495 341.59934 52.39726 341.92304 52.721025 342.39564 52.883905 343.01719 52.885904H379.80906Z" fill="#1d1c1c"/>
<path transform="matrix(1,0,0,-1,0,542.2244)" d="M464.31843 .000978V10.66134H423.24925V63.546266H411.25486V.000978H464.31843Z" fill="#1d1c1c"/>
<path transform="matrix(1,0,0,-1,0,542.2244)" d="M535.594 63.546266H523.5043V12.376527C523.52218 11.679732 523.415 11.215202 523.1827 10.982937 522.9504 10.750672 522.4857 10.643473 521.78878 10.66134H487.56935C486.95173 10.643473 486.495 10.750672 486.19914 10.982937 485.90324 11.215202 485.7563 11.679732 485.75828 12.376527V63.546266H473.76387V11.614221C473.80949 7.756869 474.88438 4.857481 476.98857 2.916057 479.09275 .974632 481.9525 .002939 485.56788 .000978H523.8851C527.7047 .04061 530.60818 1.103528 532.59536 3.189732 534.5825 5.275934 535.5821 8.147623 535.594 11.804798V63.546266Z" fill="#1d1c1c"/>
<path transform="matrix(1,0,0,-1,0,542.2244)" d="M609.8234 52.885904V63.546266H545.42056V52.885904H571.6248V.000976H583.6192V52.885904H609.8234Z" fill="#1d1c1c"/>
<path transform="matrix(1,0,0,-1,0,542.2244)" d="M632.12088 63.546266H620.12649V.000976H632.12088V63.546266Z" fill="#1d1c1c"/>
<path transform="matrix(1,0,0,-1,0,542.2244)" d="M714.2593 48.40581C714.36239 53.07881 713.58499 56.75712 711.92697 59.440736 710.269 62.12435 707.1117 63.492864 702.45516 63.546266H661.2794C657.0056 63.49484 653.9872 62.146169 652.2241 59.500257 650.46109 56.854345 649.6083 53.219739 649.6658 48.59644V15.045799C649.644 9.75236 650.5682 5.911583 652.4383 3.52347 654.3085 1.135357 657.2555-.038806 661.2794 .000978H702.55038C706.7448 .062323 709.7553 1.438749 711.5819 4.130256 713.40847 6.821762 714.3009 10.460276 714.2593 15.045799V48.40581ZM700.3584 52.885904C700.97598 52.883905 701.43276 52.72102 701.72866 52.39726 702.0246 52.073495 702.1716 51.60084 702.16958 50.979299V12.376998C702.18746 11.763412 702.0802 11.322582 701.8478 11.054511 701.6154 10.78644 701.1507 10.655383 700.45376 10.66134H663.37588C662.6789 10.655383 662.21426 10.78644 661.9819 11.054513 661.7496 11.322583 661.64236 11.763412 661.6602 12.376998V50.979299C661.6622 51.60084 661.825 52.073495 662.1487 52.39726 662.47238 52.721025 662.94497 52.883905 663.5665 52.885904H700.3584Z" fill="#1d1c1c"/>
<path transform="matrix(1,0,0,-1,0,542.2244)" d="M795.54006 .000976V63.546266H784.308V16.959162L742.5603 63.546266H731.7089V.000976H742.941V46.49308L784.7839 .000976H795.54006Z" fill="#1d1c1c"/>
<path transform="matrix(1,0,0,-1,0,542.2244)" d="M872.43759 26.204922C872.46139 29.838147 871.55709 32.61456 869.72457 34.534154 867.8921 36.45375 864.9887 37.421468 861.01437 37.43731H826.414C825.717 37.433336 825.25228 37.560487 825.01998 37.81876 824.7876 38.077035 824.68038 38.49027 824.69827 39.05847V51.07412C824.7022 51.775426 824.8611 52.256196 825.1748 52.516427 825.4886 52.776655 825.9334 52.899816 826.5093 52.885904H860.062V45.543107L872.05648 47.73644V52.027746C872.1576 55.67315 871.36038 58.497323 869.6647 60.500265 867.96908 62.5032 864.7682 63.518537 860.062 63.546266H824.31747C820.46017 63.61768 817.56069 62.80858 815.61917 61.118967 813.67758 59.42935 812.7058 56.430734 812.7038 52.123106V37.81876C812.6602 34.314516 813.5328 31.589705 815.32168 29.644326 817.1105 27.698948 820.0774 26.711392 824.2222 26.68166H858.632C859.85537 26.681679 860.45907 26.109543 860.4432 24.965249V12.377809C860.4412 11.805653 860.3022 11.376535 860.0261 11.090456 859.75009 10.804378 859.34896 10.66134 858.8227 10.66134H823.55477V18.194733L811.4651 16.001467V11.138137C811.4472 7.633834 812.36349 4.908998 814.2138 2.963626 816.06417 1.018253 818.9556 .030705 822.8883 .000978H860.72879C865.2564 .034643 868.3621 1.085699 870.04586 3.154145 871.72958 5.22259 872.52688 8.106426 872.43759 11.805653V26.204922Z" fill="#1d1c1c"/>
<path transform="matrix(1,0,0,-1,0,542.2244)" d="M553.99069 200.1511 999.01748 203.69025 1041.9605 208.38919 554.02859 219.84044 553.54397 219.84023 65.621639 208.38919 108.56464 203.69025 553.65219 200.15062 553.99069 200.1511Z" fill="#ec4d07" fill-rule="evenodd"/>
<path transform="matrix(1,0,0,-1,0,542.2244)" d="M1118.1461 26.46817 919.9804 21.347174V31.589167L1118.1461 26.46817Z" fill="#ec4d07" fill-rule="evenodd"/>
<path transform="matrix(1,0,0,-1,0,542.2244)" d="M0 26.46817 198.16574 21.347174V31.589167L0 26.46817Z" fill="#ec4d07" fill-rule="evenodd"/>
</g>
</svg>
