<svg xmlns="http://www.w3.org/2000/svg" xmlns:xlink="http://www.w3.org/1999/xlink" xmlns:inkscape="http://www.inkscape.org/namespaces/inkscape" version="1.1" width="497.36744" height="146.92536" viewBox="0 0 497.36744 146.92536">
<g inkscape:groupmode="layer" inkscape:label="Layer 1">
<path transform="matrix(1,0,0,-1,0,146.92536)" d="M256.1941 123.111598 262.3094 107.79363 249.51136 118.197818 236.83284 107.64831 242.773 123.035037 228.82195 131.83304 245.2912 130.93837 249.34749 146.92536 253.58589 130.98569 270.04386 132.06818 256.1941 123.111598Z" fill="#ec4d07" fill-rule="evenodd"/>
<path transform="matrix(1,0,0,-1,0,146.92536)" d="M249.3302 36.99483 294.23487 113.20086H338.75318L350.09407 127.77632H285.6795L249.26303 64.28094 249.18688 64.15932 249.10927 64.28105 212.69287 127.77632H148.27832L159.61919 113.20086H204.1375L249.02646 37.021467 249.3302 36.99483Z" fill="#ffffff" fill-rule="evenodd"/>
<path transform="matrix(1,0,0,-1,0,146.92536)" d="M334.91258 106.94746H299.30958L290.1952 93.13349H325.79823L334.91258 106.94746Z" fill="#ec4d07" fill-rule="evenodd"/>
<path transform="matrix(1,0,0,-1,0,146.92536)" d="M317.20356 87.00977H286.77729L277.66294 73.1958H308.0892L317.20356 87.00977Z" fill="#ec4d07" fill-rule="evenodd"/>
<path transform="matrix(1,0,0,-1,0,146.92536)" d="M301.4472 66.50243H274.24504L265.13066 52.68846H292.33283L301.4472 66.50243Z" fill="#ec4d07" fill-rule="evenodd"/>
<path transform="matrix(1,0,0,-1,0,146.92536)" d="M164.63259 106.94746H200.2356L209.34998 93.13349H173.74695L164.63259 106.94746Z" fill="#ec4d07" fill-rule="evenodd"/>
<path transform="matrix(1,0,0,-1,0,146.92536)" d="M182.3416 87.00977H212.76787L221.88224 73.1958H191.45597L182.3416 87.00977Z" fill="#ec4d07" fill-rule="evenodd"/>
<path transform="matrix(1,0,0,-1,0,146.92536)" d="M198.09795 66.50243H225.30013L234.41449 52.68846H207.21233L198.09795 66.50243Z" fill="#ec4d07" fill-rule="evenodd"/>
<path transform="matrix(1,0,0,-1,0,146.92536)" d="M497.36744 17.282994 432.12507 15.597V18.968985L497.36744 17.282994Z" fill="#ec4d07" fill-rule="evenodd"/>
<path transform="matrix(1,0,0,-1,0,146.92536)" d="M463.89878 5.846472 432.12507 4.16048V7.532465L463.89878 5.846472Z" fill="#ec4d07" fill-rule="evenodd"/>
<path transform="matrix(1,0,0,-1,0,146.92536)" d="M0 17.282994 65.24237 15.597V18.968985L0 17.282994Z" fill="#ec4d07" fill-rule="evenodd"/>
<path transform="matrix(1,0,0,-1,0,146.92536)" d="M33.46864 5.846472 65.24237 4.16048V7.532465L33.46864 5.846472Z" fill="#ec4d07" fill-rule="evenodd"/>
<path transform="matrix(1,0,0,-1,0,146.92536)" d="M104.88612 23.129466H100.100688L92.05562 5.063121 84.07991 23.129466H79.01707L89.90565 .000355H93.61609L104.88612 23.129466Z" fill="#ffffff" fill-rule="evenodd"/>
<path transform="matrix(1,0,0,-1,0,146.92536)" d="M128.29703 .000356V3.880497H112.446979V9.954327H122.7131V13.765102H112.446979V19.249325H128.08893V23.129466H108.081279V.000356H128.29703Z" fill="#ffffff" fill-rule="evenodd"/>
<path transform="matrix(1,0,0,-1,0,146.92536)" d="M154.13573 19.249325V23.129466H130.69448V19.249325H140.23226V.000355H144.59796V19.249325H154.13573Z" fill="#ffffff" fill-rule="evenodd"/>
<path transform="matrix(1,0,0,-1,0,146.92536)" d="M178.10157 .000356V3.880497H162.25151V9.954327H172.51763V13.765102H162.25151V19.249325H177.89347V23.129466H157.88582V.000356H178.10157Z" fill="#ffffff" fill-rule="evenodd"/>
<path transform="matrix(1,0,0,-1,0,146.92536)" d="M204.77266 18.86755C204.78565 20.19735 204.45648 21.236876 203.78517 21.986126 203.11386 22.735375 202.02243 23.116488 200.5109 23.129466H183.30832V.000355H187.67403V9.052573H191.73328L200.99597 .000355H206.6802L197.45787 9.052573H200.3722C201.7683 9.038844 202.8482 9.369438 203.61193 10.044356 204.37564 10.719273 204.76256 11.820886 204.77266 13.349194V18.86755ZM200.40695 14.355686C200.41852 13.871239 200.32599 13.512604 200.12937 13.279781 199.93276 13.046957 199.56267 12.931268 199.01912 12.932714H187.67403V19.249325H199.01912C199.6082 19.250769 199.9913 19.117728 200.1684 18.850197 200.3455 18.582667 200.42502 18.17197 200.40695 17.61811V14.355686Z" fill="#ffffff" fill-rule="evenodd"/>
<path transform="matrix(1,0,0,-1,0,146.92536)" d="M234.49584 .000355 223.05243 23.129466H218.96048L207.23947 .000355H211.92095L214.38304 4.925317H227.21373L229.64116 .000355H234.49584ZM225.65325 8.632044H215.94353L220.83307 18.763764 225.65325 8.632044Z" fill="#ffffff" fill-rule="evenodd"/>
<path transform="matrix(1,0,0,-1,0,146.92536)" d="M260.8201 .000355V23.129466H256.73188V6.172768L241.53662 23.129466H237.58695V.000355H241.67519V16.922476L256.9051 .000355H260.8201Z" fill="#ffffff" fill-rule="evenodd"/>
<path transform="matrix(1,0,0,-1,0,146.92536)" d="M300.94813 17.618668C300.98567 19.319539 300.7027 20.658362 300.0992 21.635142 299.49577 22.61192 298.3466 23.110028 296.6517 23.129466H281.6646C280.10905 23.110747 279.0104 22.61986 278.36869 21.656805 277.72697 20.69375 277.41658 19.370833 277.4375 17.688054V5.476345C277.42958 3.549648 277.76597 2.151688 278.44667 1.282467 279.12736 .413245 280.2-.014125 281.6646 .000356H296.68635C298.21305 .022684 299.3088 .523674 299.97364 1.503324 300.63847 2.482974 300.9633 3.807314 300.94813 5.476345V17.618668ZM295.88853 19.249325C296.1133 19.248595 296.27955 19.18931 296.38728 19.071467 296.49497 18.953625 296.54847 18.78159 296.54777 18.55536V4.504959C296.55427 4.281627 296.5152 4.121175 296.43064 4.023603 296.34605 3.926031 296.1769 3.878329 295.92323 3.880497H282.42768C282.17399 3.878329 282.00486 3.926031 281.9203 4.023603 281.83573 4.121175 281.7967 4.281627 281.80323 4.504959V18.55536C281.80393 18.78159 281.8632 18.953625 281.98103 19.071469 282.09883 19.18931 282.27085 19.248597 282.49708 19.249325H295.88853Z" fill="#ffffff" fill-rule="evenodd"/>
<path transform="matrix(1,0,0,-1,0,146.92536)" d="M337.36509 23.129466H332.82206L327.89778 6.519533 322.97349 23.129466H318.9508L313.99186 6.658238 309.10224 23.129466H304.14329L311.7378 .000355H315.76045L320.7541 16.055563 325.64369 .000355H329.7357L337.36509 23.129466Z" fill="#ffffff" fill-rule="evenodd"/>
<path transform="matrix(1,0,0,-1,0,146.92536)" d="M363.89747 .000355V23.129466H359.8092V6.172768L344.61399 23.129466H340.6643V.000355H344.75254V16.922476L359.98246 .000355H363.89747Z" fill="#ffffff" fill-rule="evenodd"/>
<path transform="matrix(1,0,0,-1,0,146.92536)" d="M390.6379 .000356V3.880497H374.78788V9.954327H385.054V13.765102H374.78788V19.249325H390.4298V23.129466H370.42216V.000356H390.6379Z" fill="#ffffff" fill-rule="evenodd"/>
<path transform="matrix(1,0,0,-1,0,146.92536)" d="M419.3553 18.55536C419.3553 19.943812 418.97416 21.048409 418.21186 21.869153 417.44953 22.689896 416.30607 23.11 414.78138 23.129466H395.84468V.000356H414.6426C416.11253 .001778 417.2618 .38868 418.09056 1.161062 418.91929 1.933443 419.34086 3.082768 419.3553 4.609036V18.55536ZM400.2104 19.249325H413.84468C414.30076 19.254378 414.60289 19.157509 414.75108 18.958718 414.89924 18.759926 414.9672 18.428883 414.9549 17.965592V4.990652C414.9701 4.580126 414.9137 4.291023 414.78575 4.123343 414.6578 3.955664 414.36726 3.874715 413.91407 3.880497H400.2104V19.249325Z" fill="#ffffff" fill-rule="evenodd"/>
</g>
</svg>
